<?xml version="1.0" standalone="no"?>
<!DOCTYPE svg PUBLIC "-//W3C//DTD SVG 1.1//EN" "http://www.w3.org/Graphics/SVG/1.1/DTD/svg11.dtd" >
<svg xmlns="http://www.w3.org/2000/svg" xmlns:xlink="http://www.w3.org/1999/xlink" version="1.1">
<metadata>
Created by FontForge 20170731 at Thu May  4 15:05:20 2023
 By Aleksey,,,
slidehack.com
</metadata>
<defs>
<font id="SamuraiBlastRegular" horiz-adv-x="0" >
  <font-face 
    font-family="Samurai Blast"
    font-weight="400"
    font-stretch="normal"
    units-per-em="2048"
    panose-1="0 0 0 0 0 0 0 0 0 0"
    ascent="1638"
    descent="-410"
    x-height="1377"
    cap-height="1407"
    bbox="-13.2 -167.006 1503 1461.02"
    underline-thickness="102"
    underline-position="-307"
    unicode-range="U+000A-00AD"
  />
<missing-glyph horiz-adv-x="1079" 
d="M102 1434h875v-1434h-875v1434zM160 1393l379 -633l381 633h-760zM514 717l-369 614v-1231zM541 674l-379 -631h758zM565 717l371 -621v1239z" />
    <glyph glyph-name=".notdef" horiz-adv-x="1079" 
d="M102 1434h875v-1434h-875v1434zM160 1393l379 -633l381 633h-760zM514 717l-369 614v-1231zM541 674l-379 -631h758zM565 717l371 -621v1239z" />
    <glyph glyph-name=".null" 
 />
    <glyph glyph-name=".null" 
 />
    <glyph glyph-name="nonmarkingreturn" horiz-adv-x="682" 
 />
    <glyph glyph-name="LF" unicode="&#xa;" 
 />
    <glyph glyph-name="controlCR" unicode="&#xd;" 
 />
    <glyph glyph-name="space" unicode=" " horiz-adv-x="706" 
 />
    <glyph glyph-name="exclam" unicode="!" horiz-adv-x="454" 
d="M294 320q38 0 65.5 -27.5t27.5 -65.5v-184q0 -17 -13 -29.5t-30 -12.5h-184q-38 0 -65 27t-27 65v184q0 17 12.5 30t29.5 13h184zM314 269q16 -10 27 -26.5t13 -28.5l3 -11q2 58 -33 80q-11 7 -17.5 1t7.5 -15zM315 1424h24q20 0 34 -14t14 -33v-839q0 -23 -16.5 -39.5
t-39.5 -16.5h-208q-23 0 -39 16.5t-16 39.5v639q0 102 72.5 174.5t174.5 72.5zM133 1172q-5 32 0.5 64t14.5 48l8 17q-28 -26 -38.5 -65t-9.5 -67q0 -10 7.5 -15.5t13.5 -0.5t4 19zM344 527q12 21 7 68q-1 -28 -16 -47q-16 -19 -4 -25q7 -4 13 4z" />
    <glyph glyph-name="quotedbl" unicode="&#x22;" horiz-adv-x="798" 
d="M260 1379q10 0 17 -9q68 -88 52 -214q-7 -54 -49.5 -104.5t-89.5 -65.5q-1 0 -2 -0.5t-2 -0.5q-41 -5 -56 24q-4 6 -2 15q18 82 -6 164q-20 70 -77 157q-7 11 -1 22.5t19 11.5h197zM248 1331q16 -14 29.5 -34t18.5 -33l5 -12q-2 53 -36 92q-10 12 -22 8q-15 -4 5 -21z
M694 1370q69 -89 53 -214q-7 -54 -49.5 -104.5t-89.5 -65.5q-1 0 -2.5 -0.5t-2.5 -0.5q-41 -5 -56 24q-4 6 -2 15q18 84 -5 164q-19 67 -78 157q-7 11 -1 22.5t19 11.5h197q10 0 17 -9zM668 1331q16 -14 29.5 -34t18.5 -33l5 -12q-2 53 -36 92q-10 12 -22 8q-15 -4 5 -21z
" />
    <glyph glyph-name="quotedbl" unicode="&#x201d;" horiz-adv-x="798" 
d="M260 1379q10 0 17 -9q68 -88 52 -214q-7 -54 -49.5 -104.5t-89.5 -65.5q-1 0 -2 -0.5t-2 -0.5q-41 -5 -56 24q-4 6 -2 15q18 82 -6 164q-20 70 -77 157q-7 11 -1 22.5t19 11.5h197zM248 1331q16 -14 29.5 -34t18.5 -33l5 -12q-2 53 -36 92q-10 12 -22 8q-15 -4 5 -21z
M694 1370q69 -89 53 -214q-7 -54 -49.5 -104.5t-89.5 -65.5q-1 0 -2.5 -0.5t-2.5 -0.5q-41 -5 -56 24q-4 6 -2 15q18 84 -5 164q-19 67 -78 157q-7 11 -1 22.5t19 11.5h197q10 0 17 -9zM668 1331q16 -14 29.5 -34t18.5 -33l5 -12q-2 53 -36 92q-10 12 -22 8q-15 -4 5 -21z
" />
    <glyph glyph-name="quotedbl" unicode="&#x201c;" horiz-adv-x="798" 
d="M260 1379q10 0 17 -9q68 -88 52 -214q-7 -54 -49.5 -104.5t-89.5 -65.5q-1 0 -2 -0.5t-2 -0.5q-41 -5 -56 24q-4 6 -2 15q18 82 -6 164q-20 70 -77 157q-7 11 -1 22.5t19 11.5h197zM248 1331q16 -14 29.5 -34t18.5 -33l5 -12q-2 53 -36 92q-10 12 -22 8q-15 -4 5 -21z
M694 1370q69 -89 53 -214q-7 -54 -49.5 -104.5t-89.5 -65.5q-1 0 -2.5 -0.5t-2.5 -0.5q-41 -5 -56 24q-4 6 -2 15q18 84 -5 164q-19 67 -78 157q-7 11 -1 22.5t19 11.5h197q10 0 17 -9zM668 1331q16 -14 29.5 -34t18.5 -33l5 -12q-2 53 -36 92q-10 12 -22 8q-15 -4 5 -21z
" />
    <glyph glyph-name="dollar" unicode="$" horiz-adv-x="1142" 
d="M909 831q195 -65 167 -346q-12 -124 -76 -221q16 -9 27 -15q34 -19 43.5 -46.5t4 -45t-15.5 -30.5q-4 -5 -33.5 -43.5t-38.5 -50.5q-26 -34 -70 -23q-83 41 -214 61v-14q0 -15 -11 -26t-26 -11h-207q-15 0 -26 11t-11 26v12q-55 -9 -105 -23.5t-73 -25.5l-23 -10
q-44 -11 -70 24q-27 36 -73 94q-9 11 -15 29t4 45.5t44 46.5q200 114 458 114q71 0 160 -13q50 76 41 139q-6 47 -31 72.5t-57.5 28.5t-54.5 1t-36 -7l-52 -21q-75 -29 -152 -36t-116 1l-39 8q-195 65 -167 345q12 126 76 222q-5 3 -14.5 7.5t-12.5 6.5q-34 19 -43.5 46.5
t-4 45t14.5 30.5q4 5 34.5 44t38.5 50q26 34 70 23q83 -41 214 -61v14q0 15 11 26t26 11h207q15 0 26 -11t11 -26v-12q55 9 105 23.5t73 25.5l23 10q44 11 70 -23q27 -36 73 -94q9 -11 15 -29t-4 -46t-44 -47q-199 -113 -458 -113q-78 0 -160 12q-50 -76 -41 -138
q6 -47 32.5 -72.5t59 -28.5t54.5 -0.5t33 6.5l52 20q75 29 152 36t116 -1zM953 1323q-7 2 -13 1t-5.5 -6t10.5 -10q17 -8 30 -23t17 -26l5 -11q-5 57 -44 75zM152 940q-3 32 4 65.5t16 50.5l8 18q-50 -61 -53 -135q0 -10 6.5 -16t13 -1.5t5.5 18.5zM144 195q7 12 19.5 21.5
t21.5 13.5l9 3q-60 -14 -78 -36q-9 -12 1 -19q12 -8 27 17zM945 719q25 -20 42 -48t21 -46l5 -18q3 39 -14.5 77t-36.5 54q-14 12 -25 2q-6 -9 8 -21z" />
    <glyph glyph-name="ampersand" unicode="&#x26;" horiz-adv-x="1067" 
d="M1042 242q18 -48 -3.5 -77t-45.5 -38q-36 -15 -61 -12q-66 8 -125 102q-2 4 -6 10t-6 10q-71 -85 -167 -157q-69 -52 -139.5 -72.5t-146.5 -3.5t-143 77q-97 88 -95.5 232.5t96.5 289.5q-51 29 -85 68.5t-46 79t-15.5 82t5.5 76.5q15 78 63 160.5t110 140.5
q68 64 153.5 106.5t135.5 54.5q38 9 91 -5t59 -41q4 -17 5 -62.5t0 -82.5l-1 -37q-56 -10 -111.5 -30.5t-115 -65t-94.5 -102.5q-22 -38 -28 -67.5t3.5 -46t20 -25t24.5 -12.5q62 49 114.5 66t77.5 -3q33 -28 44.5 -68t5 -73.5t-22.5 -55.5q-17 -22 -72.5 -67.5t-83.5 -78.5
q-19 -24 -27.5 -34.5t-25.5 -34t-22 -39.5t-9.5 -37.5t2 -41t21.5 -38.5q61 -74 202 49q23 20 146 155q-9 85 -2 193q2 27 56 37.5t106 8.5t63 -7q7 -3 6.5 -14.5t-3.5 -45t2 -99.5q3 -38 9.5 -75.5t19 -77.5t19.5 -61t23.5 -63t18.5 -47zM576 769q-5 12 -15 9
q-15 -4 -1 -32q6 -12 8 -28t0 -26l-1 -9q20 59 9 86zM587 1342q-24 5 -65 -4t-70 -35q2 1 6.5 3t19 6.5t29 7t35 2.5t40.5 -5q14 -4 19 1.5t0.5 13.5t-14.5 10zM192 164q10 -23 42 -50t70 -34q-7 3 -18 9.5t-35 31t-36 54.5q-6 13 -13.5 14t-10 -7.5t0.5 -17.5zM990 221
q-2 -32 12 -31q8 0 10 12q2 13 -5.5 42t-23.5 55q1 -5 2 -13.5t3 -29.5t2 -35z" />
    <glyph glyph-name="quotesingle" unicode="'" horiz-adv-x="380" 
d="M277 1304q68 -88 52 -215q-7 -54 -49.5 -104.5t-89.5 -65.5q-1 0 -2 -0.5t-2 -0.5q-41 -5 -56 24q-4 6 -2 15q18 82 -6 164q-20 71 -77 158q-7 11 -1 22t19 11h197q11 0 17 -8zM248 1265q16 -14 29.5 -34t18.5 -33l5 -12q-2 53 -36 92q-10 12 -22 8q-15 -4 5 -21z" />
    <glyph glyph-name="quotesingle" unicode="&#x2019;" horiz-adv-x="380" 
d="M277 1304q68 -88 52 -215q-7 -54 -49.5 -104.5t-89.5 -65.5q-1 0 -2 -0.5t-2 -0.5q-41 -5 -56 24q-4 6 -2 15q18 82 -6 164q-20 71 -77 158q-7 11 -1 22t19 11h197q11 0 17 -8zM248 1265q16 -14 29.5 -34t18.5 -33l5 -12q-2 53 -36 92q-10 12 -22 8q-15 -4 5 -21z" />
    <glyph glyph-name="quotesingle" unicode="&#x2018;" horiz-adv-x="380" 
d="M277 1304q68 -88 52 -215q-7 -54 -49.5 -104.5t-89.5 -65.5q-1 0 -2 -0.5t-2 -0.5q-41 -5 -56 24q-4 6 -2 15q18 82 -6 164q-20 71 -77 158q-7 11 -1 22t19 11h197q11 0 17 -8zM248 1265q16 -14 29.5 -34t18.5 -33l5 -12q-2 53 -36 92q-10 12 -22 8q-15 -4 5 -21z" />
    <glyph glyph-name="parenleft" unicode="(" horiz-adv-x="606" 
d="M349 645q2 -104 21.5 -196.5t46.5 -149.5t53.5 -99.5t45.5 -60.5l18 -18q5 -5 11.5 -13.5t4.5 -33.5t-30 -48q-30 -25 -72.5 -29.5t-74.5 4t-55 22.5q-261 161 -261 644q0 115 24.5 226t60 191t77 144t75.5 98t54 41q45 17 95 10t84 -38q33 -30 34 -75t-22 -72
q-17 -22 -30 -40.5t-47 -78t-56 -116.5t-40 -142.5t-17 -169.5zM289 1218q4 7 11.5 18t32 35t50.5 37q21 10 11 22q-9 9 -22 1q-25 -16 -50.5 -46t-32.5 -67zM466 85q8 -6 16.5 -4t9 9t-11.5 16q-24 16 -44 42t-28 44l-8 18q1 -38 22.5 -72.5t43.5 -52.5z" />
    <glyph glyph-name="parenright" unicode=")" horiz-adv-x="606" 
d="M256 1367q20 -7 54 -41t75.5 -98t77 -144t60 -191t24.5 -226q0 -483 -260 -644q-23 -14 -55 -22.5t-74.5 -4t-72.5 29.5q-28 23 -31.5 47t6.5 36l10 12q7 6 19 18.5t43.5 59t55.5 101.5t44.5 148t22.5 197q1 84 -17 169.5t-40 142.5t-56 116.5t-47 78t-30 40.5
q-23 27 -22 72t34 75q34 31 84 38t95 -10zM139 85q22 18 43.5 52.5t22.5 72.5q-27 -66 -81 -103q-12 -8 -11 -16.5t9.5 -9.5t16.5 4zM221 1309q26 -13 49.5 -35.5t33.5 -39.5l11 -16q-7 37 -32.5 67t-50.5 46q-14 9 -22.5 -1.5t11.5 -20.5z" />
    <glyph glyph-name="comma" unicode="," horiz-adv-x="430" 
d="M314 358q80 -107 65 -256q-5 -49 -25 -89.5t-49 -66t-56 -41t-54 -24.5q-2 -1 -5 -1q-44 -4 -60 25q-4 6 -2 16q32 138 0 242q-24 79 -83 168q-8 11 -1.5 23.5t20.5 12.5h231q13 0 19 -9zM176 -68q18 38 -9 121q4 -56 -11 -113q-6 -24 3.5 -24t16.5 16zM292 319
q9 -6 16.5 -16t10.5 -17l3 -7q-10 49 -27 62q-8 7 -15 0q-8 -9 12 -22z" />
    <glyph glyph-name="hyphen" unicode="-" horiz-adv-x="995" 
d="M816 695q56 0 96 -40t40 -96t-40 -96t-96 -40h-637q-56 0 -96 40t-40 96t40 96t96 40h637zM139 615q23 17 46.5 29.5t36.5 16.5l12 4q-70 0 -110 -29q-13 -10 -15 -19.5t6.5 -10.5t23.5 9z" />
    <glyph glyph-name="period" unicode="." horiz-adv-x="419" 
d="M89 364h158q52 0 89 -36.5t37 -88.5v-158q0 -17 -13 -29.5t-30 -12.5h-157q-52 0 -89 36.5t-37 88.5v158q0 17 12.5 29.5t29.5 12.5zM272 295q22 -14 37.5 -37.5t19.5 -39.5l4 -16q3 80 -47 112q-16 11 -25 1q-8 -8 11 -20z" />
    <glyph glyph-name="slash" unicode="/" horiz-adv-x="933" 
d="M724 1461q89 -1 121.5 -46.5t4.5 -100.5q-18 -35 -208.5 -658t-206.5 -659q-74 -165 -225 -164q-89 1 -121.5 46.5t-4.5 100.5q15 29 110.5 334t195 629t109.5 353q24 68 81 117t144 48zM309 -93q24 16 48 47.5t29 69.5q-4 -7 -11 -18.5t-30.5 -37t-48.5 -39.5
q-13 -7 -13 -15t8.5 -10t17.5 3zM643 1374q20 11 11 21.5t-23 0.5q-23 -16 -47.5 -48t-29.5 -70q4 7 10.5 18.5t30 37.5t48.5 40z" />
    <glyph glyph-name="zero" unicode="0" horiz-adv-x="1259" 
d="M1185 1241q7 -9 12.5 -23.5t7 -34.5t-12.5 -41.5t-44 -38.5q-4 -3 -10 -6l-15 -7.5l-15 -7.5q31 -61 38 -130q7 -94 6 -279t-6 -291q-2 -36 -9.5 -76t-33 -98.5t-65 -103t-112 -77t-166.5 -32.5h-261q-94 0 -166.5 32.5t-111.5 77t-64.5 103t-33 98.5t-9.5 76
q-5 106 -6 291t6 279q7 69 38 130q-7 4 -21.5 11t-19.5 10q-39 22 -49.5 53t-4.5 51t17 34q8 9 82 106q13 18 34.5 25.5t45.5 1.5q7 -3 19 -8.5t52.5 -19.5t83.5 -24.5t108.5 -19t130.5 -8.5q104 0 202.5 20t145.5 40l46 20q50 12 79 -27q40 -54 82 -106zM221 200
q11 -26 37 -56.5t62 -43.5q-55 45 -74 108q-4 14 -12 15.5t-12.5 -6.5t-0.5 -17zM226 1291q31 -11 113 -17q-45 8 -99 40q-23 14 -31 1q-7 -12 11 -22zM857 532v285q0 139 -106 139h-250q-31 0 -64.5 -33t-33.5 -106v-407q0 -73 33.5 -106t64.5 -33h250q106 0 106 139v122z
M1096 878q5 46 0.5 83t-14.5 56q-9 19 -23 17q-13 -5 -2 -26q16 -32 26 -64.5t11 -49.5z" />
    <glyph glyph-name="one" unicode="1" horiz-adv-x="823" 
d="M491 1377h262v-1367q-7 -1 -18 -2.5t-44 -3t-63 1t-66 13.5t-62.5 29.5t-44 54t-17.5 82.5v718q-120 -97 -133 -100q-7 -2 -24.5 -0.5t-47.5 14t-56.5 35.5t-48 72.5t-26.5 117.5q9 5 25.5 15t65 43t93.5 69t102.5 92.5t102.5 115.5zM175 1003q36 24 116 115
q-67 -66 -126 -90q-25 -10 -19 -24q5 -13 23 -4q3 1 6 3zM577 71q16 -9 23 3q3 10 -8 16q-29 12 -49.5 29.5t-29 33.5t-13 30.5t-4.5 22.5l1 9q-20 -92 80 -144z" />
    <glyph glyph-name="two" unicode="2" horiz-adv-x="1294" 
d="M1104 316q42 0 72 -10t43 -24.5t19.5 -29t6.5 -24.5v-10v-110q0 -64 -36 -84.5t-105 -20.5h-1041v200q0 54 18.5 84t69.5 70q12 9 101.5 75t173.5 134t137 124q139 150 164 284q-41 -3 -83 -3q-100 0 -195 15t-164.5 38.5t-111 41.5t-71.5 35t-44 39t-13 42t6.5 34.5
t12.5 23.5q50 61 83 108q13 18 35 25.5t46 1.5q20 -9 56.5 -22.5t146 -36t213.5 -22.5q66 0 133 8.5t116 20t88.5 23.5t59.5 20l20 9q49 12 80 -27q12 -16 46.5 -60.5t36.5 -47.5q7 -10 12 -24t6.5 -34.5t-12.5 -42t-44 -38.5q-51 -28 -107 -50q-6 -103 -31.5 -189.5
t-50.5 -130.5t-65 -101q-30 -42 -106.5 -120.5t-138.5 -135.5l-62 -58h479zM924 794q-18 -20 -8 -30q10 -9 23 6l4 6q27 46 55 154q-32 -89 -74 -136zM222 1306q31 -11 112 -17q-45 8 -99 40q-23 14 -30 1q-7 -12 11 -22zM137 265q1 11 6.5 22t10.5 17l5 5q-39 -31 -43 -52
q-2 -12 8 -13q11 -1 13 21zM1205 125q9 104 -39 138q-8 6 -17 5t-9.5 -7.5t11.5 -16.5q21 -16 34.5 -45.5t16.5 -51.5z" />
    <glyph glyph-name="three" unicode="3" horiz-adv-x="1226" 
d="M1168 1247q10 -13 16 -32.5t-4.5 -49t-47.5 -50.5q-29 -16 -45 -23q-1 -8 -6.5 -46t-10.5 -59.5t-14.5 -56t-25 -63t-37.5 -52.5q-41 -45 -74 -76t-45 -40l-13 -9q42 -9 90.5 -41t80.5 -78q26 -38 42.5 -95.5t11 -135t-41.5 -143.5q-52 -93 -143.5 -137.5t-191.5 -48.5
q-47 -2 -140.5 -4.5t-225.5 -3.5t-163 6q-117 19 -99 168q12 104 173 106l486 10q39 5 61 33.5t22.5 61.5t-18 64.5t-51.5 41.5q-27 8 -234.5 15.5t-268.5 18.5q-39 7 -61 44t-23 80.5t20.5 82t61.5 48.5q12 3 56 11t113 23t145 35q131 35 168 145q-54 -6 -115 -6
q-124 0 -243 26.5t-174 50t-98 47.5q-37 21 -47.5 50.5t-4.5 49.5t16 32q46 57 79 102q12 17 33 24.5t44 1.5q19 -9 53.5 -21.5t138 -34t203.5 -21.5q63 0 126.5 8t110 19t84 22.5t56.5 19.5l19 8q47 12 77 -26q9 -12 42 -54t37 -48zM214 1306q31 -11 113 -17q-45 8 -99 40
q-23 14 -31 1q-7 -12 11 -22zM275 711q24 14 48.5 24t37.5 13l13 3q-82 -6 -113 -17q-20 -7 -18 -20q2 -14 21 -8zM184 211q18 13 8.5 21t-23.5 -3q-48 -36 -39 -137q1 9 3 24t16 47t35 48zM956 584q-10 20 -56 38q25 -14 34 -36t19 -16q8 4 3 14z" />
    <glyph glyph-name="four" unicode="4" horiz-adv-x="1206" 
d="M1080 334q9 -49 27.5 -107t32.5 -91l15 -34q-62 -72 -97 -87q-29 -10 -60 -11.5t-65.5 15.5t-55.5 51q-23 36 -33.5 58t-26.5 69t-24.5 118t-13.5 174q-362 -3 -433 0q-138 5 -213.5 103.5t-75.5 247.5q0 74 -2 190.5t-2 180.5t4 83q6 28 39 47.5t90 19.5q59 0 101.5 -41
t41.5 -94v-70.5v-114v-113.5v-61q0 -24 3.5 -42.5t15.5 -38.5t39 -31.5t67 -11.5h325v310q0 15 -0.5 69.5t1 76t4.5 58t12 56.5t23 31q24 19 58.5 28t74.5 2.5t67 -33.5q17 -16 29 -34.5t16 -28.5l3 -10q2 -51 0.5 -234t1 -417.5t11.5 -282.5zM151 658q12 -25 39.5 -55
t63.5 -41q-6 5 -16.5 13.5t-31.5 35.5t-31 55q-8 21 -19.5 14t-4.5 -22zM824 1182q5 45 35 101q12 22 0 30q-11 8 -21 -10q-2 -4 -3 -8q-10 -33 -11 -113zM942 76q15 -17 26 -10q12 7 -4 25q-3 2 -6 5q-22 18 -45.5 49t-36.5 53l-12 22q44 -103 78 -144z" />
    <glyph glyph-name="five" unicode="5" horiz-adv-x="1263" 
d="M1175 625q28 -66 31.5 -146t-19 -158.5t-67 -145.5t-119.5 -112t-169 -53q-148 -7 -313 -6t-282 6q-84 3 -129 37t-45 114q0 39 11 66t32 41t40 19.5t45 8.5q3 3 216.5 0.5t285.5 -0.5q233 6 233 152q0 81 -59 132t-176 41q-74 -6 -181 -46t-190 -80t-87 -41
q-26 -6 -48 -6.5t-37 6t-26 14t-18 20.5t-11 23t-6 24.5t-2.5 21t-0.5 16.5q-4 40 -3.5 337.5t12.5 349.5q15 64 88.5 75t246.5 -35q125 -34 298.5 -22.5t209.5 51.5q35 40 90.5 48t98.5 -22t44 -88q0 -47 -11 -82.5t-41 -70t-91.5 -59t-154.5 -37.5q-133 -16 -248.5 -13.5
t-192.5 13.5l-77 12v-240q12 4 33.5 11.5t83 26t117 31.5t122.5 22t114 5q128 -11 213.5 -72.5t138.5 -188.5zM1068 1187q-13 -24 -30.5 -44t-28.5 -29l-11 -8q41 17 60 32t32 35q8 14 7 24t-10.5 8t-18.5 -18zM189 1258q18 13 8.5 21t-23.5 -3q-48 -36 -39 -137q1 9 3 24
t16 47t35 48zM142 216q21 10 15 20q-4 7 -14 2q-20 -12 -36 -57q13 25 35 35zM969 434q37 101 -24 169q-12 14 -23 6q-7 -7 1 -16q29 -31 40.5 -71t8.5 -64z" />
    <glyph glyph-name="six" unicode="6" horiz-adv-x="1218" 
d="M452 995q-25 -66 -25 -125v-143q269 2 480 0q57 -1 100 -17t64.5 -38t34.5 -51.5t16 -48.5t3 -38q0 -9 0.5 -44.5t0.5 -94.5t-1 -147q-1 -56 -22 -102.5t-51 -74t-65 -46.5t-61.5 -26t-42.5 -7q-2 0 -77 -2.5t-181.5 -2.5t-224.5 5q-75 3 -131.5 40.5t-84.5 85
t-45.5 105.5t-21 90.5t-3.5 52.5q0 5 -1.5 82.5t-3 159.5t-0.5 175.5t5 140.5q8 79 48 158q-40 20 -52 27q-38 21 -48.5 51.5t-4.5 50t17 33.5q4 5 18.5 24t35 45.5t26.5 34.5q30 38 78 26q18 -9 50 -22t133 -35t202 -22q64 0 125.5 8t103.5 19.5t74.5 23.5t48.5 20l16 8
q23 6 44.5 -1.5t33.5 -24.5q43 -58 80 -104q11 -13 17 -33t-4.5 -50.5t-48.5 -51.5q-37 -21 -65 -34.5t-93 -38.5t-150 -38.5t-182 -13.5q-86 0 -165 11zM977 1319q-24 -14 -49 -24t-38 -13l-13 -3q82 6 113 17q20 7 19 20q-2 14 -21 8q-5 -1 -11 -5zM193 1021q21 16 10 24
q-6 3 -13 -2q-18 -18 -23 -64q7 27 26 42zM204 200q9 -27 32 -60t57 -49q-51 50 -64 114q-3 17 -13 17q-11 0 -13 -13zM1057 586q-16 57 -116 83q3 -1 8.5 -3.5t19.5 -11.5t26 -18.5t23.5 -25t16.5 -31.5q6 -22 16.5 -15.5t5.5 22.5zM800 476h-372q-8 -184 44 -223
q26 -19 80 -27.5t99.5 -8t84.5 4.5q109 13 125 53q10 25 6 149q-1 23 -17.5 36t-33.5 14z" />
    <glyph glyph-name="seven" unicode="7" horiz-adv-x="1329" 
d="M1208 1244q10 -13 16.5 -33t-4.5 -50.5t-49 -51.5q-23 -13 -60 -31q-365 -849 -415 -950q-34 -69 -62 -93.5t-62 -29.5q-47 -7 -104 6.5t-97 58.5q-26 29 -33.5 64.5t-3 57t12.5 36.5q19 34 350 756h-33q-288 0 -507 125q-38 21 -48.5 51.5t-4.5 50t17 33.5q4 5 18.5 24
t35 45.5t26.5 34.5q30 38 78 26q18 -9 50 -22t133 -35t202 -22q64 0 127 8t108 19.5t80.5 23.5t52.5 20l18 8q50 13 77 -26q34 -47 81 -104zM279 1296q31 -11 113 -17q-45 8 -99 40q-23 14 -31 1q-7 -12 11 -22zM413 104q12 -15 23 -9q9 5 -4 22q-16 21 -21 53t-2 54l3 22
q-35 -95 1 -142zM1015 971q6 23 -7 28q-12 5 -17 -14l-2 -11q-2 -28 -14 -65t-23 -61l-10 -23q58 94 73 146z" />
    <glyph glyph-name="eight" unicode="8" horiz-adv-x="1228" 
d="M1162 472h1q11 -61 -3.5 -164.5t-58.5 -166.5q-17 -24 -33.5 -41t-54 -39.5t-85.5 -36.5t-129.5 -24t-184.5 -10t-184.5 10t-129.5 24t-85.5 36.5t-54 39.5t-33.5 41q-44 63 -58 166.5t-3 164.5q8 45 34.5 85.5t48.5 58.5l22 18q-3 4 -8 11t-18 31.5t-23 52t-18 71.5
t-7 90q1 110 55 209q-4 2 -15.5 8t-16.5 9q-37 20 -47.5 50t-4.5 48.5t16 32.5q4 6 37 48t42 54q12 17 32.5 24t42.5 1q6 -3 18 -8t50.5 -18.5t79.5 -23.5t103.5 -18t124.5 -8q99 0 193 19t139 38l44 19q48 13 76 -25q40 -56 78 -102q10 -13 16.5 -32t-4 -49t-47.5 -50
q-5 -3 -16.5 -9t-15.5 -8q53 -97 54 -209q1 -73 -17.5 -137t-37.5 -91l-18 -28q10 -7 24.5 -20t43 -55t36.5 -87zM466 1006q-34 0 -62.5 -32t-28.5 -82q0 -49 26.5 -82t64.5 -32q278 0 295 2q37 4 65 34t28 83t-29 81t-64 28h-295zM155 224q9 -28 31.5 -60.5t56.5 -48.5
q-50 50 -63 114q-3 17 -13 17q-11 0 -13 -13zM238 1296q31 -11 113 -17q-46 8 -100 40q-23 14 -30 1q-7 -12 11 -22zM769 266q37 4 65 33.5t28 82.5t-29 81.5t-64 28.5h-312q-34 0 -62.5 -32t-28.5 -82q0 -49 26.5 -82.5t64.5 -32.5q286 0 312 3zM1034 910q-2 -25 11 -26
q13 -2 18 17l2 11q2 25 -10 68.5t-36 84.5q3 -7 6.5 -20t8 -53.5t0.5 -81.5z" />
    <glyph glyph-name="nine" unicode="9" horiz-adv-x="1159" 
d="M1087 985q0 -5 1.5 -85t3 -165t0.5 -181.5t-5 -144.5q-18 -213 -62 -293q-70 -131 -163 -119q-2 0 -47 17.5t-124 32t-177 13.5q-64 -1 -118 -12.5t-83 -24.5t-62.5 -21.5t-65.5 -4.5q-36 4 -60.5 32t-33 65t-12 73t-1.5 61l1 24q90 54 194.5 82t189 31t156 -2.5
t113 -12.5t42.5 -5q8 12 10 69.5t0 109.5l-2 52q-278 -2 -495 0q-59 1 -103 18t-66.5 39.5t-35.5 53t-16 50.5t-3 39q0 9 -0.5 55t-0.5 115.5t1 160.5q1 58 23 106t52.5 76t66.5 47.5t63 27t44 7.5q2 0 79.5 2.5t187 2.5t231.5 -5q56 -2 101.5 -23.5t73.5 -51t49 -71
t30.5 -76t15 -74.5t6.5 -57t1 -33zM239 1272q14 5 15 12.5t-7.5 10.5t-17.5 0q-29 -13 -54 -41.5t-34 -67.5q3 7 9.5 17.5t31.5 33.5t57 35zM142 224q4 10 12 19t14 13l7 4q-46 -18 -56 -38q-6 -11 4 -15t19 17zM782 854q8 212 -46 248q-41 27 -134.5 33.5t-137.5 -2.5
q-55 -6 -78.5 -18.5t-32.5 -35.5q-10 -27 -6 -172q1 -24 13.5 -37.5t24.5 -14.5l12 -1h385zM818 1024q1 -16 6.5 -21t11 2t5.5 21q0 58 -71 102q5 -4 12 -11t20.5 -34t15.5 -59zM914 74q39 19 70 86q-2 -4 -7 -11t-29 -24t-56 -30q-24 -9 -15 -20q10 -13 33 -3z" />
    <glyph glyph-name="question" unicode="?" horiz-adv-x="1159" 
d="M646 320q38 0 65.5 -27.5t27.5 -65.5v-184q0 -17 -13 -29.5t-30 -12.5h-184q-38 0 -65 27t-27 65v184q0 17 12.5 30t29.5 13h184zM665 269q16 -10 26.5 -26.5t13.5 -28.5l3 -11q2 58 -33 80q-11 7 -17.5 1t7.5 -15zM900 1361q84 0 143.5 -59t59.5 -143v-437
q0 -100 -70.5 -170.5t-170.5 -70.5h-420q-10 0 -16 6.5t-6 16.5v73q0 75 53 128t128 53h168q28 0 47.5 19t19.5 47v205q0 27 -19.5 46.5t-46.5 19.5q-130 2 -276 -1q-42 -1 -72.5 -9t-48 -23t-26 -25.5t-16.5 -28.5t-10 -21q-32 -51 -82 -67.5t-108 11.5q-42 22 -54.5 73
t1.5 93q18 73 58 126.5t84 78.5t85 40t68 17l27 2h500zM129 1021q-5 33 -2 62t9 49l7 19q-26 -28 -34 -67.5t-5 -67.5q1 -10 8.5 -15t13.5 0.5t3 19.5zM999 597q50 39 49 118q-1 -6 -3 -15.5t-18.5 -36.5t-42.5 -49q-21 -17 -10 -24q8 -6 25 7z" />
    <glyph glyph-name="A" unicode="A" horiz-adv-x="1245" 
d="M1187 314q4 -20 13 -63.5t12 -60t6 -47t0 -46t-11 -34.5t-23 -33q-38 -37 -92 -54t-98 -15.5t-74 14.5q-40 17 -67 67t-35 92l-7 41q-9 -3 -24.5 -7.5t-60.5 -12t-87.5 -8t-95.5 11.5t-94 40q-18 -133 -53 -176q-38 -47 -112 -48.5t-153 38.5q-80 39 -97 100.5t10 213.5
q18 100 65 278.5t85 306.5l38 129q-4 1 -11.5 3t-28.5 11.5t-38.5 21.5t-37 33.5t-30.5 46.5q-15 44 -14.5 97t20 101t50.5 58q28 9 59 -2t65 -33t50 -27q99 -34 335 -36t327 36q10 5 25 15t27.5 18t26.5 14.5t29 6t29 -8.5q40 -24 55 -118t-11 -137q-25 -43 -62 -71.5
t-61 -35.5l-25 -7q149 -574 176 -713zM1112 1335q-5 23 -21 19q-15 -3 -12 -19l6 -11q8 -9 12.5 -24t5.5 -25l1 -10q13 45 8 70zM285 947q15 30 -4 37q-15 5 -24 -9q-2 -3 -3 -7q-22 -89 -48 -181q51 103 79 160zM568 449q30 -3 79.5 5.5t71.5 23.5q-77 -15 -142 3
q-28 8 -34 -8q-5 -15 14 -22q5 -1 11 -2zM608 533q107 -14 135 19t7 126q-74 319 -130 284q-8 -5 -15 -17q-25 -41 -54.5 -133.5t-42.5 -147.5q-4 -19 -5.5 -32.5t2 -31.5t14 -30t33 -22.5t56.5 -14.5z" />
    <glyph glyph-name="A" unicode="&#xc5;" horiz-adv-x="1245" 
d="M1187 314q4 -20 13 -63.5t12 -60t6 -47t0 -46t-11 -34.5t-23 -33q-38 -37 -92 -54t-98 -15.5t-74 14.5q-40 17 -67 67t-35 92l-7 41q-9 -3 -24.5 -7.5t-60.5 -12t-87.5 -8t-95.5 11.5t-94 40q-18 -133 -53 -176q-38 -47 -112 -48.5t-153 38.5q-80 39 -97 100.5t10 213.5
q18 100 65 278.5t85 306.5l38 129q-4 1 -11.5 3t-28.5 11.5t-38.5 21.5t-37 33.5t-30.5 46.5q-15 44 -14.5 97t20 101t50.5 58q28 9 59 -2t65 -33t50 -27q99 -34 335 -36t327 36q10 5 25 15t27.5 18t26.5 14.5t29 6t29 -8.5q40 -24 55 -118t-11 -137q-25 -43 -62 -71.5
t-61 -35.5l-25 -7q149 -574 176 -713zM1112 1335q-5 23 -21 19q-15 -3 -12 -19l6 -11q8 -9 12.5 -24t5.5 -25l1 -10q13 45 8 70zM285 947q15 30 -4 37q-15 5 -24 -9q-2 -3 -3 -7q-22 -89 -48 -181q51 103 79 160zM568 449q30 -3 79.5 5.5t71.5 23.5q-77 -15 -142 3
q-28 8 -34 -8q-5 -15 14 -22q5 -1 11 -2zM608 533q107 -14 135 19t7 126q-74 319 -130 284q-8 -5 -15 -17q-25 -41 -54.5 -133.5t-42.5 -147.5q-4 -19 -5.5 -32.5t2 -31.5t14 -30t33 -22.5t56.5 -14.5z" />
    <glyph glyph-name="A" unicode="&#xc4;" horiz-adv-x="1245" 
d="M1187 314q4 -20 13 -63.5t12 -60t6 -47t0 -46t-11 -34.5t-23 -33q-38 -37 -92 -54t-98 -15.5t-74 14.5q-40 17 -67 67t-35 92l-7 41q-9 -3 -24.5 -7.5t-60.5 -12t-87.5 -8t-95.5 11.5t-94 40q-18 -133 -53 -176q-38 -47 -112 -48.5t-153 38.5q-80 39 -97 100.5t10 213.5
q18 100 65 278.5t85 306.5l38 129q-4 1 -11.5 3t-28.5 11.5t-38.5 21.5t-37 33.5t-30.5 46.5q-15 44 -14.5 97t20 101t50.5 58q28 9 59 -2t65 -33t50 -27q99 -34 335 -36t327 36q10 5 25 15t27.5 18t26.5 14.5t29 6t29 -8.5q40 -24 55 -118t-11 -137q-25 -43 -62 -71.5
t-61 -35.5l-25 -7q149 -574 176 -713zM1112 1335q-5 23 -21 19q-15 -3 -12 -19l6 -11q8 -9 12.5 -24t5.5 -25l1 -10q13 45 8 70zM285 947q15 30 -4 37q-15 5 -24 -9q-2 -3 -3 -7q-22 -89 -48 -181q51 103 79 160zM568 449q30 -3 79.5 5.5t71.5 23.5q-77 -15 -142 3
q-28 8 -34 -8q-5 -15 14 -22q5 -1 11 -2zM608 533q107 -14 135 19t7 126q-74 319 -130 284q-8 -5 -15 -17q-25 -41 -54.5 -133.5t-42.5 -147.5q-4 -19 -5.5 -32.5t2 -31.5t14 -30t33 -22.5t56.5 -14.5z" />
    <glyph glyph-name="A" unicode="&#xc3;" horiz-adv-x="1245" 
d="M1187 314q4 -20 13 -63.5t12 -60t6 -47t0 -46t-11 -34.5t-23 -33q-38 -37 -92 -54t-98 -15.5t-74 14.5q-40 17 -67 67t-35 92l-7 41q-9 -3 -24.5 -7.5t-60.5 -12t-87.5 -8t-95.5 11.5t-94 40q-18 -133 -53 -176q-38 -47 -112 -48.5t-153 38.5q-80 39 -97 100.5t10 213.5
q18 100 65 278.5t85 306.5l38 129q-4 1 -11.5 3t-28.5 11.5t-38.5 21.5t-37 33.5t-30.5 46.5q-15 44 -14.5 97t20 101t50.5 58q28 9 59 -2t65 -33t50 -27q99 -34 335 -36t327 36q10 5 25 15t27.5 18t26.5 14.5t29 6t29 -8.5q40 -24 55 -118t-11 -137q-25 -43 -62 -71.5
t-61 -35.5l-25 -7q149 -574 176 -713zM1112 1335q-5 23 -21 19q-15 -3 -12 -19l6 -11q8 -9 12.5 -24t5.5 -25l1 -10q13 45 8 70zM285 947q15 30 -4 37q-15 5 -24 -9q-2 -3 -3 -7q-22 -89 -48 -181q51 103 79 160zM568 449q30 -3 79.5 5.5t71.5 23.5q-77 -15 -142 3
q-28 8 -34 -8q-5 -15 14 -22q5 -1 11 -2zM608 533q107 -14 135 19t7 126q-74 319 -130 284q-8 -5 -15 -17q-25 -41 -54.5 -133.5t-42.5 -147.5q-4 -19 -5.5 -32.5t2 -31.5t14 -30t33 -22.5t56.5 -14.5z" />
    <glyph glyph-name="A" unicode="&#xc2;" horiz-adv-x="1245" 
d="M1187 314q4 -20 13 -63.5t12 -60t6 -47t0 -46t-11 -34.5t-23 -33q-38 -37 -92 -54t-98 -15.5t-74 14.5q-40 17 -67 67t-35 92l-7 41q-9 -3 -24.5 -7.5t-60.5 -12t-87.5 -8t-95.5 11.5t-94 40q-18 -133 -53 -176q-38 -47 -112 -48.5t-153 38.5q-80 39 -97 100.5t10 213.5
q18 100 65 278.5t85 306.5l38 129q-4 1 -11.5 3t-28.5 11.5t-38.5 21.5t-37 33.5t-30.5 46.5q-15 44 -14.5 97t20 101t50.5 58q28 9 59 -2t65 -33t50 -27q99 -34 335 -36t327 36q10 5 25 15t27.5 18t26.5 14.5t29 6t29 -8.5q40 -24 55 -118t-11 -137q-25 -43 -62 -71.5
t-61 -35.5l-25 -7q149 -574 176 -713zM1112 1335q-5 23 -21 19q-15 -3 -12 -19l6 -11q8 -9 12.5 -24t5.5 -25l1 -10q13 45 8 70zM285 947q15 30 -4 37q-15 5 -24 -9q-2 -3 -3 -7q-22 -89 -48 -181q51 103 79 160zM568 449q30 -3 79.5 5.5t71.5 23.5q-77 -15 -142 3
q-28 8 -34 -8q-5 -15 14 -22q5 -1 11 -2zM608 533q107 -14 135 19t7 126q-74 319 -130 284q-8 -5 -15 -17q-25 -41 -54.5 -133.5t-42.5 -147.5q-4 -19 -5.5 -32.5t2 -31.5t14 -30t33 -22.5t56.5 -14.5z" />
    <glyph glyph-name="A" unicode="&#xc1;" horiz-adv-x="1245" 
d="M1187 314q4 -20 13 -63.5t12 -60t6 -47t0 -46t-11 -34.5t-23 -33q-38 -37 -92 -54t-98 -15.5t-74 14.5q-40 17 -67 67t-35 92l-7 41q-9 -3 -24.5 -7.5t-60.5 -12t-87.5 -8t-95.5 11.5t-94 40q-18 -133 -53 -176q-38 -47 -112 -48.5t-153 38.5q-80 39 -97 100.5t10 213.5
q18 100 65 278.5t85 306.5l38 129q-4 1 -11.5 3t-28.5 11.5t-38.5 21.5t-37 33.5t-30.5 46.5q-15 44 -14.5 97t20 101t50.5 58q28 9 59 -2t65 -33t50 -27q99 -34 335 -36t327 36q10 5 25 15t27.5 18t26.5 14.5t29 6t29 -8.5q40 -24 55 -118t-11 -137q-25 -43 -62 -71.5
t-61 -35.5l-25 -7q149 -574 176 -713zM1112 1335q-5 23 -21 19q-15 -3 -12 -19l6 -11q8 -9 12.5 -24t5.5 -25l1 -10q13 45 8 70zM285 947q15 30 -4 37q-15 5 -24 -9q-2 -3 -3 -7q-22 -89 -48 -181q51 103 79 160zM568 449q30 -3 79.5 5.5t71.5 23.5q-77 -15 -142 3
q-28 8 -34 -8q-5 -15 14 -22q5 -1 11 -2zM608 533q107 -14 135 19t7 126q-74 319 -130 284q-8 -5 -15 -17q-25 -41 -54.5 -133.5t-42.5 -147.5q-4 -19 -5.5 -32.5t2 -31.5t14 -30t33 -22.5t56.5 -14.5z" />
    <glyph glyph-name="A" unicode="&#xc0;" horiz-adv-x="1245" 
d="M1187 314q4 -20 13 -63.5t12 -60t6 -47t0 -46t-11 -34.5t-23 -33q-38 -37 -92 -54t-98 -15.5t-74 14.5q-40 17 -67 67t-35 92l-7 41q-9 -3 -24.5 -7.5t-60.5 -12t-87.5 -8t-95.5 11.5t-94 40q-18 -133 -53 -176q-38 -47 -112 -48.5t-153 38.5q-80 39 -97 100.5t10 213.5
q18 100 65 278.5t85 306.5l38 129q-4 1 -11.5 3t-28.5 11.5t-38.5 21.5t-37 33.5t-30.5 46.5q-15 44 -14.5 97t20 101t50.5 58q28 9 59 -2t65 -33t50 -27q99 -34 335 -36t327 36q10 5 25 15t27.5 18t26.5 14.5t29 6t29 -8.5q40 -24 55 -118t-11 -137q-25 -43 -62 -71.5
t-61 -35.5l-25 -7q149 -574 176 -713zM1112 1335q-5 23 -21 19q-15 -3 -12 -19l6 -11q8 -9 12.5 -24t5.5 -25l1 -10q13 45 8 70zM285 947q15 30 -4 37q-15 5 -24 -9q-2 -3 -3 -7q-22 -89 -48 -181q51 103 79 160zM568 449q30 -3 79.5 5.5t71.5 23.5q-77 -15 -142 3
q-28 8 -34 -8q-5 -15 14 -22q5 -1 11 -2zM608 533q107 -14 135 19t7 126q-74 319 -130 284q-8 -5 -15 -17q-25 -41 -54.5 -133.5t-42.5 -147.5q-4 -19 -5.5 -32.5t2 -31.5t14 -30t33 -22.5t56.5 -14.5z" />
    <glyph glyph-name="B" unicode="B" horiz-adv-x="1316" 
d="M1134 667q12 -12 53.5 -34t69.5 -46.5t27 -54.5q-4 -97 -45 -193.5t-82.5 -150.5t-73.5 -77q-1 -1 -22 -16t-30.5 -21t-33.5 -20.5t-44 -21.5t-48 -16.5t-60 -14t-67 -5.5q-61 -2 -126 2t-116 11t-91.5 14t-65.5 12t-26 5q-2 0 -9 -9t-28 -20t-56 -16q-40 -6 -97 14.5
t-99 50.5t-43 51q-2 27 40 109q28 54 45 128t20 120l3 47q-28 13 -36 30q-9 19 -14 140t7 140q10 12 35 3.5t28 -3.5q10 20 0 289q-1 31 -22 86t-21 59q-1 30 55.5 61t134.5 51q129 33 154 -18q4 -8 8 -26t6 -31l2 -14q0 -2 1.5 -4t10.5 -8.5t23 -11t43.5 -8t68.5 -2.5
q96 2 183 31t162 58t137 32q42 2 81 -27t52 -106q5 -27 17 -93.5t18 -104.5t12.5 -88t5.5 -83t-9 -51q-16 -37 -50.5 -74t-61.5 -56zM212 1011q34 91 17 182q-3 17 -17 20q-13 2 -13 -14l2 -15q9 -31 11.5 -74t1.5 -71zM481 980l-1 -186q20 -3 53 -5.5t112.5 3t132.5 25.5
q83 32 118.5 84.5t23.5 96.5q-3 10 -12.5 12.5t-29.5 -1t-43.5 -8.5t-63 -11t-78.5 -9q-33 -2 -86 -2.5t-89 0.5zM705 312q44 6 86 42.5t63.5 77t15.5 62.5q-4 15 -13 20t-28 2t-41 -8.5t-61 -12t-80 -7.5q-40 -1 -80.5 -0.5t-71.5 1.5l-31 1l-21 -176q18 -2 46 -3.5
t104.5 -3.5t111.5 5zM888 804q41 29 58 86q-27 -45 -70 -69q-16 -9 -8 -19q7 -8 20 2zM951 104q30 13 79 53.5t69 78.5q-80 -71 -150 -102q-23 -10 -21 -25q3 -13 23 -5z" />
    <glyph glyph-name="C" unicode="C" horiz-adv-x="1257" 
d="M1207 308q15 -13 23.5 -35.5t10 -51t0.5 -50t-4.5 -51t-3.5 -35.5q-1 -20 -3 -30t-13.5 -27.5t-33 -26t-63.5 -16t-103 -7.5q-163 0 -350.5 43.5t-321.5 116.5q-70 38 -119 97.5t-70.5 121.5t-30 108t-7.5 81q5 293 10 423h-5q-77 -5 -96 19.5t-12 92.5q11 111 29 221
q124 -3 246 7q51 4 173.5 13t215.5 16t131 12q42 6 101.5 17t86 15t58.5 -1t55 -24q36 -30 62.5 -97t34.5 -119l8 -52q-5 -7 -15 -17t-42 -33t-65 -35q-139 -51 -173 -22q-7 6 -13.5 23.5t-19 28t-39.5 8.5q-4 0 -387 -40q-10 -213 -7 -396q1 -92 32 -132.5t108 -74.5
q195 -86 382 -90q28 -1 66 5t63.5 11.5t53.5 2t47 -19.5zM1159 1203q-9 29 -32 72t-45 64q44 -78 51 -137q3 -29 17 -30q12 -1 11 17q0 7 -2 14zM1106 47q26 3 27 17q1 12 -21 10q-6 -1 -13 -3q-28 -9 -94 -12t-117 -1l-52 1q177 -24 270 -12z" />
    <glyph glyph-name="C" unicode="&#xc7;" horiz-adv-x="1257" 
d="M1207 308q15 -13 23.5 -35.5t10 -51t0.5 -50t-4.5 -51t-3.5 -35.5q-1 -20 -3 -30t-13.5 -27.5t-33 -26t-63.5 -16t-103 -7.5q-163 0 -350.5 43.5t-321.5 116.5q-70 38 -119 97.5t-70.5 121.5t-30 108t-7.5 81q5 293 10 423h-5q-77 -5 -96 19.5t-12 92.5q11 111 29 221
q124 -3 246 7q51 4 173.5 13t215.5 16t131 12q42 6 101.5 17t86 15t58.5 -1t55 -24q36 -30 62.5 -97t34.5 -119l8 -52q-5 -7 -15 -17t-42 -33t-65 -35q-139 -51 -173 -22q-7 6 -13.5 23.5t-19 28t-39.5 8.5q-4 0 -387 -40q-10 -213 -7 -396q1 -92 32 -132.5t108 -74.5
q195 -86 382 -90q28 -1 66 5t63.5 11.5t53.5 2t47 -19.5zM1159 1203q-9 29 -32 72t-45 64q44 -78 51 -137q3 -29 17 -30q12 -1 11 17q0 7 -2 14zM1106 47q26 3 27 17q1 12 -21 10q-6 -1 -13 -3q-28 -9 -94 -12t-117 -1l-52 1q177 -24 270 -12z" />
    <glyph glyph-name="D" unicode="D" horiz-adv-x="1304" 
d="M1096 1286h1q26 -8 52.5 -26t55.5 -48.5t47.5 -81.5t18.5 -114q0 -136 -14 -341t-31 -269q-20 -76 -92 -197t-127 -155q-36 -22 -119 -43t-193 -26.5t-194 38.5q-3 13 -6 34.5t2 74t28 88.5q14 22 46.5 36t70.5 21.5t77 17.5t73 30.5t50 53.5q61 123 83 323q9 71 7.5 150
t-17.5 96q-21 22 -51 31.5t-121.5 7.5t-251.5 -24v-5q10 -171 -3 -325q-40 -445 -134 -589q-27 -41 -78 -54q-71 -19 -160 17q-50 20 -72.5 37t-24.5 44q-2 23 9 49q2 4 13.5 26.5t23.5 50.5t26 70.5t27.5 106t21.5 137.5q21 178 21 348q-4 -2 -10.5 -4.5t-7.5 -2.5
q-7 -3 -15 1.5t-9 12.5q-21 148 -58 281q-7 22 15 31q2 1 15.5 6.5t21.5 8.5q-6 22 -21 53q-13 28 40 58.5t119 49t110 22.5q53 4 73 -56q4 -10 12 -47q34 6 97 13t164.5 14t208.5 0t180 -31zM105 130q40 92 40 213q-34 -138 -65 -201q-4 -11 -0.5 -17.5t12.5 -5.5t13 11z
M837 269q23 14 18 26q-5 14 -34 -5q-22 -14 -47.5 -26t-39.5 -17l-15 -5q75 0 118 27zM1159 1152q7 -16 20 -10q11 6 3 20q-10 17 -33 37.5t-45 31.5q36 -34 55 -79z" />
    <glyph glyph-name="E" unicode="E" horiz-adv-x="1212" 
d="M1166 1315q12 -30 17.5 -73t5 -70.5t-1.5 -27.5q-59 -81 -272.5 -114.5t-481.5 -13.5q0 -6 -1.5 -20t-2.5 -21q-1 -22 -9 -147q48 -14 164 -14q292 2 392 52q40 18 57 -18.5t18 -113.5q2 -135 -102 -163q-88 -23 -250 -32.5t-293 2.5q2 -129 82 -191q25 -20 61 -30.5
t79.5 -11.5t77.5 0.5t80 6t62 5.5q33 2 130.5 21t124.5 13q56 -12 59 -115q0 -38 -2 -77.5t-4 -59.5l-2 -21q-85 -41 -230 -57.5t-287.5 -7t-236.5 40.5q-251 82 -303 313q-14 61 -20 209l-37 21q-7 143 -3 243q2 32 6 36.5t30 -0.5q5 -1 13.5 -2.5t14 -3t6.5 -1.5
q5 49 12 180q-7 2 -27 7t-29.5 8.5t-9.5 6.5q-1 19 10 129q2 19 4 36.5t4.5 34.5t5 31t5 24.5t5.5 15.5t5 5q4 -1 25.5 -4.5t28.5 -5.5q4 55 25.5 74.5t82.5 3.5q30 -8 63 -12.5t71.5 -7.5t55.5 -5q48 -6 37 -95q372 -22 543 62q28 14 51.5 17t37.5 -1.5t25.5 -16.5
t16.5 -21t11 -23zM136 390q-6 28 3 101q2 20 -10 21q-9 -2 -11 -13q0 -69 18 -109zM1061 133q-40 -19 -102.5 -35t-104.5 -22l-43 -7q66 -2 143.5 9t122.5 29q23 9 19 23q-5 14 -29 6zM981 635q-4 -10 -12.5 -19t-14.5 -14l-6 -4q45 20 55 39q5 10 -3 14q-11 6 -19 -16z
M1141 1171q5 27 -2 70t-17 70q-7 20 -19 20q-11 -1 -6 -20q2 -6 6 -13q12 -20 21.5 -52t13.5 -54z" />
    <glyph glyph-name="E" unicode="&#xcb;" horiz-adv-x="1212" 
d="M1166 1315q12 -30 17.5 -73t5 -70.5t-1.5 -27.5q-59 -81 -272.5 -114.5t-481.5 -13.5q0 -6 -1.5 -20t-2.5 -21q-1 -22 -9 -147q48 -14 164 -14q292 2 392 52q40 18 57 -18.5t18 -113.5q2 -135 -102 -163q-88 -23 -250 -32.5t-293 2.5q2 -129 82 -191q25 -20 61 -30.5
t79.5 -11.5t77.5 0.5t80 6t62 5.5q33 2 130.5 21t124.5 13q56 -12 59 -115q0 -38 -2 -77.5t-4 -59.5l-2 -21q-85 -41 -230 -57.5t-287.5 -7t-236.5 40.5q-251 82 -303 313q-14 61 -20 209l-37 21q-7 143 -3 243q2 32 6 36.5t30 -0.5q5 -1 13.5 -2.5t14 -3t6.5 -1.5
q5 49 12 180q-7 2 -27 7t-29.5 8.5t-9.5 6.5q-1 19 10 129q2 19 4 36.5t4.5 34.5t5 31t5 24.5t5.5 15.5t5 5q4 -1 25.5 -4.5t28.5 -5.5q4 55 25.5 74.5t82.5 3.5q30 -8 63 -12.5t71.5 -7.5t55.5 -5q48 -6 37 -95q372 -22 543 62q28 14 51.5 17t37.5 -1.5t25.5 -16.5
t16.5 -21t11 -23zM136 390q-6 28 3 101q2 20 -10 21q-9 -2 -11 -13q0 -69 18 -109zM1061 133q-40 -19 -102.5 -35t-104.5 -22l-43 -7q66 -2 143.5 9t122.5 29q23 9 19 23q-5 14 -29 6zM981 635q-4 -10 -12.5 -19t-14.5 -14l-6 -4q45 20 55 39q5 10 -3 14q-11 6 -19 -16z
M1141 1171q5 27 -2 70t-17 70q-7 20 -19 20q-11 -1 -6 -20q2 -6 6 -13q12 -20 21.5 -52t13.5 -54z" />
    <glyph glyph-name="E" unicode="&#xca;" horiz-adv-x="1212" 
d="M1166 1315q12 -30 17.5 -73t5 -70.5t-1.5 -27.5q-59 -81 -272.5 -114.5t-481.5 -13.5q0 -6 -1.5 -20t-2.5 -21q-1 -22 -9 -147q48 -14 164 -14q292 2 392 52q40 18 57 -18.5t18 -113.5q2 -135 -102 -163q-88 -23 -250 -32.5t-293 2.5q2 -129 82 -191q25 -20 61 -30.5
t79.5 -11.5t77.5 0.5t80 6t62 5.5q33 2 130.5 21t124.5 13q56 -12 59 -115q0 -38 -2 -77.5t-4 -59.5l-2 -21q-85 -41 -230 -57.5t-287.5 -7t-236.5 40.5q-251 82 -303 313q-14 61 -20 209l-37 21q-7 143 -3 243q2 32 6 36.5t30 -0.5q5 -1 13.5 -2.5t14 -3t6.5 -1.5
q5 49 12 180q-7 2 -27 7t-29.5 8.5t-9.5 6.5q-1 19 10 129q2 19 4 36.5t4.5 34.5t5 31t5 24.5t5.5 15.5t5 5q4 -1 25.5 -4.5t28.5 -5.5q4 55 25.5 74.5t82.5 3.5q30 -8 63 -12.5t71.5 -7.5t55.5 -5q48 -6 37 -95q372 -22 543 62q28 14 51.5 17t37.5 -1.5t25.5 -16.5
t16.5 -21t11 -23zM136 390q-6 28 3 101q2 20 -10 21q-9 -2 -11 -13q0 -69 18 -109zM1061 133q-40 -19 -102.5 -35t-104.5 -22l-43 -7q66 -2 143.5 9t122.5 29q23 9 19 23q-5 14 -29 6zM981 635q-4 -10 -12.5 -19t-14.5 -14l-6 -4q45 20 55 39q5 10 -3 14q-11 6 -19 -16z
M1141 1171q5 27 -2 70t-17 70q-7 20 -19 20q-11 -1 -6 -20q2 -6 6 -13q12 -20 21.5 -52t13.5 -54z" />
    <glyph glyph-name="E" unicode="&#xc9;" horiz-adv-x="1212" 
d="M1166 1315q12 -30 17.5 -73t5 -70.5t-1.5 -27.5q-59 -81 -272.5 -114.5t-481.5 -13.5q0 -6 -1.5 -20t-2.5 -21q-1 -22 -9 -147q48 -14 164 -14q292 2 392 52q40 18 57 -18.5t18 -113.5q2 -135 -102 -163q-88 -23 -250 -32.5t-293 2.5q2 -129 82 -191q25 -20 61 -30.5
t79.5 -11.5t77.5 0.5t80 6t62 5.5q33 2 130.5 21t124.5 13q56 -12 59 -115q0 -38 -2 -77.5t-4 -59.5l-2 -21q-85 -41 -230 -57.5t-287.5 -7t-236.5 40.5q-251 82 -303 313q-14 61 -20 209l-37 21q-7 143 -3 243q2 32 6 36.5t30 -0.5q5 -1 13.5 -2.5t14 -3t6.5 -1.5
q5 49 12 180q-7 2 -27 7t-29.5 8.5t-9.5 6.5q-1 19 10 129q2 19 4 36.5t4.5 34.5t5 31t5 24.5t5.5 15.5t5 5q4 -1 25.5 -4.5t28.5 -5.5q4 55 25.5 74.5t82.5 3.5q30 -8 63 -12.5t71.5 -7.5t55.5 -5q48 -6 37 -95q372 -22 543 62q28 14 51.5 17t37.5 -1.5t25.5 -16.5
t16.5 -21t11 -23zM136 390q-6 28 3 101q2 20 -10 21q-9 -2 -11 -13q0 -69 18 -109zM1061 133q-40 -19 -102.5 -35t-104.5 -22l-43 -7q66 -2 143.5 9t122.5 29q23 9 19 23q-5 14 -29 6zM981 635q-4 -10 -12.5 -19t-14.5 -14l-6 -4q45 20 55 39q5 10 -3 14q-11 6 -19 -16z
M1141 1171q5 27 -2 70t-17 70q-7 20 -19 20q-11 -1 -6 -20q2 -6 6 -13q12 -20 21.5 -52t13.5 -54z" />
    <glyph glyph-name="E" unicode="&#xc8;" horiz-adv-x="1212" 
d="M1166 1315q12 -30 17.5 -73t5 -70.5t-1.5 -27.5q-59 -81 -272.5 -114.5t-481.5 -13.5q0 -6 -1.5 -20t-2.5 -21q-1 -22 -9 -147q48 -14 164 -14q292 2 392 52q40 18 57 -18.5t18 -113.5q2 -135 -102 -163q-88 -23 -250 -32.5t-293 2.5q2 -129 82 -191q25 -20 61 -30.5
t79.5 -11.5t77.5 0.5t80 6t62 5.5q33 2 130.5 21t124.5 13q56 -12 59 -115q0 -38 -2 -77.5t-4 -59.5l-2 -21q-85 -41 -230 -57.5t-287.5 -7t-236.5 40.5q-251 82 -303 313q-14 61 -20 209l-37 21q-7 143 -3 243q2 32 6 36.5t30 -0.5q5 -1 13.5 -2.5t14 -3t6.5 -1.5
q5 49 12 180q-7 2 -27 7t-29.5 8.5t-9.5 6.5q-1 19 10 129q2 19 4 36.5t4.5 34.5t5 31t5 24.5t5.5 15.5t5 5q4 -1 25.5 -4.5t28.5 -5.5q4 55 25.5 74.5t82.5 3.5q30 -8 63 -12.5t71.5 -7.5t55.5 -5q48 -6 37 -95q372 -22 543 62q28 14 51.5 17t37.5 -1.5t25.5 -16.5
t16.5 -21t11 -23zM136 390q-6 28 3 101q2 20 -10 21q-9 -2 -11 -13q0 -69 18 -109zM1061 133q-40 -19 -102.5 -35t-104.5 -22l-43 -7q66 -2 143.5 9t122.5 29q23 9 19 23q-5 14 -29 6zM981 635q-4 -10 -12.5 -19t-14.5 -14l-6 -4q45 20 55 39q5 10 -3 14q-11 6 -19 -16z
M1141 1171q5 27 -2 70t-17 70q-7 20 -19 20q-11 -1 -6 -20q2 -6 6 -13q12 -20 21.5 -52t13.5 -54z" />
    <glyph glyph-name="F" unicode="F" horiz-adv-x="1263" 
d="M1255 1357q13 -31 18 -80.5t4 -83.5l-1 -34q-59 -81 -241 -122.5t-391 -41.5q-48 0 -105 6v-256q1 0 28 -0.5t59 -1t74.5 -0.5t78.5 1t67 4t44 8q59 20 94 14t36 -30q3 -114 -15 -214q-9 -51 -35 -74t-93 -29q-168 -13 -339 -4v-8q-2 -182 -66 -298t-196 -147
q-124 -29 -211 17q-49 25 -50 56q-1 13 11 22q59 46 92.5 143t36.5 160q6 138 6 275v430q-96 25 -99 36q-29 95 -10 232q3 25 14 39.5t23 20t35 3t37.5 -6t44.5 -12.5q46 -14 153.5 -27t243 -19.5t278 10t228.5 59.5q36 18 63 19.5t43.5 -11.5t24.5 -25t15 -30zM198 843
q0 -8 4 -10.5t8 1t4 8.5q0 22 -10 140q-6 -118 -6 -139zM434 134q9 16 1 24q-9 9 -21 -15q-1 -2 -2 -5q-12 -26 -33 -51.5t-37 -37.5l-15 -12q69 31 107 97zM941 491q-8 -13 -18 -22t-16 -12l-6 -3q25 5 42 16t20 21q3 9 -5 12t-17 -12zM1190 1143q22 12 14 26q-7 15 -31 1
q-3 -2 -7 -5q-33 -26 -93.5 -51.5t-104.5 -37.5l-43 -13q152 15 265 80z" />
    <glyph glyph-name="G" unicode="G" horiz-adv-x="1294" 
d="M1055 1014q-60 27 -198 35.5t-292 -2.5q0 -541 16 -612q1 -6 0.5 -11t2 -9t10.5 -6.5t26.5 -5t49.5 -4t81 -2.5q52 -1 148 1q2 36 5 72.5t3 65.5q0 26 -10 59.5t-18.5 57.5t-11 48t13.5 40t54 23q38 10 85 7t88.5 -13.5t70 -41t28.5 -75.5v-638q0 -30 -57.5 -63
t-135.5 -28q-65 4 -92.5 27.5t-32.5 80.5q-223 -7 -378 35t-235 117q-35 33 -58 88.5t-32.5 127t-12.5 116t-4 108.5q-3 116 0 353q-54 -29 -94 -16q-50 16 -68.5 104t9.5 151q18 43 56.5 74t68.5 40l30 10q160 34 314 47.5t258.5 9.5t186.5 -13t121 -19l39 -10l12.5 -2.5
t29 -9.5t40.5 -20t41 -36t35 -54q23 -48 8.5 -139t-55.5 -116q-15 -9 -31 -9.5t-31 7t-28 16t-29 19t-27 15.5zM1116 1285q-116 44 -266 34q166 -16 247 -59q27 -14 36 -1q8 12 -10 23zM947 653q-6 18 -20 16q-14 -5 -5 -28q12 -27 18 -64.5t6 -61.5v-24q28 84 1 162z
M291 233q13 -16 22.5 -9t-10.5 27q-19 20 -34 48.5t-20 46.5l-5 19q2 -75 47 -132z" />
    <glyph glyph-name="H" unicode="H" horiz-adv-x="1445" 
d="M1430 712q0 -169 -13 -208q-17 -51 -74 -31q-13 4 -30 8q-11 -378 -65 -455q-71 -101 -186 -58q-15 6 -26 10t-26.5 10.5t-27 12t-25 13t-22.5 14.5t-19 15t-15.5 16.5t-9.5 18t-3.5 19.5t4.5 21q7 20 20.5 43t21.5 38.5t14 56t5 102.5q0 28 -4 148q-139 0 -243 -7
q-83 -6 -182 -22q-2 -94 -2 -119q-1 -80 7 -119t27 -71t26 -50q10 -26 -1.5 -49t-42.5 -42.5t-57.5 -31t-67.5 -27.5q-116 -44 -187 58q-47 67 -61 367q-19 -6 -41 -13t-25 -8q-25 -9 -48.5 31.5t-31.5 99.5q-10 74 -11.5 115.5t7.5 70t25 42t49 28.5q17 7 76 20l27 573
q2 39 46.5 57t104 14.5t115.5 -15.5t86 -27q22 -11 31.5 -23.5t9 -31t-5 -36t-12 -52t-11.5 -66.5q-9 -82 -19 -331q92 10 157 13q139 5 243 4q-11 249 -18 314q-4 32 -11.5 66.5t-12 52t-5 36t9 31t31.5 23.5q30 15 86 27t115 15.5t103.5 -14.5t46.5 -57q16 -271 25 -517
q15 -3 28 -6q34 -10 55 -23.5t29 -32t9.5 -29t1.5 -32.5zM301 31q13 -14 23 -9q12 6 -9 26l-3 3q-22 19 -40 47t-25 46l-7 19q10 -78 61 -132zM804 775q29 -5 32 8q3 10 -15 15l-10 2q-49 5 -129.5 -6t-147.5 -31q7 1 19 3t46 6t66 6.5t71 2t68 -5.5zM978 1132q28 86 1 170
q-6 17 -20 16q-16 -1 -8 -23l2 -6q12 -28 18.5 -67t6.5 -64v-26z" />
    <glyph glyph-name="I" unicode="I" horiz-adv-x="583" 
d="M523 1283q0 -8 1.5 -129.5t2.5 -249.5t0 -266.5t-4 -197.5q-8 -135 -44 -222t-125 -161q-58 -48 -126.5 -62t-120 0.5t-81.5 44.5q-47 47 38 154q52 67 69 274q2 24 2.5 119.5t0.5 218t-1 238.5t-1.5 205t-0.5 93q0 14 13 30t26 26l13 9q117 9 289 -8q23 -2 34.5 -20
t13 -34.5t1.5 -50.5v-11zM189 1328q18 20 7 27q-8 5 -15 -4q-19 -27 -12 -83q2 40 20 60zM356 139q38 27 72.5 99.5t42.5 174.5q-2 -7 -5 -19.5t-14.5 -46.5t-25.5 -64t-38.5 -63t-52.5 -53q-11 -8 -16 -16t-3 -13t7.5 -7t14.5 0t18 8z" />
    <glyph glyph-name="I" unicode="&#xcf;" horiz-adv-x="583" 
d="M523 1283q0 -8 1.5 -129.5t2.5 -249.5t0 -266.5t-4 -197.5q-8 -135 -44 -222t-125 -161q-58 -48 -126.5 -62t-120 0.5t-81.5 44.5q-47 47 38 154q52 67 69 274q2 24 2.5 119.5t0.5 218t-1 238.5t-1.5 205t-0.5 93q0 14 13 30t26 26l13 9q117 9 289 -8q23 -2 34.5 -20
t13 -34.5t1.5 -50.5v-11zM189 1328q18 20 7 27q-8 5 -15 -4q-19 -27 -12 -83q2 40 20 60zM356 139q38 27 72.5 99.5t42.5 174.5q-2 -7 -5 -19.5t-14.5 -46.5t-25.5 -64t-38.5 -63t-52.5 -53q-11 -8 -16 -16t-3 -13t7.5 -7t14.5 0t18 8z" />
    <glyph glyph-name="I" unicode="&#xce;" horiz-adv-x="583" 
d="M523 1283q0 -8 1.5 -129.5t2.5 -249.5t0 -266.5t-4 -197.5q-8 -135 -44 -222t-125 -161q-58 -48 -126.5 -62t-120 0.5t-81.5 44.5q-47 47 38 154q52 67 69 274q2 24 2.5 119.5t0.5 218t-1 238.5t-1.5 205t-0.5 93q0 14 13 30t26 26l13 9q117 9 289 -8q23 -2 34.5 -20
t13 -34.5t1.5 -50.5v-11zM189 1328q18 20 7 27q-8 5 -15 -4q-19 -27 -12 -83q2 40 20 60zM356 139q38 27 72.5 99.5t42.5 174.5q-2 -7 -5 -19.5t-14.5 -46.5t-25.5 -64t-38.5 -63t-52.5 -53q-11 -8 -16 -16t-3 -13t7.5 -7t14.5 0t18 8z" />
    <glyph glyph-name="I" unicode="&#xcd;" horiz-adv-x="583" 
d="M523 1283q0 -8 1.5 -129.5t2.5 -249.5t0 -266.5t-4 -197.5q-8 -135 -44 -222t-125 -161q-58 -48 -126.5 -62t-120 0.5t-81.5 44.5q-47 47 38 154q52 67 69 274q2 24 2.5 119.5t0.5 218t-1 238.5t-1.5 205t-0.5 93q0 14 13 30t26 26l13 9q117 9 289 -8q23 -2 34.5 -20
t13 -34.5t1.5 -50.5v-11zM189 1328q18 20 7 27q-8 5 -15 -4q-19 -27 -12 -83q2 40 20 60zM356 139q38 27 72.5 99.5t42.5 174.5q-2 -7 -5 -19.5t-14.5 -46.5t-25.5 -64t-38.5 -63t-52.5 -53q-11 -8 -16 -16t-3 -13t7.5 -7t14.5 0t18 8z" />
    <glyph glyph-name="I" unicode="&#xcc;" horiz-adv-x="583" 
d="M523 1283q0 -8 1.5 -129.5t2.5 -249.5t0 -266.5t-4 -197.5q-8 -135 -44 -222t-125 -161q-58 -48 -126.5 -62t-120 0.5t-81.5 44.5q-47 47 38 154q52 67 69 274q2 24 2.5 119.5t0.5 218t-1 238.5t-1.5 205t-0.5 93q0 14 13 30t26 26l13 9q117 9 289 -8q23 -2 34.5 -20
t13 -34.5t1.5 -50.5v-11zM189 1328q18 20 7 27q-8 5 -15 -4q-19 -27 -12 -83q2 40 20 60zM356 139q38 27 72.5 99.5t42.5 174.5q-2 -7 -5 -19.5t-14.5 -46.5t-25.5 -64t-38.5 -63t-52.5 -53q-11 -8 -16 -16t-3 -13t7.5 -7t14.5 0t18 8z" />
    <glyph glyph-name="J" unicode="J" horiz-adv-x="962" 
d="M904 1334v-907q0 -140 -73 -254.5t-183 -144.5q-148 -39 -549 -25q-28 1 -48 7t-31.5 14t-16.5 22.5t-6.5 25t2.5 28.5t7 27t10 26.5t8 21.5q14 40 53 73t97 48q10 3 96 21t147 33q124 30 132 144q4 51 6 301.5t-6 284.5q-9 16 -45 12t-48 -33q-10 -26 -89 -33.5
t-157.5 3t-89.5 30.5q-10 17 0 275q1 19 14.5 34t38.5 25t40 14t41 10q52 6 284.5 4.5t290.5 -4.5q36 -2 55.5 -26t19.5 -57zM191 1250q10 28 -2 34q-11 6 -19 -13q-2 -5 -3 -11q-6 -23 -5 -75t11 -80q-3 90 18 145zM671 135q42 22 85 89t64 167q-2 -7 -7 -18.5t-21 -43.5
t-33.5 -60t-46 -58t-58.5 -46q-20 -11 -22 -22t10 -13t29 5z" />
    <glyph glyph-name="K" unicode="K" horiz-adv-x="1335" 
d="M1267 327v-1q20 -8 51.5 -66.5t22.5 -73.5q-16 -26 -79.5 -73t-151.5 -77q-53 -18 -100.5 -21t-91 9.5t-71.5 25.5t-70 37q-63 36 -268 245q-9 -69 -48 -149.5t-119 -140.5q-42 -31 -91.5 -39t-91 2.5t-77.5 27.5t-56.5 33t-21.5 22q41 67 61 99q30 49 51.5 137t21.5 160
v809q0 27 12.5 51t32.5 40t37 25.5t32 15.5q27 10 81 14t114 -7q28 -8 44 -42.5t18 -65.5l2 -31v-349l362 392q48 53 79 73t70 20q37 0 92 -30t89 -81q7 -10 11 -21t5 -21t1 -19t-3 -19t-5.5 -16.5t-7.5 -16t-7.5 -13t-8 -11t-5.5 -8.5q-12 -19 -24 -34.5t-17 -21.5l-6 -6
q-240 -268 -414 -462q203 -214 291 -270q54 -35 102.5 -49t74.5 -11.5t48 7t29 1.5zM1131 1239q-9 -24 -23 -48.5t-23 -36.5l-9 -13q61 44 80 90q10 26 -0.5 32.5t-22.5 -19.5q-1 -2 -2 -5zM462 1225q5 27 -2 70t-17 70q-8 22 -20 20q-14 -3 -4 -25q1 -4 4 -8
q12 -20 21.5 -52t13.5 -54zM1029 61q25 3 26 17t-22 15q-6 0 -13 -1q-56 -10 -111 0t-82 24l-27 15q45 -44 109.5 -60t119.5 -10z" />
    <glyph glyph-name="L" unicode="L" horiz-adv-x="1161" 
d="M1160 442q16 -28 16 -51.5t-8 -33.5l-8 -10q-320 -298 -741 -286q-18 -47 -32 -54q-34 -16 -134.5 1.5t-140.5 38.5q-46 25 -39 80l-49 20q-2 2 -5 5.5t-6.5 18.5t-1.5 34q7 57 33 129.5t50 77.5q6 2 45 -8q28 217 26.5 412t-17.5 330l-16 135q-6 48 48 88.5t115 51.5
q41 7 70.5 2.5t49 -17t31 -26t16.5 -23.5l4 -10q81 -537 22 -980q74 9 150 31.5t127.5 45t103 52t68 40.5t30.5 22q25 17 53 14t48 -19q19 -16 48 -50.5t44 -60.5zM442 1200q5 27 -2 69.5t-17 69.5q-7 20 -19 20q-11 -1 -6 -20q2 -6 6 -13q12 -20 21.5 -51.5t12.5 -52.5z
M1068 329q20 18 10 31q-9 13 -26 -3q-4 -4 -8 -9q-20 -26 -71.5 -65.5t-93.5 -66.5l-42 -27q139 60 231 140z" />
    <glyph glyph-name="M" unicode="M" horiz-adv-x="1497" 
d="M1453 1206q6 -8 9.5 -22.5t2 -35.5t-24 -44.5t-64.5 -40.5q-3 0 -4 -1q8 -17 13.5 -34t7.5 -26l2 -9q84 -424 -13 -807q-13 -53 -38 -91.5t-52 -55.5t-56.5 -28.5t-52 -10t-38.5 0.5q-15 2 -33.5 6.5t-44.5 14t-45.5 27t-34 40.5t-13 58.5t21.5 77.5q38 82 56 197
t15.5 205.5t-7.5 169.5q0 1 -0.5 5t-0.5 5q-7 44 -24 58q-11 10 -31.5 10t-40.5 -12q-18 -12 -20 -54q12 -238 1 -368q-8 -98 -67 -147q-9 -8 -35 -17t-62 -16.5t-72.5 -0.5t-65.5 26.5t-41.5 69.5t-0.5 124q24 150 16 346q-1 17 -15 25t-33 3q-21 -5 -27 -26
q-5 -378 -139 -662q-23 -49 -52.5 -83t-56 -49t-55 -20.5t-47 -4t-35.5 5.5q-19 5 -40.5 14t-49.5 30t-44 47t-12.5 66.5t34.5 86.5q73 108 108 261.5t43 292.5q5 80 -11 155q-3 1 -9.5 2.5t-9.5 2.5q-4 2 -9.5 5t-19.5 14t-24 24.5t-16 36t-2 47.5q28 158 95 193
q16 8 34 13t30 7t32.5 1t28.5 -2t31.5 -5t28.5 -5q84 -12 188 -15l-16 82q155 55 250 55q27 0 47 -26t27 -52l6 -26q0 -2 1 -5t1 -4q160 29 287 84q3 2 9.5 5t24 9t33.5 8t35.5 -3t33.5 -19q41 -41 152 -189zM210 1230q9 14 20.5 24t17.5 13l7 3q-28 -5 -46.5 -17t-21.5 -22
t5 -13q8 -1 18 12zM260 97q64 51 116 182q-9 -20 -54 -80t-81 -82q-16 -10 -5 -20.5t24 0.5zM638 478q0 -72 13 -103q18 -46 68 -67q-2 1 -4.5 3t-10 10t-13.5 17t-14 24t-10.5 31.5t-4.5 39.5t4 48q3 17 -11 16q-14 -4 -17 -19zM1358 770q7 100 -32 214q1 -16 3 -39t4 -86
t-3 -86q-1 -12 5.5 -17t14 -0.5t8.5 14.5z" />
    <glyph glyph-name="N" unicode="N" horiz-adv-x="1392" 
d="M1379 1285q-28 -72 -38 -101q-33 -98 -54 -235t-28 -244.5t-7 -242t1.5 -174.5t4.5 -95v-5q5 -76 -47 -132q-51 -56 -129 -56h-178q-75 0 -144 34.5t-125.5 98.5t-102 138t-88.5 168q-34 -177 -71 -306q-20 -70 -84 -105.5t-134 -15.5q-50 14 -105 82t-39 87q13 16 23 49
q53 185 92 445t51 404t12 171q4 65 49.5 112.5t110.5 53.5q65 5 118.5 -33.5t68.5 -102.5l6 -26q7 -25 19 -70.5t27.5 -100.5t38 -126.5t45.5 -137.5q123 -348 227 -452q-7 586 108 929q23 69 89 101.5t135 9.5q118 -39 148 -122zM297 102q15 17 25.5 61.5t10.5 76.5
q-19 -73 -54 -122q-7 -9 -9.5 -16t0 -10t6.5 -3.5t10 3.5t11 10zM633 683q6 -11 16.5 -12.5t15 6.5t-1.5 21q-19 32 -42 91.5t-37 102.5l-14 43q8 -142 63 -252zM1094 1285q16 24 6.5 28.5t-24.5 -13.5q-15 -17 -25.5 -60.5t-10.5 -75.5q20 72 54 121zM1122 66q31 19 47 38
t17 31q1 10 -8 12q-10 1 -16 -18q-6 -17 -16 -32.5t-17 -22.5z" />
    <glyph glyph-name="N" unicode="&#xd1;" horiz-adv-x="1392" 
d="M1379 1285q-28 -72 -38 -101q-33 -98 -54 -235t-28 -244.5t-7 -242t1.5 -174.5t4.5 -95v-5q5 -76 -47 -132q-51 -56 -129 -56h-178q-75 0 -144 34.5t-125.5 98.5t-102 138t-88.5 168q-34 -177 -71 -306q-20 -70 -84 -105.5t-134 -15.5q-50 14 -105 82t-39 87q13 16 23 49
q53 185 92 445t51 404t12 171q4 65 49.5 112.5t110.5 53.5q65 5 118.5 -33.5t68.5 -102.5l6 -26q7 -25 19 -70.5t27.5 -100.5t38 -126.5t45.5 -137.5q123 -348 227 -452q-7 586 108 929q23 69 89 101.5t135 9.5q118 -39 148 -122zM297 102q15 17 25.5 61.5t10.5 76.5
q-19 -73 -54 -122q-7 -9 -9.5 -16t0 -10t6.5 -3.5t10 3.5t11 10zM633 683q6 -11 16.5 -12.5t15 6.5t-1.5 21q-19 32 -42 91.5t-37 102.5l-14 43q8 -142 63 -252zM1094 1285q16 24 6.5 28.5t-24.5 -13.5q-15 -17 -25.5 -60.5t-10.5 -75.5q20 72 54 121zM1122 66q31 19 47 38
t17 31q1 10 -8 12q-10 1 -16 -18q-6 -17 -16 -32.5t-17 -22.5z" />
    <glyph glyph-name="O" unicode="O" horiz-adv-x="1230" 
d="M822 1377q79 0 142.5 -27t102 -68.5t64 -95.5t35.5 -104.5t10 -98.5v-762q0 -14 -10.5 -44t-33 -69.5t-69 -71t-106.5 -36.5h-549q-79 0 -142.5 27t-102 68.5t-64.5 95.5t-36 104.5t-10 98.5v761q0 20 13.5 52.5t38.5 69t70 65.5t98 35h549zM166 224q11 -47 53.5 -88.5
t103.5 -44.5q-3 0 -8.5 1.5t-21.5 11t-30.5 23.5t-33 43.5t-31.5 67.5q-11 33 -25 22.5t-7 -36.5zM885 401v492q0 30 -8.5 60.5t-27 60.5t-53.5 49t-82 19h-264q-48 -5 -76.5 -43t-28.5 -63v-493q0 -30 8.5 -60.5t26.5 -60.5t53 -49t82 -19h264q37 3 63.5 28t34.5 46.5
t8 32.5zM855 1095q28 -23 47 -56t24 -55l4 -21q-7 102 -58 153q-13 14 -25 6q-11 -10 8 -27z" />
    <glyph glyph-name="O" unicode="&#xd8;" horiz-adv-x="1230" 
d="M822 1377q79 0 142.5 -27t102 -68.5t64 -95.5t35.5 -104.5t10 -98.5v-762q0 -14 -10.5 -44t-33 -69.5t-69 -71t-106.5 -36.5h-549q-79 0 -142.5 27t-102 68.5t-64.5 95.5t-36 104.5t-10 98.5v761q0 20 13.5 52.5t38.5 69t70 65.5t98 35h549zM166 224q11 -47 53.5 -88.5
t103.5 -44.5q-3 0 -8.5 1.5t-21.5 11t-30.5 23.5t-33 43.5t-31.5 67.5q-11 33 -25 22.5t-7 -36.5zM885 401v492q0 30 -8.5 60.5t-27 60.5t-53.5 49t-82 19h-264q-48 -5 -76.5 -43t-28.5 -63v-493q0 -30 8.5 -60.5t26.5 -60.5t53 -49t82 -19h264q37 3 63.5 28t34.5 46.5
t8 32.5zM855 1095q28 -23 47 -56t24 -55l4 -21q-7 102 -58 153q-13 14 -25 6q-11 -10 8 -27z" />
    <glyph glyph-name="O" unicode="&#xd6;" horiz-adv-x="1230" 
d="M822 1377q79 0 142.5 -27t102 -68.5t64 -95.5t35.5 -104.5t10 -98.5v-762q0 -14 -10.5 -44t-33 -69.5t-69 -71t-106.5 -36.5h-549q-79 0 -142.5 27t-102 68.5t-64.5 95.5t-36 104.5t-10 98.5v761q0 20 13.5 52.5t38.5 69t70 65.5t98 35h549zM166 224q11 -47 53.5 -88.5
t103.5 -44.5q-3 0 -8.5 1.5t-21.5 11t-30.5 23.5t-33 43.5t-31.5 67.5q-11 33 -25 22.5t-7 -36.5zM885 401v492q0 30 -8.5 60.5t-27 60.5t-53.5 49t-82 19h-264q-48 -5 -76.5 -43t-28.5 -63v-493q0 -30 8.5 -60.5t26.5 -60.5t53 -49t82 -19h264q37 3 63.5 28t34.5 46.5
t8 32.5zM855 1095q28 -23 47 -56t24 -55l4 -21q-7 102 -58 153q-13 14 -25 6q-11 -10 8 -27z" />
    <glyph glyph-name="O" unicode="&#xd5;" horiz-adv-x="1230" 
d="M822 1377q79 0 142.5 -27t102 -68.5t64 -95.5t35.5 -104.5t10 -98.5v-762q0 -14 -10.5 -44t-33 -69.5t-69 -71t-106.5 -36.5h-549q-79 0 -142.5 27t-102 68.5t-64.5 95.5t-36 104.5t-10 98.5v761q0 20 13.5 52.5t38.5 69t70 65.5t98 35h549zM166 224q11 -47 53.5 -88.5
t103.5 -44.5q-3 0 -8.5 1.5t-21.5 11t-30.5 23.5t-33 43.5t-31.5 67.5q-11 33 -25 22.5t-7 -36.5zM885 401v492q0 30 -8.5 60.5t-27 60.5t-53.5 49t-82 19h-264q-48 -5 -76.5 -43t-28.5 -63v-493q0 -30 8.5 -60.5t26.5 -60.5t53 -49t82 -19h264q37 3 63.5 28t34.5 46.5
t8 32.5zM855 1095q28 -23 47 -56t24 -55l4 -21q-7 102 -58 153q-13 14 -25 6q-11 -10 8 -27z" />
    <glyph glyph-name="O" unicode="&#xd4;" horiz-adv-x="1230" 
d="M822 1377q79 0 142.5 -27t102 -68.5t64 -95.5t35.5 -104.5t10 -98.5v-762q0 -14 -10.5 -44t-33 -69.5t-69 -71t-106.5 -36.5h-549q-79 0 -142.5 27t-102 68.5t-64.5 95.5t-36 104.5t-10 98.5v761q0 20 13.5 52.5t38.5 69t70 65.5t98 35h549zM166 224q11 -47 53.5 -88.5
t103.5 -44.5q-3 0 -8.5 1.5t-21.5 11t-30.5 23.5t-33 43.5t-31.5 67.5q-11 33 -25 22.5t-7 -36.5zM885 401v492q0 30 -8.5 60.5t-27 60.5t-53.5 49t-82 19h-264q-48 -5 -76.5 -43t-28.5 -63v-493q0 -30 8.5 -60.5t26.5 -60.5t53 -49t82 -19h264q37 3 63.5 28t34.5 46.5
t8 32.5zM855 1095q28 -23 47 -56t24 -55l4 -21q-7 102 -58 153q-13 14 -25 6q-11 -10 8 -27z" />
    <glyph glyph-name="O" unicode="&#xd3;" horiz-adv-x="1230" 
d="M822 1377q79 0 142.5 -27t102 -68.5t64 -95.5t35.5 -104.5t10 -98.5v-762q0 -14 -10.5 -44t-33 -69.5t-69 -71t-106.5 -36.5h-549q-79 0 -142.5 27t-102 68.5t-64.5 95.5t-36 104.5t-10 98.5v761q0 20 13.5 52.5t38.5 69t70 65.5t98 35h549zM166 224q11 -47 53.5 -88.5
t103.5 -44.5q-3 0 -8.5 1.5t-21.5 11t-30.5 23.5t-33 43.5t-31.5 67.5q-11 33 -25 22.5t-7 -36.5zM885 401v492q0 30 -8.5 60.5t-27 60.5t-53.5 49t-82 19h-264q-48 -5 -76.5 -43t-28.5 -63v-493q0 -30 8.5 -60.5t26.5 -60.5t53 -49t82 -19h264q37 3 63.5 28t34.5 46.5
t8 32.5zM855 1095q28 -23 47 -56t24 -55l4 -21q-7 102 -58 153q-13 14 -25 6q-11 -10 8 -27z" />
    <glyph glyph-name="O" unicode="&#xd2;" horiz-adv-x="1230" 
d="M822 1377q79 0 142.5 -27t102 -68.5t64 -95.5t35.5 -104.5t10 -98.5v-762q0 -14 -10.5 -44t-33 -69.5t-69 -71t-106.5 -36.5h-549q-79 0 -142.5 27t-102 68.5t-64.5 95.5t-36 104.5t-10 98.5v761q0 20 13.5 52.5t38.5 69t70 65.5t98 35h549zM166 224q11 -47 53.5 -88.5
t103.5 -44.5q-3 0 -8.5 1.5t-21.5 11t-30.5 23.5t-33 43.5t-31.5 67.5q-11 33 -25 22.5t-7 -36.5zM885 401v492q0 30 -8.5 60.5t-27 60.5t-53.5 49t-82 19h-264q-48 -5 -76.5 -43t-28.5 -63v-493q0 -30 8.5 -60.5t26.5 -60.5t53 -49t82 -19h264q37 3 63.5 28t34.5 46.5
t8 32.5zM855 1095q28 -23 47 -56t24 -55l4 -21q-7 102 -58 153q-13 14 -25 6q-11 -10 8 -27z" />
    <glyph glyph-name="P" unicode="P" horiz-adv-x="1097" 
d="M945 1387q81 -29 120.5 -129.5t26.5 -223.5t-73 -217q-191 -299 -589 -410q-25 -146 -61 -260.5t-58 -145.5q-16 -23 -28.5 -27.5t-47.5 4.5q-49 14 -118 53.5t-80 77.5q-5 17 -4.5 34.5t3 29t11.5 46t15 58.5q114 486 43 771q-7 29 -26 87t-33.5 102.5t-14.5 53.5
q1 34 32 60t75.5 39t89 21t75.5 10l31 2q25 -30 55 -131q31 12 66 24.5t88 29.5t106 28.5t107 20t103.5 7t85.5 -14.5zM87 1268q3 -12 15 -12q15 1 7 27q0 2 -1 4q-6 18 -5.5 29.5t3.5 17.5l4 6q-33 -32 -23 -72zM114 171v29q0 30 2.5 55.5t9.5 59.5q-16 -44 -37 -129
q-7 -29 7 -35q11 -5 16 11q2 4 2 9zM730 898q23 34 32.5 63.5t6 48.5t-14 32t-28.5 14.5t-38 -2.5q-29 -8 -89 -34.5t-105 -49.5l-46 -22q2 -17 4 -43t6.5 -96t-0.5 -98q23 9 58 25t108.5 65t105.5 97zM1007 1175q1 -24 13 -24t15 18q1 5 1 9q-2 35 -22.5 75.5t-56.5 73.5
q5 -7 13 -20.5t22 -53t15 -78.5z" />
    <glyph glyph-name="Q" unicode="Q" horiz-adv-x="1325" 
d="M1176 995v-760q40 -25 76 -42.5t52 -22.5l17 -4q1 -94 -34 -146q-16 -24 -47.5 -36t-54.5 -12h-23q-81 0 -168 46q-18 -5 -37 -6h-549q-79 0 -142.5 27t-102 68.5t-64.5 95.5t-36 104.5t-10 98.5v761q0 20 13.5 52.5t38.5 69t70 65.5t98 35h549q79 0 142.5 -27t102 -68.5
t64 -95.5t35.5 -104.5t10 -98.5zM139 267q66 -150 225 -187q-6 2 -16.5 7t-39.5 22.5t-52.5 38.5t-48 56t-35.5 74q-6 22 -17 25t-16 -9t0 -27zM885 514v391q0 30 -8.5 60.5t-27 60.5t-53.5 49t-82 19h-264q-48 -5 -76.5 -43t-28.5 -63v-493q0 -30 8.5 -60.5t26.5 -60.5
t53 -49t82 -19h155l-32 42q-19 32 4.5 77t62.5 77.5t68 42.5q34 12 61 5.5t51 -36.5zM848 1118q28 -23 47 -56.5t24 -55.5l5 -21q-7 102 -59 154q-13 14 -25 6q-11 -10 8 -27zM1190 11q27 5 27 18q-3 13 -34 7q-25 -5 -53.5 -6.5t-43.5 -0.5l-16 1q71 -28 120 -19z" />
    <glyph glyph-name="R" unicode="R" horiz-adv-x="1193" 
d="M853 648q201 -198 267 -291q52 -75 29.5 -172.5t-98.5 -144.5q-40 -25 -78 -28t-65 11t-45 31.5t-27 35.5q-3 5 -17.5 36.5t-32.5 66.5t-37 65q-31 48 -175 187q-52 -31 -111 -58q-16 -74 -39.5 -143t-45.5 -116t-43.5 -83.5t-35.5 -54t-18 -18.5q-21 -6 -95.5 43
t-128.5 93q-24 20 -33 41t-6 32l4 11q56 114 88 228.5t39.5 206t3.5 175t-19 144.5t-30 106.5t-27 67.5l-12 23q-2 3 -4.5 7.5t-7.5 18.5t-5.5 26t6.5 26t23 23q182 97 226 112q50 17 84 -78q8 -22 22 -64q423 169 520 190q72 16 131.5 -13t84.5 -109q16 -51 18.5 -116
t-21 -152.5t-78.5 -158.5q-25 -32 -82 -89t-129 -118zM1072 1274q-8 16 -21 12q-16 -3 -4 -23l3 -5q21 -30 30 -67t8 -59l-2 -22q21 97 -14 164zM122 210q40 70 42 213q-2 -25 -21.5 -96t-45.5 -105q-11 -14 2 -20q14 -7 23 8zM600 712q18 9 15 19q-3 12 -21 2l-8 -5
q-16 -13 -34 -23t-28 -13l-9 -4q48 5 85 24zM743 920q21 31 31 57.5t9.5 42.5t-6.5 28t-12.5 16.5t-12.5 6.5q-7 2 -56.5 -18.5t-121 -52t-103.5 -43.5q16 -57 22 -210v-13q0 -1 0.5 -3t0.5 -3q7 3 19 9.5t46.5 26t64 41t64 53t55.5 62.5zM1083 220q2 -29 17 -31
q12 -2 16 14q1 7 0 16q-7 54 -38 112.5t-84 91.5q3 -3 8.5 -9t20 -26t26 -42t22 -56.5t12.5 -69.5z" />
    <glyph glyph-name="S" unicode="S" horiz-adv-x="1183" 
d="M884 806q34 4 69.5 -1.5t74 -24t67.5 -49t47 -84t16 -121.5q-4 -173 -98 -292.5t-257 -181.5q-116 -44 -257.5 -50t-248.5 15.5t-165 55.5q-41 24 -60.5 74t-17 101t14.5 94t27 59q16 16 25 24t32 17t50 8t73.5 -10.5t107.5 -30.5q128 -44 280 0q33 10 36 34q3 23 -20 28
q-7 2 -16 1q-1 0 -22 -3.5t-34 -5t-42 -3t-53 -0.5t-60.5 4.5t-70.5 11t-76.5 21t-84.5 31.5q-66 29 -107.5 78.5t-56 100t-15.5 106.5t5 91.5t14 62.5q17 54 56 128q-20 20 -35 40t-20 31l-6 10q-33 72 101 206q20 20 37.5 29.5t35 8.5t22 -2t18.5 -6q8 -3 30 -20t40 -33
l19 -16q210 -153 488 -25q36 17 74 17.5t63 -8.5t44 -23q25 -18 60.5 -54t46.5 -55q7 -12 7 -26t-4 -23l-3 -8q-134 -223 -567 -213q-52 1 -115 10q-47 -122 33 -170q41 -25 98.5 -25.5t105 14t106 32t88.5 20.5zM1041 1243q-58 48 -158 47q9 -1 24.5 -3.5t52 -18.5
t61.5 -43q18 -19 27 -7q7 12 -7 25zM161 662q20 -22 63 -49.5t69 -30.5q-68 40 -104 97q-16 25 -31 17q-14 -7 -3 -26q2 -4 6 -8zM608 83q127 20 257 85q-21 -7 -53 -16.5t-101 -25t-101 -13.5q-30 2 -32 -14q-2 -12 14 -16q7 -1 16 0z" />
    <glyph glyph-name="T" unicode="T" horiz-adv-x="1290" 
d="M1241 1372q41 -24 56.5 -120.5t-11.5 -140.5q-16 -28 -38.5 -50.5t-43 -35t-38 -21t-28.5 -11.5l-11 -3q-149 -29 -291 -44q-2 -422 1 -553q1 -37 11 -77t24 -70t28 -55t24 -38l9 -13q-1 -25 -28 -55t-53 -49q-13 -10 -31 -18t-53 -16t-82.5 5t-97.5 49q-21 15 -38.5 36
t-30 42.5t-22.5 50.5t-16.5 51.5t-11 55t-7 52t-3.5 51t-1 44v38.5v27v433q-85 5 -156.5 17.5t-100.5 21.5l-29 10q-5 2 -14 5.5t-33.5 16t-45.5 26.5t-43 38t-33 50q-27 61 -9 153t65 107q28 9 60 -2t67 -33t51 -27q63 -22 249.5 -30.5t372.5 1t242 35.5q12 5 33 19.5
t34 22.5t35.5 12.5t37.5 -8.5zM58 1296q3 16 9 30t11 20l4 5q-23 -16 -35 -34.5t-11 -29.5q1 -10 10 -10t12 19zM568 184q33 -53 47 -67q45 -47 110 -37q-4 0 -10.5 0.5t-25 6.5t-34.5 17.5t-35 36.5t-30 59q-5 15 -17 9q-15 -6 -7 -22zM1236 1133q11 14 2 25
q-11 13 -25 -11q-19 -31 -49.5 -54t-51.5 -31l-21 -7q99 20 145 78z" />
    <glyph glyph-name="U" unicode="U" horiz-adv-x="1239" 
d="M1204 1258q9 -476 -12 -572q-12 -56 -22 -92.5t-31.5 -93.5t-58 -114.5t-86.5 -116.5q-52 -60 -114.5 -108t-122.5 -76t-124 -48.5t-118 -26.5t-105 -9.5t-86 1.5q-68 5 -120 33t-78 64t-42.5 71.5t-19.5 59.5l-4 25v945q-3 83 22 124t72 58q74 30 207 6q47 -9 74.5 -26
t34 -40t6 -42t-6.5 -46t-7 -37q-8 -144 -9 -342t2 -323l3 -126q92 2 161 31t111.5 69t69 110t37.5 126.5t11.5 146.5t-2.5 142t-11 140q-4 40 -5 59q-3 45 4 79t20 50.5t26.5 26.5t23.5 12l10 2q49 4 170 4q48 0 78 -36.5t36 -73.5zM141 1264q11 25 -1 31q-10 6 -18 -14
q-1 -3 -2 -7q-6 -28 -7 -68t7 -73q0 82 21 131zM403 63q15 1 18 14q4 14 -11 14h-5q-42 -7 -115.5 9t-93.5 25q125 -65 207 -62zM1136 985q19 177 5 270q-4 23 -16 26q-10 2 -12 -12q-1 -9 4 -22q10 -28 14.5 -93.5t4.5 -117.5v-51z" />
    <glyph glyph-name="U" unicode="&#xdc;" horiz-adv-x="1239" 
d="M1204 1258q9 -476 -12 -572q-12 -56 -22 -92.5t-31.5 -93.5t-58 -114.5t-86.5 -116.5q-52 -60 -114.5 -108t-122.5 -76t-124 -48.5t-118 -26.5t-105 -9.5t-86 1.5q-68 5 -120 33t-78 64t-42.5 71.5t-19.5 59.5l-4 25v945q-3 83 22 124t72 58q74 30 207 6q47 -9 74.5 -26
t34 -40t6 -42t-6.5 -46t-7 -37q-8 -144 -9 -342t2 -323l3 -126q92 2 161 31t111.5 69t69 110t37.5 126.5t11.5 146.5t-2.5 142t-11 140q-4 40 -5 59q-3 45 4 79t20 50.5t26.5 26.5t23.5 12l10 2q49 4 170 4q48 0 78 -36.5t36 -73.5zM141 1264q11 25 -1 31q-10 6 -18 -14
q-1 -3 -2 -7q-6 -28 -7 -68t7 -73q0 82 21 131zM403 63q15 1 18 14q4 14 -11 14h-5q-42 -7 -115.5 9t-93.5 25q125 -65 207 -62zM1136 985q19 177 5 270q-4 23 -16 26q-10 2 -12 -12q-1 -9 4 -22q10 -28 14.5 -93.5t4.5 -117.5v-51z" />
    <glyph glyph-name="U" unicode="&#xdb;" horiz-adv-x="1239" 
d="M1204 1258q9 -476 -12 -572q-12 -56 -22 -92.5t-31.5 -93.5t-58 -114.5t-86.5 -116.5q-52 -60 -114.5 -108t-122.5 -76t-124 -48.5t-118 -26.5t-105 -9.5t-86 1.5q-68 5 -120 33t-78 64t-42.5 71.5t-19.5 59.5l-4 25v945q-3 83 22 124t72 58q74 30 207 6q47 -9 74.5 -26
t34 -40t6 -42t-6.5 -46t-7 -37q-8 -144 -9 -342t2 -323l3 -126q92 2 161 31t111.5 69t69 110t37.5 126.5t11.5 146.5t-2.5 142t-11 140q-4 40 -5 59q-3 45 4 79t20 50.5t26.5 26.5t23.5 12l10 2q49 4 170 4q48 0 78 -36.5t36 -73.5zM141 1264q11 25 -1 31q-10 6 -18 -14
q-1 -3 -2 -7q-6 -28 -7 -68t7 -73q0 82 21 131zM403 63q15 1 18 14q4 14 -11 14h-5q-42 -7 -115.5 9t-93.5 25q125 -65 207 -62zM1136 985q19 177 5 270q-4 23 -16 26q-10 2 -12 -12q-1 -9 4 -22q10 -28 14.5 -93.5t4.5 -117.5v-51z" />
    <glyph glyph-name="U" unicode="&#xda;" horiz-adv-x="1239" 
d="M1204 1258q9 -476 -12 -572q-12 -56 -22 -92.5t-31.5 -93.5t-58 -114.5t-86.5 -116.5q-52 -60 -114.5 -108t-122.5 -76t-124 -48.5t-118 -26.5t-105 -9.5t-86 1.5q-68 5 -120 33t-78 64t-42.5 71.5t-19.5 59.5l-4 25v945q-3 83 22 124t72 58q74 30 207 6q47 -9 74.5 -26
t34 -40t6 -42t-6.5 -46t-7 -37q-8 -144 -9 -342t2 -323l3 -126q92 2 161 31t111.5 69t69 110t37.5 126.5t11.5 146.5t-2.5 142t-11 140q-4 40 -5 59q-3 45 4 79t20 50.5t26.5 26.5t23.5 12l10 2q49 4 170 4q48 0 78 -36.5t36 -73.5zM141 1264q11 25 -1 31q-10 6 -18 -14
q-1 -3 -2 -7q-6 -28 -7 -68t7 -73q0 82 21 131zM403 63q15 1 18 14q4 14 -11 14h-5q-42 -7 -115.5 9t-93.5 25q125 -65 207 -62zM1136 985q19 177 5 270q-4 23 -16 26q-10 2 -12 -12q-1 -9 4 -22q10 -28 14.5 -93.5t4.5 -117.5v-51z" />
    <glyph glyph-name="U" unicode="&#xd9;" horiz-adv-x="1239" 
d="M1204 1258q9 -476 -12 -572q-12 -56 -22 -92.5t-31.5 -93.5t-58 -114.5t-86.5 -116.5q-52 -60 -114.5 -108t-122.5 -76t-124 -48.5t-118 -26.5t-105 -9.5t-86 1.5q-68 5 -120 33t-78 64t-42.5 71.5t-19.5 59.5l-4 25v945q-3 83 22 124t72 58q74 30 207 6q47 -9 74.5 -26
t34 -40t6 -42t-6.5 -46t-7 -37q-8 -144 -9 -342t2 -323l3 -126q92 2 161 31t111.5 69t69 110t37.5 126.5t11.5 146.5t-2.5 142t-11 140q-4 40 -5 59q-3 45 4 79t20 50.5t26.5 26.5t23.5 12l10 2q49 4 170 4q48 0 78 -36.5t36 -73.5zM141 1264q11 25 -1 31q-10 6 -18 -14
q-1 -3 -2 -7q-6 -28 -7 -68t7 -73q0 82 21 131zM403 63q15 1 18 14q4 14 -11 14h-5q-42 -7 -115.5 9t-93.5 25q125 -65 207 -62zM1136 985q19 177 5 270q-4 23 -16 26q-10 2 -12 -12q-1 -9 4 -22q10 -28 14.5 -93.5t4.5 -117.5v-51z" />
    <glyph glyph-name="V" unicode="V" horiz-adv-x="1370" 
d="M1162 353q3 0 19.5 -10.5t37 -38.5t23.5 -63q14 -162 -9 -185q-11 -11 -42.5 -24t-83 -25t-129 -6t-159.5 33q-74 25 -144 62t-144.5 94.5t-141 129.5t-130 171.5t-114.5 216.5q-61 140 -95.5 260.5t-40.5 194t-2.5 116.5t13.5 59q24 37 82.5 66.5t133.5 14.5
q40 -8 72.5 -28.5t51 -45.5t29 -45.5t13.5 -35.5q3 -19 9.5 -53t36 -130.5t68.5 -184t112 -194t162 -181.5q20 406 129 682q3 9 10 24.5t32 52.5t55 63t80.5 42t107.5 3q31 -7 59 -21.5t45.5 -31t30.5 -31.5t19 -25l5 -10q-7 -14 -18.5 -39.5t-42 -114.5t-55.5 -187.5
t-50 -254.5t-35 -320zM59 1189q3 -22 16 -24q8 -1 10 10q1 8 -3 21q-8 26 -9 59t2 53l3 20q-15 -21 -20 -64.5t1 -74.5zM1021 1225q19 26 6 34q-11 7 -24 -15l-2 -4q-42 -86 -76 -260q56 191 96 245zM1195 170q7 49 -1 88q-4 18 -15 19q-10 2 -8 -16q1 -5 4 -12
q8 -20 13 -39.5t6 -29.5z" />
    <glyph glyph-name="W" unicode="W" horiz-adv-x="1497" 
d="M1453 1165q-73 -108 -108 -261.5t-43 -292.5q-5 -80 11 -155q3 -1 9.5 -2.5t9.5 -2.5q4 -2 9.5 -5t19.5 -14t24 -24.5t16 -36t2 -47.5q-28 -157 -95 -192q-14 -7 -27.5 -12t-28.5 -7t-26 -2.5t-27.5 1t-24.5 2.5t-27 4t-24 4q-84 12 -189 15l17 -82q-155 -55 -250 -55
q-27 0 -47 26t-27 52l-7 27v4t-1 5q-156 -28 -287 -85q-3 -2 -9.5 -5t-24 -9t-33.5 -8t-35.5 3t-33.5 19q-41 41 -152 189q-6 8 -9.5 22.5t-2 35.5t24 44.5t64.5 40.5q2 0 4 2q-8 17 -13.5 34t-7.5 26l-2 9q-84 426 12 806q13 53 38 91.5t52.5 55.5t57 28.5t52 10t38.5 -0.5
q12 -1 27.5 -4.5t37 -11t40 -18.5t34.5 -29t24 -39.5t5 -53t-20 -68.5q-38 -82 -56 -196.5t-15.5 -205t7.5 -169.5q0 -2 1 -5t1 -5q7 -44 24 -58q11 -10 31.5 -10t40.5 12q18 12 20 54q-12 237 -1 367q8 99 67 148q9 8 35 17t62 16.5t72.5 0.5t65.5 -26.5t41.5 -69.5
t0.5 -124q-25 -155 -17 -347q1 -17 15.5 -25t33.5 -3q21 5 27 26q5 378 139 662q23 49 52.5 83t56 49t55 21t47 4.5t35.5 -5.5q15 -4 32.5 -11.5t41.5 -21t40.5 -33.5t27 -45.5t3.5 -60t-33 -73.5zM139 654q-7 -100 32 -214q-1 16 -3 39.5t-4 86.5t3 86q1 12 -5.5 16.5
t-14 0t-8.5 -14.5zM859 946q0 72 -13 103q-20 46 -68 67q3 -2 7.5 -6t17.5 -19.5t19 -33.5t12 -48.5t-3 -64.5q-3 -17 11 -17q14 4 17 19zM1121 1145q9 20 54 80.5t81 82.5q16 10 5 20.5t-24 -0.5q-63 -51 -116 -183zM1310 193q3 10 -5 13q-8 1 -18 -12q-9 -14 -20.5 -24
t-18.5 -13l-6 -3q28 5 46.5 17t21.5 22z" />
    <glyph glyph-name="X" unicode="X" horiz-adv-x="1509" 
d="M1450 295q5 -4 11.5 -10.5t19.5 -29.5t16.5 -47t-9 -61.5t-46.5 -75.5q-33 -37 -67.5 -54t-60.5 -17.5t-54.5 11.5t-44 23t-34.5 27q-124 110 -393 353q-213 -248 -275 -305q-54 -51 -121.5 -76.5t-122.5 -26.5t-92 4.5t-47 11.5q-8 5 -26 49.5t-32 86.5l-13 42l186 177
l261 293q-391 354 -447 410q-14 14 -26 33.5t-23.5 52.5t-2 75t42.5 84q37 46 82.5 59.5t87.5 -0.5t80 -48q13 -11 442 -400l303 341q56 51 115 77.5t104 30t84.5 -4.5t60 -18t28.5 -18q7 -7 23.5 -46t29.5 -75l13 -36q-43 -22 -96 -65t-85 -75l-31 -32q-123 -150 -273 -329
zM1254 1339q-74 -12 -139 -87q7 6 18.5 16t48.5 26.5t73 17.5q23 1 23 13q0 11 -15 14q-4 1 -9 0zM275 72q51 6 108 35t84 64q-20 -17 -84.5 -45t-114.5 -27q-17 0 -16 -12q1 -13 16 -15h7z" />
    <glyph glyph-name="Y" unicode="Y" horiz-adv-x="1062" 
d="M974 1404q38 -81 52.5 -286.5t-17.5 -412.5q-12 -64 -24 -115t-35 -122.5t-51 -126.5t-72.5 -115.5t-97.5 -102.5t-128 -73t-163 -41q-66 -7 -121 -8t-94 3t-70.5 12.5t-51 19t-34 24.5t-21 27t-10.5 28t-4.5 26t-0.5 23v10q-1 37 21.5 82.5t43.5 59.5q58 38 134 8
q23 -9 53.5 -14t75.5 -2t87 19t84.5 58t70.5 106q-18 7 -47.5 18.5t-108 46t-141.5 68.5t-122 78t-75 81q-34 80 -50 246t-6 246q8 69 38 104.5t95 34.5q92 -1 134 -19.5t52 -79.5q7 -335 14 -373q5 -26 110.5 -76t166.5 -62q58 -11 10 402l-15 120q-1 3 -1.5 7.5t1.5 17.5
t7 24.5t19.5 23t35.5 17.5q43 12 95 18t101 0t60 -30zM126 846q29 -69 118 -115q-8 5 -20 14t-36.5 40.5t-34.5 67.5q-7 24 -20 19t-8 -23q0 -2 1 -3zM300 59q17 1 18 16q1 12 -11 13l-7 -1q-61 -17 -100.5 -9t-57.5 26l-19 19q8 -15 19 -27t20.5 -19.5t24.5 -12t22.5 -6.5
t25.5 -2.5t22.5 0t23.5 2.5zM972 1085q8 151 -23 270q-6 22 -20 23q-13 1 -13 -15q0 -9 6 -21q15 -29 27.5 -93t17.5 -114z" />
    <glyph glyph-name="Y" unicode="&#x178;" horiz-adv-x="1062" 
d="M974 1404q38 -81 52.5 -286.5t-17.5 -412.5q-12 -64 -24 -115t-35 -122.5t-51 -126.5t-72.5 -115.5t-97.5 -102.5t-128 -73t-163 -41q-66 -7 -121 -8t-94 3t-70.5 12.5t-51 19t-34 24.5t-21 27t-10.5 28t-4.5 26t-0.5 23v10q-1 37 21.5 82.5t43.5 59.5q58 38 134 8
q23 -9 53.5 -14t75.5 -2t87 19t84.5 58t70.5 106q-18 7 -47.5 18.5t-108 46t-141.5 68.5t-122 78t-75 81q-34 80 -50 246t-6 246q8 69 38 104.5t95 34.5q92 -1 134 -19.5t52 -79.5q7 -335 14 -373q5 -26 110.5 -76t166.5 -62q58 -11 10 402l-15 120q-1 3 -1.5 7.5t1.5 17.5
t7 24.5t19.5 23t35.5 17.5q43 12 95 18t101 0t60 -30zM126 846q29 -69 118 -115q-8 5 -20 14t-36.5 40.5t-34.5 67.5q-7 24 -20 19t-8 -23q0 -2 1 -3zM300 59q17 1 18 16q1 12 -11 13l-7 -1q-61 -17 -100.5 -9t-57.5 26l-19 19q8 -15 19 -27t20.5 -19.5t24.5 -12t22.5 -6.5
t25.5 -2.5t22.5 0t23.5 2.5zM972 1085q8 151 -23 270q-6 22 -20 23q-13 1 -13 -15q0 -9 6 -21q15 -29 27.5 -93t17.5 -114z" />
    <glyph glyph-name="Y" unicode="&#xdd;" horiz-adv-x="1062" 
d="M974 1404q38 -81 52.5 -286.5t-17.5 -412.5q-12 -64 -24 -115t-35 -122.5t-51 -126.5t-72.5 -115.5t-97.5 -102.5t-128 -73t-163 -41q-66 -7 -121 -8t-94 3t-70.5 12.5t-51 19t-34 24.5t-21 27t-10.5 28t-4.5 26t-0.5 23v10q-1 37 21.5 82.5t43.5 59.5q58 38 134 8
q23 -9 53.5 -14t75.5 -2t87 19t84.5 58t70.5 106q-18 7 -47.5 18.5t-108 46t-141.5 68.5t-122 78t-75 81q-34 80 -50 246t-6 246q8 69 38 104.5t95 34.5q92 -1 134 -19.5t52 -79.5q7 -335 14 -373q5 -26 110.5 -76t166.5 -62q58 -11 10 402l-15 120q-1 3 -1.5 7.5t1.5 17.5
t7 24.5t19.5 23t35.5 17.5q43 12 95 18t101 0t60 -30zM126 846q29 -69 118 -115q-8 5 -20 14t-36.5 40.5t-34.5 67.5q-7 24 -20 19t-8 -23q0 -2 1 -3zM300 59q17 1 18 16q1 12 -11 13l-7 -1q-61 -17 -100.5 -9t-57.5 26l-19 19q8 -15 19 -27t20.5 -19.5t24.5 -12t22.5 -6.5
t25.5 -2.5t22.5 0t23.5 2.5zM972 1085q8 151 -23 270q-6 22 -20 23q-13 1 -13 -15q0 -9 6 -21q15 -29 27.5 -93t17.5 -114z" />
    <glyph glyph-name="Z" unicode="Z" horiz-adv-x="1165" 
d="M1149 304q9 -2 1.5 -57t-26.5 -86q-21 -33 -37.5 -53.5t-46 -43.5t-73.5 -38.5t-105 -25.5h-719q-5 2 -13.5 5.5t-26 20.5t-26.5 39q-20 51 -32 112t0 91l632 850q-271 8 -327 0q-23 -3 -59 -26.5t-52 -37.5t-55 -49q-156 92 -170 101q-9 2 -1 57.5t27 86.5
q28 44 51.5 69.5t76.5 51.5t134 39h719q5 -2 13.5 -5.5t26 -20t26.5 -38.5q20 -51 32 -112.5t0 -91.5l-632 -849q271 -8 327 0q23 3 59 26.5t52 37.5t55 49q155 -93 169 -102zM130 1250q21 40 80 77t86 47q-74 -22 -114 -43.5t-71 -60.5q-10 -13 0 -24.5t19 4.5zM134 70
q10 -14 19 -11q13 4 -3 26q-2 1 -3 3q-17 21 -30 49.5t-17 46.5l-4 18q-2 -71 38 -132zM1030 112q13 11 4 25q-9 10 -19 -2q-28 -35 -92.5 -61t-93.5 -31q77 9 120.5 23t80.5 46z" />
    <glyph glyph-name="a" unicode="a" horiz-adv-x="1245" 
d="M1187 345q4 -20 11.5 -55.5t10.5 -52.5t7 -43.5t3.5 -41.5t-3.5 -33.5t-11 -32.5t-21 -26q-38 -37 -92 -54t-98 -15t-74 15q-40 17 -67 67t-35 91l-7 42q-9 -3 -24.5 -7.5t-60.5 -12t-87.5 -8t-95.5 11.5t-94 40q-18 -133 -53 -176q-38 -47 -112 -48.5t-153 38.5
q-80 39 -97 100t10 213q18 100 65 278.5t85 307.5l38 129q-4 1 -11.5 3t-28.5 11.5t-38.5 21.5t-37 33.5t-30.5 46.5q-26 60 -8.5 150t64.5 105q28 9 59 -2t65.5 -32.5t49.5 -26.5q99 -34 335 -36t327 36q10 5 25 15t27.5 18t26.5 14.5t29 6t29 -8.5q40 -24 55 -118
t-11 -137q-25 -43 -62 -71.5t-61 -35.5l-25 -7q149 -574 176 -713zM1112 1366q-5 23 -21 19q-15 -3 -12 -19l6 -11q8 -9 12.5 -24t5.5 -25l1 -10q13 45 8 70zM285 978q15 30 -4 37q-15 5 -24 -9q-2 -3 -3 -7q-25 -99 -48 -182q51 104 79 161zM568 480q30 -3 80 5t71 23
q-77 -15 -142 3q-27 8 -34 -7q-5 -13 12 -21zM608 563q107 -14 135 19.5t7 126.5q-74 319 -130 284q-8 -5 -15 -17q-25 -41 -54.5 -133.5t-42.5 -147.5q-4 -19 -5.5 -33t2 -31.5t14 -30t33 -23t56.5 -14.5z" />
    <glyph glyph-name="a" unicode="&#xe5;" horiz-adv-x="1245" 
d="M1187 345q4 -20 11.5 -55.5t10.5 -52.5t7 -43.5t3.5 -41.5t-3.5 -33.5t-11 -32.5t-21 -26q-38 -37 -92 -54t-98 -15t-74 15q-40 17 -67 67t-35 91l-7 42q-9 -3 -24.5 -7.5t-60.5 -12t-87.5 -8t-95.5 11.5t-94 40q-18 -133 -53 -176q-38 -47 -112 -48.5t-153 38.5
q-80 39 -97 100t10 213q18 100 65 278.5t85 307.5l38 129q-4 1 -11.5 3t-28.5 11.5t-38.5 21.5t-37 33.5t-30.5 46.5q-26 60 -8.5 150t64.5 105q28 9 59 -2t65.5 -32.5t49.5 -26.5q99 -34 335 -36t327 36q10 5 25 15t27.5 18t26.5 14.5t29 6t29 -8.5q40 -24 55 -118
t-11 -137q-25 -43 -62 -71.5t-61 -35.5l-25 -7q149 -574 176 -713zM1112 1366q-5 23 -21 19q-15 -3 -12 -19l6 -11q8 -9 12.5 -24t5.5 -25l1 -10q13 45 8 70zM285 978q15 30 -4 37q-15 5 -24 -9q-2 -3 -3 -7q-25 -99 -48 -182q51 104 79 161zM568 480q30 -3 80 5t71 23
q-77 -15 -142 3q-27 8 -34 -7q-5 -13 12 -21zM608 563q107 -14 135 19.5t7 126.5q-74 319 -130 284q-8 -5 -15 -17q-25 -41 -54.5 -133.5t-42.5 -147.5q-4 -19 -5.5 -33t2 -31.5t14 -30t33 -23t56.5 -14.5z" />
    <glyph glyph-name="a" unicode="&#xe4;" horiz-adv-x="1245" 
d="M1187 345q4 -20 11.5 -55.5t10.5 -52.5t7 -43.5t3.5 -41.5t-3.5 -33.5t-11 -32.5t-21 -26q-38 -37 -92 -54t-98 -15t-74 15q-40 17 -67 67t-35 91l-7 42q-9 -3 -24.5 -7.5t-60.5 -12t-87.5 -8t-95.5 11.5t-94 40q-18 -133 -53 -176q-38 -47 -112 -48.5t-153 38.5
q-80 39 -97 100t10 213q18 100 65 278.5t85 307.5l38 129q-4 1 -11.5 3t-28.5 11.5t-38.5 21.5t-37 33.5t-30.5 46.5q-26 60 -8.5 150t64.5 105q28 9 59 -2t65.5 -32.5t49.5 -26.5q99 -34 335 -36t327 36q10 5 25 15t27.5 18t26.5 14.5t29 6t29 -8.5q40 -24 55 -118
t-11 -137q-25 -43 -62 -71.5t-61 -35.5l-25 -7q149 -574 176 -713zM1112 1366q-5 23 -21 19q-15 -3 -12 -19l6 -11q8 -9 12.5 -24t5.5 -25l1 -10q13 45 8 70zM285 978q15 30 -4 37q-15 5 -24 -9q-2 -3 -3 -7q-25 -99 -48 -182q51 104 79 161zM568 480q30 -3 80 5t71 23
q-77 -15 -142 3q-27 8 -34 -7q-5 -13 12 -21zM608 563q107 -14 135 19.5t7 126.5q-74 319 -130 284q-8 -5 -15 -17q-25 -41 -54.5 -133.5t-42.5 -147.5q-4 -19 -5.5 -33t2 -31.5t14 -30t33 -23t56.5 -14.5z" />
    <glyph glyph-name="a" unicode="&#xe3;" horiz-adv-x="1245" 
d="M1187 345q4 -20 11.5 -55.5t10.5 -52.5t7 -43.5t3.5 -41.5t-3.5 -33.5t-11 -32.5t-21 -26q-38 -37 -92 -54t-98 -15t-74 15q-40 17 -67 67t-35 91l-7 42q-9 -3 -24.5 -7.5t-60.5 -12t-87.5 -8t-95.5 11.5t-94 40q-18 -133 -53 -176q-38 -47 -112 -48.5t-153 38.5
q-80 39 -97 100t10 213q18 100 65 278.5t85 307.5l38 129q-4 1 -11.5 3t-28.5 11.5t-38.5 21.5t-37 33.5t-30.5 46.5q-26 60 -8.5 150t64.5 105q28 9 59 -2t65.5 -32.5t49.5 -26.5q99 -34 335 -36t327 36q10 5 25 15t27.5 18t26.5 14.5t29 6t29 -8.5q40 -24 55 -118
t-11 -137q-25 -43 -62 -71.5t-61 -35.5l-25 -7q149 -574 176 -713zM1112 1366q-5 23 -21 19q-15 -3 -12 -19l6 -11q8 -9 12.5 -24t5.5 -25l1 -10q13 45 8 70zM285 978q15 30 -4 37q-15 5 -24 -9q-2 -3 -3 -7q-25 -99 -48 -182q51 104 79 161zM568 480q30 -3 80 5t71 23
q-77 -15 -142 3q-27 8 -34 -7q-5 -13 12 -21zM608 563q107 -14 135 19.5t7 126.5q-74 319 -130 284q-8 -5 -15 -17q-25 -41 -54.5 -133.5t-42.5 -147.5q-4 -19 -5.5 -33t2 -31.5t14 -30t33 -23t56.5 -14.5z" />
    <glyph glyph-name="a" unicode="&#xe2;" horiz-adv-x="1245" 
d="M1187 345q4 -20 11.5 -55.5t10.5 -52.5t7 -43.5t3.5 -41.5t-3.5 -33.5t-11 -32.5t-21 -26q-38 -37 -92 -54t-98 -15t-74 15q-40 17 -67 67t-35 91l-7 42q-9 -3 -24.5 -7.5t-60.5 -12t-87.5 -8t-95.5 11.5t-94 40q-18 -133 -53 -176q-38 -47 -112 -48.5t-153 38.5
q-80 39 -97 100t10 213q18 100 65 278.5t85 307.5l38 129q-4 1 -11.5 3t-28.5 11.5t-38.5 21.5t-37 33.5t-30.5 46.5q-26 60 -8.5 150t64.5 105q28 9 59 -2t65.5 -32.5t49.5 -26.5q99 -34 335 -36t327 36q10 5 25 15t27.5 18t26.5 14.5t29 6t29 -8.5q40 -24 55 -118
t-11 -137q-25 -43 -62 -71.5t-61 -35.5l-25 -7q149 -574 176 -713zM1112 1366q-5 23 -21 19q-15 -3 -12 -19l6 -11q8 -9 12.5 -24t5.5 -25l1 -10q13 45 8 70zM285 978q15 30 -4 37q-15 5 -24 -9q-2 -3 -3 -7q-25 -99 -48 -182q51 104 79 161zM568 480q30 -3 80 5t71 23
q-77 -15 -142 3q-27 8 -34 -7q-5 -13 12 -21zM608 563q107 -14 135 19.5t7 126.5q-74 319 -130 284q-8 -5 -15 -17q-25 -41 -54.5 -133.5t-42.5 -147.5q-4 -19 -5.5 -33t2 -31.5t14 -30t33 -23t56.5 -14.5z" />
    <glyph glyph-name="a" unicode="&#xe1;" horiz-adv-x="1245" 
d="M1187 345q4 -20 11.5 -55.5t10.5 -52.5t7 -43.5t3.5 -41.5t-3.5 -33.5t-11 -32.5t-21 -26q-38 -37 -92 -54t-98 -15t-74 15q-40 17 -67 67t-35 91l-7 42q-9 -3 -24.5 -7.5t-60.5 -12t-87.5 -8t-95.5 11.5t-94 40q-18 -133 -53 -176q-38 -47 -112 -48.5t-153 38.5
q-80 39 -97 100t10 213q18 100 65 278.5t85 307.5l38 129q-4 1 -11.5 3t-28.5 11.5t-38.5 21.5t-37 33.5t-30.5 46.5q-26 60 -8.5 150t64.5 105q28 9 59 -2t65.5 -32.5t49.5 -26.5q99 -34 335 -36t327 36q10 5 25 15t27.5 18t26.5 14.5t29 6t29 -8.5q40 -24 55 -118
t-11 -137q-25 -43 -62 -71.5t-61 -35.5l-25 -7q149 -574 176 -713zM1112 1366q-5 23 -21 19q-15 -3 -12 -19l6 -11q8 -9 12.5 -24t5.5 -25l1 -10q13 45 8 70zM285 978q15 30 -4 37q-15 5 -24 -9q-2 -3 -3 -7q-25 -99 -48 -182q51 104 79 161zM568 480q30 -3 80 5t71 23
q-77 -15 -142 3q-27 8 -34 -7q-5 -13 12 -21zM608 563q107 -14 135 19.5t7 126.5q-74 319 -130 284q-8 -5 -15 -17q-25 -41 -54.5 -133.5t-42.5 -147.5q-4 -19 -5.5 -33t2 -31.5t14 -30t33 -23t56.5 -14.5z" />
    <glyph glyph-name="a" unicode="&#xe0;" horiz-adv-x="1245" 
d="M1187 345q4 -20 11.5 -55.5t10.5 -52.5t7 -43.5t3.5 -41.5t-3.5 -33.5t-11 -32.5t-21 -26q-38 -37 -92 -54t-98 -15t-74 15q-40 17 -67 67t-35 91l-7 42q-9 -3 -24.5 -7.5t-60.5 -12t-87.5 -8t-95.5 11.5t-94 40q-18 -133 -53 -176q-38 -47 -112 -48.5t-153 38.5
q-80 39 -97 100t10 213q18 100 65 278.5t85 307.5l38 129q-4 1 -11.5 3t-28.5 11.5t-38.5 21.5t-37 33.5t-30.5 46.5q-26 60 -8.5 150t64.5 105q28 9 59 -2t65.5 -32.5t49.5 -26.5q99 -34 335 -36t327 36q10 5 25 15t27.5 18t26.5 14.5t29 6t29 -8.5q40 -24 55 -118
t-11 -137q-25 -43 -62 -71.5t-61 -35.5l-25 -7q149 -574 176 -713zM1112 1366q-5 23 -21 19q-15 -3 -12 -19l6 -11q8 -9 12.5 -24t5.5 -25l1 -10q13 45 8 70zM285 978q15 30 -4 37q-15 5 -24 -9q-2 -3 -3 -7q-25 -99 -48 -182q51 104 79 161zM568 480q30 -3 80 5t71 23
q-77 -15 -142 3q-27 8 -34 -7q-5 -13 12 -21zM608 563q107 -14 135 19.5t7 126.5q-74 319 -130 284q-8 -5 -15 -17q-25 -41 -54.5 -133.5t-42.5 -147.5q-4 -19 -5.5 -33t2 -31.5t14 -30t33 -23t56.5 -14.5z" />
    <glyph glyph-name="b" unicode="b" horiz-adv-x="1318" 
d="M1134 667q12 -12 53.5 -34t69.5 -46.5t27 -54.5q-4 -97 -45 -193.5t-82.5 -150.5t-73.5 -77q-1 -1 -22 -16t-30.5 -21t-33.5 -20.5t-44 -21.5t-48 -16.5t-60 -14t-67 -5.5q-61 -2 -126 2t-116 11t-91.5 14t-65.5 12t-26 5q-2 0 -9 -9t-28 -20t-56 -16q-40 -6 -97 14.5
t-99 50.5t-43 51q-2 27 40 109q28 54 45 128t20 120l3 47q-28 13 -36 30q-9 19 -14 140t7 140q10 12 35 3.5t28 -3.5q10 20 0 289q-1 31 -22 86t-21 59q-1 30 55.5 61t134.5 51q129 33 154 -18q4 -8 8 -26t6 -31l2 -14q0 -2 1.5 -4t10.5 -8.5t23 -11t43.5 -8t68.5 -2.5
q96 2 183 31t162 58t137 32q42 2 81 -27t52 -106q5 -27 17 -93.5t18 -104.5t12.5 -88t5.5 -83t-9 -51q-16 -37 -50.5 -74t-61.5 -56zM212 1011q34 91 17 182q-3 17 -17 20q-13 2 -13 -14l2 -15q9 -31 11.5 -74t1.5 -71zM481 980l-1 -186q20 -3 53 -5.5t112.5 3t132.5 25.5
q83 32 118.5 84.5t23.5 96.5q-3 10 -12.5 12.5t-29.5 -1t-43.5 -8.5t-63 -11t-78.5 -9q-33 -2 -86 -2.5t-89 0.5zM705 312q44 6 86 42.5t63.5 77t15.5 62.5q-4 15 -13 20t-28 2t-41 -8.5t-61 -12t-80 -7.5q-40 -1 -80.5 -0.5t-71.5 1.5l-31 1l-21 -176q18 -2 46 -3.5
t104.5 -3.5t111.5 5zM888 804q41 29 58 86q-27 -45 -70 -69q-16 -9 -8 -19q7 -8 20 2zM951 104q30 13 79 53.5t69 78.5q-80 -71 -150 -102q-23 -10 -21 -25q3 -13 23 -5z" />
    <glyph glyph-name="c" unicode="c" horiz-adv-x="1257" 
d="M1207 279q15 -13 23.5 -35.5t10 -51t0.5 -50t-4.5 -51t-3.5 -35.5q-1 -20 -3 -30t-13.5 -27.5t-33 -26t-63.5 -16t-103 -7.5q-162 0 -350 44t-322 117q-70 38 -119 97.5t-70.5 121t-30 107.5t-7.5 81q5 293 10 423h-5q-77 -5 -96 20t-12 93q11 109 29 220q124 -2 246 8
q51 4 173.5 13t215.5 16t131 12q41 6 101 17t86.5 14.5t58.5 -1.5t55 -24q36 -30 62.5 -96.5t34.5 -118.5l8 -52q-5 -7 -15 -17.5t-42 -33.5t-65 -35q-139 -51 -173 -22q-7 6 -13.5 23.5t-19 28t-39.5 8.5q-4 0 -387 -40q-10 -212 -7 -395q1 -48 9 -81.5t27.5 -56.5t42 -38
t61.5 -32q193 -85 382 -89q32 -1 83.5 9t87 10t59.5 -21zM1159 1174q-9 29 -32 72t-45 64q44 -78 51 -137q3 -29 17 -30q12 -1 11 17q0 7 -2 14zM1106 18q26 3 27 17q1 12 -21 10q-6 -1 -13 -3q-28 -9 -94 -11.5t-117 -0.5l-52 1q180 -24 270 -13z" />
    <glyph glyph-name="c" unicode="&#xe7;" horiz-adv-x="1257" 
d="M1207 279q15 -13 23.5 -35.5t10 -51t0.5 -50t-4.5 -51t-3.5 -35.5q-1 -20 -3 -30t-13.5 -27.5t-33 -26t-63.5 -16t-103 -7.5q-162 0 -350 44t-322 117q-70 38 -119 97.5t-70.5 121t-30 107.5t-7.5 81q5 293 10 423h-5q-77 -5 -96 20t-12 93q11 109 29 220q124 -2 246 8
q51 4 173.5 13t215.5 16t131 12q41 6 101 17t86.5 14.5t58.5 -1.5t55 -24q36 -30 62.5 -96.5t34.5 -118.5l8 -52q-5 -7 -15 -17.5t-42 -33.5t-65 -35q-139 -51 -173 -22q-7 6 -13.5 23.5t-19 28t-39.5 8.5q-4 0 -387 -40q-10 -212 -7 -395q1 -48 9 -81.5t27.5 -56.5t42 -38
t61.5 -32q193 -85 382 -89q32 -1 83.5 9t87 10t59.5 -21zM1159 1174q-9 29 -32 72t-45 64q44 -78 51 -137q3 -29 17 -30q12 -1 11 17q0 7 -2 14zM1106 18q26 3 27 17q1 12 -21 10q-6 -1 -13 -3q-28 -9 -94 -11.5t-117 -0.5l-52 1q180 -24 270 -13z" />
    <glyph glyph-name="d" unicode="d" horiz-adv-x="1308" 
d="M1098 1286h1q26 -8 52.5 -26t55.5 -48.5t47.5 -81.5t18.5 -114q0 -136 -14 -341t-31 -269q-20 -76 -92 -197t-127 -155q-36 -22 -119 -43t-193 -26.5t-194 38.5q-3 13 -6 34.5t2 74t28 88.5q14 22 46.5 36t70.5 21.5t77 17.5t73 30.5t50 53.5q61 123 83 323q9 71 7.5 150
t-17.5 96q-21 22 -51 31.5t-121.5 7.5t-251.5 -24v-5q10 -171 -3 -325q-40 -445 -134 -589q-27 -41 -78 -54q-71 -19 -160 17q-50 20 -72.5 37t-24.5 44q-2 23 9 49q2 4 13.5 26.5t23.5 50.5t26 70.5t27.5 106t21.5 137.5q21 178 21 348q-3 -1 -6 -2.5t-6.5 -2.5t-5.5 -2
q-7 -3 -15 1.5t-9 12.5q-21 148 -58 281q-7 22 15 31q2 1 15.5 6.5t21.5 8.5q-6 22 -21 53q-13 28 40 58.5t119 49t110 22.5q53 4 73 -56q4 -10 12 -47q34 6 97 13t164.5 14t208.5 0t180 -31zM107 130q40 92 40 213q-34 -138 -65 -201q-4 -11 -0.5 -17.5t12.5 -5.5t13 11z
M839 269q23 14 18 26q-5 14 -34 -5q-22 -14 -47.5 -26t-39.5 -17l-15 -5q75 0 118 27zM1161 1152q7 -16 20 -10q11 6 3 20q-10 17 -33 37.5t-45 31.5q36 -34 55 -79z" />
    <glyph glyph-name="e" unicode="e" horiz-adv-x="1212" 
d="M1166 1284q12 -30 17.5 -73t5 -70.5t-1.5 -27.5q-59 -81 -272.5 -114.5t-481.5 -13.5q0 -6 -1.5 -20t-2.5 -21q-2 -29 -9 -146q52 -15 164 -15q292 2 392 52q40 18 57 -18.5t18 -113.5q2 -134 -102 -162q-88 -23 -249.5 -33t-293.5 2q2 -129 82 -191q25 -20 61 -30.5
t79.5 -11.5t77.5 0.5t80 6t62 5.5q33 2 130.5 21t124.5 13q57 -12 59 -114q0 -38 -2 -78t-4 -61l-2 -20q-85 -41 -230 -57.5t-287.5 -6.5t-236.5 41q-252 82 -303 312q-14 60 -20 210l-37 21q-7 143 -3 243q2 31 6 35.5t30 -0.5q5 -1 13.5 -2.5t14 -3t6.5 -1.5q5 49 12 180
q-7 2 -27 7t-29.5 8.5t-9.5 6.5q-1 20 10 130q2 19 4 36.5t4.5 34.5t5 31t5 24.5t5.5 15.5t5 5q3 -1 25 -5t29 -6q4 55 25.5 75t82.5 4q30 -8 62.5 -12.5t72.5 -8t55 -5.5q48 -6 37 -94q372 -22 543 62q28 14 51.5 17t37.5 -1.5t25.5 -17t16.5 -21.5t11 -23zM136 359
q-6 28 3 101q2 20 -10 22q-9 -3 -11 -13q0 -70 18 -110zM1061 103q-40 -19 -102.5 -35.5t-104.5 -23.5l-43 -6q66 -2 143.5 9t122.5 29q22 9 19 22q-3 15 -25 9zM981 604q-4 -10 -12.5 -19t-14.5 -13l-6 -5q45 20 55 39q5 10 -3 14q-11 6 -19 -16zM1141 1140q5 27 -2 70
t-17 70q-7 20 -19 20q-11 -1 -6 -20q2 -6 6 -13q12 -20 21.5 -52t13.5 -53z" />
    <glyph glyph-name="e" unicode="&#xeb;" horiz-adv-x="1212" 
d="M1166 1284q12 -30 17.5 -73t5 -70.5t-1.5 -27.5q-59 -81 -272.5 -114.5t-481.5 -13.5q0 -6 -1.5 -20t-2.5 -21q-2 -29 -9 -146q52 -15 164 -15q292 2 392 52q40 18 57 -18.5t18 -113.5q2 -134 -102 -162q-88 -23 -249.5 -33t-293.5 2q2 -129 82 -191q25 -20 61 -30.5
t79.5 -11.5t77.5 0.5t80 6t62 5.5q33 2 130.5 21t124.5 13q57 -12 59 -114q0 -38 -2 -78t-4 -61l-2 -20q-85 -41 -230 -57.5t-287.5 -6.5t-236.5 41q-252 82 -303 312q-14 60 -20 210l-37 21q-7 143 -3 243q2 31 6 35.5t30 -0.5q5 -1 13.5 -2.5t14 -3t6.5 -1.5q5 49 12 180
q-7 2 -27 7t-29.5 8.5t-9.5 6.5q-1 20 10 130q2 19 4 36.5t4.5 34.5t5 31t5 24.5t5.5 15.5t5 5q3 -1 25 -5t29 -6q4 55 25.5 75t82.5 4q30 -8 62.5 -12.5t72.5 -8t55 -5.5q48 -6 37 -94q372 -22 543 62q28 14 51.5 17t37.5 -1.5t25.5 -17t16.5 -21.5t11 -23zM136 359
q-6 28 3 101q2 20 -10 22q-9 -3 -11 -13q0 -70 18 -110zM1061 103q-40 -19 -102.5 -35.5t-104.5 -23.5l-43 -6q66 -2 143.5 9t122.5 29q22 9 19 22q-3 15 -25 9zM981 604q-4 -10 -12.5 -19t-14.5 -13l-6 -5q45 20 55 39q5 10 -3 14q-11 6 -19 -16zM1141 1140q5 27 -2 70
t-17 70q-7 20 -19 20q-11 -1 -6 -20q2 -6 6 -13q12 -20 21.5 -52t13.5 -53z" />
    <glyph glyph-name="e" unicode="&#xea;" horiz-adv-x="1212" 
d="M1166 1284q12 -30 17.5 -73t5 -70.5t-1.5 -27.5q-59 -81 -272.5 -114.5t-481.5 -13.5q0 -6 -1.5 -20t-2.5 -21q-2 -29 -9 -146q52 -15 164 -15q292 2 392 52q40 18 57 -18.5t18 -113.5q2 -134 -102 -162q-88 -23 -249.5 -33t-293.5 2q2 -129 82 -191q25 -20 61 -30.5
t79.5 -11.5t77.5 0.5t80 6t62 5.5q33 2 130.5 21t124.5 13q57 -12 59 -114q0 -38 -2 -78t-4 -61l-2 -20q-85 -41 -230 -57.5t-287.5 -6.5t-236.5 41q-252 82 -303 312q-14 60 -20 210l-37 21q-7 143 -3 243q2 31 6 35.5t30 -0.5q5 -1 13.5 -2.5t14 -3t6.5 -1.5q5 49 12 180
q-7 2 -27 7t-29.5 8.5t-9.5 6.5q-1 20 10 130q2 19 4 36.5t4.5 34.5t5 31t5 24.5t5.5 15.5t5 5q3 -1 25 -5t29 -6q4 55 25.5 75t82.5 4q30 -8 62.5 -12.5t72.5 -8t55 -5.5q48 -6 37 -94q372 -22 543 62q28 14 51.5 17t37.5 -1.5t25.5 -17t16.5 -21.5t11 -23zM136 359
q-6 28 3 101q2 20 -10 22q-9 -3 -11 -13q0 -70 18 -110zM1061 103q-40 -19 -102.5 -35.5t-104.5 -23.5l-43 -6q66 -2 143.5 9t122.5 29q22 9 19 22q-3 15 -25 9zM981 604q-4 -10 -12.5 -19t-14.5 -13l-6 -5q45 20 55 39q5 10 -3 14q-11 6 -19 -16zM1141 1140q5 27 -2 70
t-17 70q-7 20 -19 20q-11 -1 -6 -20q2 -6 6 -13q12 -20 21.5 -52t13.5 -53z" />
    <glyph glyph-name="e" unicode="&#xe9;" horiz-adv-x="1212" 
d="M1166 1284q12 -30 17.5 -73t5 -70.5t-1.5 -27.5q-59 -81 -272.5 -114.5t-481.5 -13.5q0 -6 -1.5 -20t-2.5 -21q-2 -29 -9 -146q52 -15 164 -15q292 2 392 52q40 18 57 -18.5t18 -113.5q2 -134 -102 -162q-88 -23 -249.5 -33t-293.5 2q2 -129 82 -191q25 -20 61 -30.5
t79.5 -11.5t77.5 0.5t80 6t62 5.5q33 2 130.5 21t124.5 13q57 -12 59 -114q0 -38 -2 -78t-4 -61l-2 -20q-85 -41 -230 -57.5t-287.5 -6.5t-236.5 41q-252 82 -303 312q-14 60 -20 210l-37 21q-7 143 -3 243q2 31 6 35.5t30 -0.5q5 -1 13.5 -2.5t14 -3t6.5 -1.5q5 49 12 180
q-7 2 -27 7t-29.5 8.5t-9.5 6.5q-1 20 10 130q2 19 4 36.5t4.5 34.5t5 31t5 24.5t5.5 15.5t5 5q3 -1 25 -5t29 -6q4 55 25.5 75t82.5 4q30 -8 62.5 -12.5t72.5 -8t55 -5.5q48 -6 37 -94q372 -22 543 62q28 14 51.5 17t37.5 -1.5t25.5 -17t16.5 -21.5t11 -23zM136 359
q-6 28 3 101q2 20 -10 22q-9 -3 -11 -13q0 -70 18 -110zM1061 103q-40 -19 -102.5 -35.5t-104.5 -23.5l-43 -6q66 -2 143.5 9t122.5 29q22 9 19 22q-3 15 -25 9zM981 604q-4 -10 -12.5 -19t-14.5 -13l-6 -5q45 20 55 39q5 10 -3 14q-11 6 -19 -16zM1141 1140q5 27 -2 70
t-17 70q-7 20 -19 20q-11 -1 -6 -20q2 -6 6 -13q12 -20 21.5 -52t13.5 -53z" />
    <glyph glyph-name="e" unicode="&#xe8;" horiz-adv-x="1212" 
d="M1166 1284q12 -30 17.5 -73t5 -70.5t-1.5 -27.5q-59 -81 -272.5 -114.5t-481.5 -13.5q0 -6 -1.5 -20t-2.5 -21q-2 -29 -9 -146q52 -15 164 -15q292 2 392 52q40 18 57 -18.5t18 -113.5q2 -134 -102 -162q-88 -23 -249.5 -33t-293.5 2q2 -129 82 -191q25 -20 61 -30.5
t79.5 -11.5t77.5 0.5t80 6t62 5.5q33 2 130.5 21t124.5 13q57 -12 59 -114q0 -38 -2 -78t-4 -61l-2 -20q-85 -41 -230 -57.5t-287.5 -6.5t-236.5 41q-252 82 -303 312q-14 60 -20 210l-37 21q-7 143 -3 243q2 31 6 35.5t30 -0.5q5 -1 13.5 -2.5t14 -3t6.5 -1.5q5 49 12 180
q-7 2 -27 7t-29.5 8.5t-9.5 6.5q-1 20 10 130q2 19 4 36.5t4.5 34.5t5 31t5 24.5t5.5 15.5t5 5q3 -1 25 -5t29 -6q4 55 25.5 75t82.5 4q30 -8 62.5 -12.5t72.5 -8t55 -5.5q48 -6 37 -94q372 -22 543 62q28 14 51.5 17t37.5 -1.5t25.5 -17t16.5 -21.5t11 -23zM136 359
q-6 28 3 101q2 20 -10 22q-9 -3 -11 -13q0 -70 18 -110zM1061 103q-40 -19 -102.5 -35.5t-104.5 -23.5l-43 -6q66 -2 143.5 9t122.5 29q22 9 19 22q-3 15 -25 9zM981 604q-4 -10 -12.5 -19t-14.5 -13l-6 -5q45 20 55 39q5 10 -3 14q-11 6 -19 -16zM1141 1140q5 27 -2 70
t-17 70q-7 20 -19 20q-11 -1 -6 -20q2 -6 6 -13q12 -20 21.5 -52t13.5 -53z" />
    <glyph glyph-name="f" unicode="f" horiz-adv-x="1259" 
d="M1252 1328q13 -31 18.5 -80.5t4.5 -83.5l-1 -34q-59 -81 -241 -122.5t-391 -41.5q-48 0 -105 6v-256q1 0 28 -0.5t59 -1t74.5 -0.5t78.5 1t67 4t44 8q59 20 94 14t36 -30q3 -113 -15 -213q-9 -51 -35 -74t-93 -29q-168 -13 -339 -4v-9q-2 -182 -66 -298t-196 -147
q-124 -29 -211 17q-50 26 -50 57q-1 13 11 22q59 46 92.5 143t36.5 159q6 138 6 276v429q-95 25 -99 37q-29 94 -10 231q3 25 14 39.5t23 20t34.5 3.5t38 -5.5t44.5 -12.5q46 -14 153.5 -27t243 -20t278 9.5t228.5 59.5q29 14 53 17t38 -1.5t26 -17t17 -22t11 -23.5z
M196 814q0 -8 4 -10t8 1.5t4 8.5q0 22 -10 140q-6 -119 -6 -140zM432 106q9 16 1 23q-9 9 -21 -15q-1 -2 -2 -5q-12 -26 -33 -51.5t-37 -37.5l-15 -12q68 31 107 98zM939 463q-8 -13 -18 -22.5t-16 -12.5l-6 -3q25 5 42 16.5t20 21.5q3 9 -5 12t-17 -12zM1188 1115
q22 12 14 26q-7 15 -31 1q-3 -2 -7 -5q-33 -26 -93.5 -51.5t-104.5 -38.5l-43 -13q73 7 145.5 30.5t119.5 50.5z" />
    <glyph glyph-name="g" unicode="g" horiz-adv-x="1296" 
d="M1055 1014q-60 27 -198 35.5t-292 -2.5q0 -541 16 -612q1 -6 0.5 -11t2 -9t10.5 -6.5t26.5 -5t49.5 -4t81 -2.5q52 -1 148 1q2 36 5 72.5t3 65.5q0 26 -10 59.5t-18.5 57.5t-11 48t13.5 40t54 23q38 10 85 7t88.5 -13.5t70 -41t28.5 -75.5v-638q0 -30 -57.5 -63
t-135.5 -28q-65 4 -92.5 27.5t-32.5 80.5q-223 -7 -378 35t-235 117q-35 33 -58 88.5t-32.5 127t-12.5 116t-4 108.5q-3 116 0 353q-54 -29 -94 -16q-50 16 -68.5 104t9.5 151q18 43 56.5 74t68.5 40l30 10q160 34 314 47.5t258.5 9.5t186.5 -13t121 -19l39 -10l12.5 -2.5
t29 -9.5t40.5 -20t41 -36t35 -54q23 -48 8.5 -139t-55.5 -116q-15 -9 -31 -9.5t-31 7t-28 16t-29 19t-27 15.5zM1116 1285q-116 44 -266 34q166 -16 247 -59q27 -14 36 -1q8 12 -10 23zM947 653q-6 18 -20 16q-14 -5 -5 -28q12 -27 18 -64.5t6 -61.5v-24q28 84 1 162z
M291 233q13 -16 22.5 -9t-10.5 27q-19 20 -34 48.5t-20 46.5l-5 19q2 -75 47 -132z" />
    <glyph glyph-name="h" unicode="h" horiz-adv-x="1449" 
d="M1432 741q0 -169 -13 -208q-17 -51 -74 -31q-5 2 -30 7q-11 -379 -64 -454q-72 -102 -187 -59q-41 15 -67.5 27.5t-58 32t-43 42.5t-1.5 49q7 20 20.5 43t21.5 38.5t14 56t5 102.5q0 28 -4 148q-139 0 -243 -7q-83 -6 -182 -22q-2 -94 -2 -119q-1 -80 7 -119t27 -71
t26 -50q10 -26 -1.5 -49t-42.5 -42.5t-57.5 -32t-67.5 -27.5q-115 -43 -187 59q-47 67 -61 366q-19 -6 -41 -13t-25 -8q-25 -9 -48.5 31.5t-31.5 99.5q-10 74 -11.5 116t7.5 70.5t25 42t49 28.5q17 7 76 20l27 573q2 39 46.5 57t104 14.5t115.5 -15.5t86 -27
q22 -11 31.5 -23.5t9 -31t-5 -36t-12 -52t-11.5 -66.5q-9 -82 -19 -331q92 10 157 13q120 5 243 3q-11 251 -18 315q-4 32 -11.5 66.5t-12 52t-5 36t9 31t31.5 23.5q30 15 86 27t115 15.5t103.5 -14.5t46.5 -57q16 -271 25 -517l28 -7q34 -10 55 -23.5t29 -31.5t9.5 -28.5
t1.5 -32.5zM303 59q14 -15 24 -8q11 8 -13 29q-22 19 -40 47t-25 47l-7 18q10 -80 61 -133zM806 804q30 -5 32 8q2 8 -12 13q-6 2 -13 3q-49 5 -130 -5.5t-147 -30.5q7 1 19 3t46 6t66 6.5t71 2t68 -5.5zM980 1161q28 85 1 169q-6 17 -20 17q-16 -1 -8 -23l2 -6
q12 -28 18.5 -67t6.5 -65v-25z" />
    <glyph glyph-name="i" unicode="i" horiz-adv-x="585" 
d="M523 1312q0 -8 1.5 -129.5t2.5 -249.5t0 -266.5t-4 -197.5q-8 -136 -44 -223t-125 -161q-58 -48 -126.5 -62t-120 0.5t-81.5 44.5q-47 47 38 154q52 67 69 275q2 24 2.5 119t0.5 218t-1 238.5t-1.5 204.5t-0.5 93q0 14 13 30t26 26l13 9q122 10 289 -7q23 -2 34.5 -20
t13 -34.5t1.5 -50.5v-11zM189 1357q18 20 7 27q-8 5 -15 -4q-19 -27 -12 -83q2 40 20 60zM356 168q38 27 72.5 99t42.5 174q-2 -7 -5 -19.5t-14.5 -46t-25.5 -63.5t-38.5 -63t-52.5 -53q-11 -8 -16 -16t-3 -13t7.5 -7t14.5 0t18 8z" />
    <glyph glyph-name="i" unicode="&#xef;" horiz-adv-x="585" 
d="M523 1312q0 -8 1.5 -129.5t2.5 -249.5t0 -266.5t-4 -197.5q-8 -136 -44 -223t-125 -161q-58 -48 -126.5 -62t-120 0.5t-81.5 44.5q-47 47 38 154q52 67 69 275q2 24 2.5 119t0.5 218t-1 238.5t-1.5 204.5t-0.5 93q0 14 13 30t26 26l13 9q122 10 289 -7q23 -2 34.5 -20
t13 -34.5t1.5 -50.5v-11zM189 1357q18 20 7 27q-8 5 -15 -4q-19 -27 -12 -83q2 40 20 60zM356 168q38 27 72.5 99t42.5 174q-2 -7 -5 -19.5t-14.5 -46t-25.5 -63.5t-38.5 -63t-52.5 -53q-11 -8 -16 -16t-3 -13t7.5 -7t14.5 0t18 8z" />
    <glyph glyph-name="i" unicode="&#xee;" horiz-adv-x="585" 
d="M523 1312q0 -8 1.5 -129.5t2.5 -249.5t0 -266.5t-4 -197.5q-8 -136 -44 -223t-125 -161q-58 -48 -126.5 -62t-120 0.5t-81.5 44.5q-47 47 38 154q52 67 69 275q2 24 2.5 119t0.5 218t-1 238.5t-1.5 204.5t-0.5 93q0 14 13 30t26 26l13 9q122 10 289 -7q23 -2 34.5 -20
t13 -34.5t1.5 -50.5v-11zM189 1357q18 20 7 27q-8 5 -15 -4q-19 -27 -12 -83q2 40 20 60zM356 168q38 27 72.5 99t42.5 174q-2 -7 -5 -19.5t-14.5 -46t-25.5 -63.5t-38.5 -63t-52.5 -53q-11 -8 -16 -16t-3 -13t7.5 -7t14.5 0t18 8z" />
    <glyph glyph-name="i" unicode="&#xed;" horiz-adv-x="585" 
d="M523 1312q0 -8 1.5 -129.5t2.5 -249.5t0 -266.5t-4 -197.5q-8 -136 -44 -223t-125 -161q-58 -48 -126.5 -62t-120 0.5t-81.5 44.5q-47 47 38 154q52 67 69 275q2 24 2.5 119t0.5 218t-1 238.5t-1.5 204.5t-0.5 93q0 14 13 30t26 26l13 9q122 10 289 -7q23 -2 34.5 -20
t13 -34.5t1.5 -50.5v-11zM189 1357q18 20 7 27q-8 5 -15 -4q-19 -27 -12 -83q2 40 20 60zM356 168q38 27 72.5 99t42.5 174q-2 -7 -5 -19.5t-14.5 -46t-25.5 -63.5t-38.5 -63t-52.5 -53q-11 -8 -16 -16t-3 -13t7.5 -7t14.5 0t18 8z" />
    <glyph glyph-name="i" unicode="&#xec;" horiz-adv-x="585" 
d="M523 1312q0 -8 1.5 -129.5t2.5 -249.5t0 -266.5t-4 -197.5q-8 -136 -44 -223t-125 -161q-58 -48 -126.5 -62t-120 0.5t-81.5 44.5q-47 47 38 154q52 67 69 275q2 24 2.5 119t0.5 218t-1 238.5t-1.5 204.5t-0.5 93q0 14 13 30t26 26l13 9q122 10 289 -7q23 -2 34.5 -20
t13 -34.5t1.5 -50.5v-11zM189 1357q18 20 7 27q-8 5 -15 -4q-19 -27 -12 -83q2 40 20 60zM356 168q38 27 72.5 99t42.5 174q-2 -7 -5 -19.5t-14.5 -46t-25.5 -63.5t-38.5 -63t-52.5 -53q-11 -8 -16 -16t-3 -13t7.5 -7t14.5 0t18 8z" />
    <glyph glyph-name="j" unicode="j" horiz-adv-x="964" 
d="M904 1334v-907q0 -140 -73 -254.5t-183 -144.5q-148 -39 -549 -25q-28 1 -48 7t-31.5 14t-16.5 22.5t-6.5 25t2.5 28.5t7 27t10 26.5t8 21.5q14 40 53 73t97 48q10 3 96 21t147 33q124 30 132 144q4 51 6 301.5t-6 284.5q-9 16 -45 12t-48 -33q-10 -26 -89 -33.5
t-157.5 3t-89.5 30.5q-10 17 0 275q1 19 14.5 34t38.5 25t40 14t41 10q52 6 284.5 4.5t290.5 -4.5q36 -2 55.5 -26t19.5 -57zM191 1250q10 28 -2 34q-11 6 -19 -13q-2 -5 -3 -11q-6 -23 -5 -75t11 -80q-3 90 18 145zM671 135q42 22 85 89t64 167q-2 -7 -7 -18.5t-21 -43.5
t-33.5 -60t-46 -58t-58.5 -46q-20 -11 -22 -22t10 -13t29 5z" />
    <glyph glyph-name="k" unicode="k" horiz-adv-x="1337" 
d="M1267 327v-1q20 -8 51.5 -66.5t22.5 -73.5q-16 -26 -79.5 -73t-151.5 -77q-53 -18 -100.5 -21t-91 9.5t-71.5 25.5t-70 37q-63 36 -268 245q-9 -69 -48 -149.5t-119 -140.5q-42 -31 -91.5 -39t-91 2.5t-77.5 27.5t-56.5 33t-21.5 22q41 67 61 99q30 49 51.5 137t21.5 160
v809q0 27 12.5 51t32.5 40t37 25.5t32 15.5q27 10 81 14t114 -7q28 -8 44 -42.5t18 -65.5l2 -31v-349l362 392q48 53 79 73t70 20q37 0 92 -30t89 -81q7 -10 11 -21t5 -21t1 -19t-3 -19t-5.5 -16.5t-7.5 -16t-7.5 -13t-8 -11t-5.5 -8.5q-12 -19 -24 -34.5t-17 -21.5l-6 -6
q-240 -268 -414 -462q203 -214 291 -270q54 -35 102.5 -49t74.5 -11.5t48 7t29 1.5zM1131 1239q-9 -24 -23 -48.5t-23 -36.5l-9 -13q61 44 80 90q10 26 -0.5 32.5t-22.5 -19.5q-1 -2 -2 -5zM462 1225q5 27 -2 70t-17 70q-8 22 -20 20q-14 -3 -4 -25q1 -4 4 -8
q12 -20 21.5 -52t13.5 -54zM1029 61q25 3 26 17t-22 15q-6 0 -13 -1q-56 -10 -111 0t-82 24l-27 15q45 -44 109.5 -60t119.5 -10z" />
    <glyph glyph-name="l" unicode="l" horiz-adv-x="1163" 
d="M1160 442q16 -28 16 -51.5t-8 -33.5l-8 -10q-320 -298 -741 -286q-18 -47 -32 -54q-34 -16 -134.5 1.5t-140.5 38.5q-46 25 -39 80l-49 20q-2 2 -5 5.5t-6.5 18.5t-1.5 34q7 57 33 129.5t50 77.5q6 2 45 -8q28 217 26.5 412t-17.5 330l-16 135q-6 48 48 88.5t115 51.5
q41 7 70.5 2.5t49 -17t31 -26t16.5 -23.5l4 -10q81 -537 22 -980q74 9 150 31.5t127.5 45t103 52t68 40.5t30.5 22q25 17 53 14t48 -19q19 -16 48 -50.5t44 -60.5zM442 1200q5 27 -2 69.5t-17 69.5q-7 20 -19 20q-11 -1 -6 -20q2 -6 6 -13q12 -20 21.5 -51.5t12.5 -52.5z
M1068 329q20 18 10 31q-9 13 -26 -3q-4 -4 -8 -9q-20 -26 -71.5 -65.5t-93.5 -66.5l-42 -27q139 60 231 140z" />
    <glyph glyph-name="m" unicode="m" horiz-adv-x="1501" 
d="M1455 1206q6 -8 9.5 -22.5t2 -35.5t-24 -44.5t-64.5 -40.5q-3 0 -4 -1q8 -17 13.5 -34t7.5 -26l2 -9q84 -424 -13 -807q-13 -53 -38 -91.5t-52 -55.5t-56.5 -28.5t-52 -10t-38.5 0.5q-15 2 -33.5 6.5t-44.5 14t-45.5 27t-34 40.5t-13 58.5t21.5 77.5q38 82 56 197
t15.5 205.5t-7.5 169.5q0 1 -0.5 5t-0.5 5q-7 44 -24 58q-11 10 -31.5 10t-40.5 -12q-18 -12 -20 -54q12 -238 1 -368q-8 -98 -67 -147q-9 -8 -35 -17t-62 -16.5t-72.5 -0.5t-65.5 26.5t-41.5 69.5t-0.5 124q24 150 16 346q-1 17 -15 25t-33 3q-21 -5 -27 -26
q-5 -378 -139 -662q-23 -49 -52.5 -83t-56 -49t-55 -20.5t-47 -4t-35.5 5.5q-19 5 -40.5 14t-49.5 30t-44 47t-12.5 66.5t34.5 86.5q73 108 108 261.5t43 292.5q5 80 -11 155q-3 1 -9.5 2.5t-9.5 2.5q-4 2 -9.5 5t-19.5 14t-24 24.5t-16 36t-2 47.5q28 158 95 193
q16 8 34 13t30 7t32.5 1t28.5 -2t31.5 -5t28.5 -5q84 -12 188 -15l-16 82q155 55 250 55q27 0 47 -26t27 -52l6 -26q0 -2 1 -5t1 -4q160 29 287 84q3 2 9.5 5t24 9t33.5 8t35.5 -3t33.5 -19q41 -41 152 -189zM212 1230q9 14 20.5 24t17.5 13l7 3q-28 -5 -46.5 -17t-21.5 -22
t5 -13q8 -1 18 12zM262 97q64 51 116 182q-9 -20 -54 -80t-81 -82q-16 -10 -5 -20.5t24 0.5zM640 478q0 -72 13 -103q18 -46 68 -67q-2 1 -4.5 3t-10 10t-13.5 17t-14 24t-10.5 31.5t-4.5 39.5t4 48q3 17 -11 16q-14 -4 -17 -19zM1360 770q7 100 -32 214q1 -16 3 -39t4 -86
t-3 -86q-1 -12 5.5 -17t14 -0.5t8.5 14.5z" />
    <glyph glyph-name="n" unicode="n" horiz-adv-x="1392" 
d="M1379 1285q-28 -72 -38 -101q-33 -98 -54 -235t-28 -244.5t-7 -242t1.5 -174.5t4.5 -95v-5q5 -76 -47 -132q-51 -56 -129 -56h-178q-75 0 -144 34.5t-125.5 98.5t-102 138t-88.5 168q-34 -177 -71 -306q-20 -70 -84 -105.5t-134 -15.5q-50 14 -105 82t-39 87q13 16 23 49
q53 185 92 445t51 404t12 171q4 65 49.5 112.5t110.5 53.5q65 5 118.5 -33.5t68.5 -102.5l6 -26q7 -25 19 -70.5t27.5 -100.5t38 -126.5t45.5 -137.5q123 -348 227 -452q-7 586 108 929q23 69 89 101.5t135 9.5q118 -39 148 -122zM297 102q15 17 25.5 61.5t10.5 76.5
q-19 -73 -54 -122q-7 -9 -9.5 -16t0 -10t6.5 -3.5t10 3.5t11 10zM633 683q6 -11 16.5 -12.5t15 6.5t-1.5 21q-19 32 -42 91.5t-37 102.5l-14 43q8 -142 63 -252zM1094 1285q16 24 6.5 28.5t-24.5 -13.5q-15 -17 -25.5 -60.5t-10.5 -75.5q20 72 54 121zM1122 66q31 19 47 38
t17 31q1 10 -8 12q-10 1 -16 -18q-6 -17 -16 -32.5t-17 -22.5z" />
    <glyph glyph-name="n" unicode="&#xf1;" horiz-adv-x="1392" 
d="M1379 1285q-28 -72 -38 -101q-33 -98 -54 -235t-28 -244.5t-7 -242t1.5 -174.5t4.5 -95v-5q5 -76 -47 -132q-51 -56 -129 -56h-178q-75 0 -144 34.5t-125.5 98.5t-102 138t-88.5 168q-34 -177 -71 -306q-20 -70 -84 -105.5t-134 -15.5q-50 14 -105 82t-39 87q13 16 23 49
q53 185 92 445t51 404t12 171q4 65 49.5 112.5t110.5 53.5q65 5 118.5 -33.5t68.5 -102.5l6 -26q7 -25 19 -70.5t27.5 -100.5t38 -126.5t45.5 -137.5q123 -348 227 -452q-7 586 108 929q23 69 89 101.5t135 9.5q118 -39 148 -122zM297 102q15 17 25.5 61.5t10.5 76.5
q-19 -73 -54 -122q-7 -9 -9.5 -16t0 -10t6.5 -3.5t10 3.5t11 10zM633 683q6 -11 16.5 -12.5t15 6.5t-1.5 21q-19 32 -42 91.5t-37 102.5l-14 43q8 -142 63 -252zM1094 1285q16 24 6.5 28.5t-24.5 -13.5q-15 -17 -25.5 -60.5t-10.5 -75.5q20 72 54 121zM1122 66q31 19 47 38
t17 31q1 10 -8 12q-10 1 -16 -18q-6 -17 -16 -32.5t-17 -22.5z" />
    <glyph glyph-name="o" unicode="o" horiz-adv-x="1452" 
d="M1403 978q29 -31 42.5 -82.5t-1.5 -120t-64 -125.5q-68 -79 -155 -118v-311q0 -10 -6 -31.5t-22 -53t-39 -60t-63.5 -50.5t-89.5 -26h-549q-79 0 -142.5 27t-102 68.5t-64 95.5t-35.5 104.5t-10 98.5v111q-63 5 -67 50q-13 175 -2 289q4 6 10.5 14.5t24 22.5t31.5 14h3
v260q0 20 13.5 52.5t38.5 69t69.5 65.5t97.5 35h549q79 0 142.5 -27t102 -68.5t64.5 -95.5t36 -104.5t10 -98.5v-54q9 4 23 14q110 82 155 35zM921 1117q-12 13 -24 6q-14 -8 4 -25q1 -2 3 -3q28 -23 47 -56t23 -55l5 -21q-7 103 -58 154zM393 976q0 -8 0.5 -38t0.5 -51
q356 -9 539 -9v15q0 30 -8.5 60.5t-26.5 61t-53 49.5t-82 19h-264q-48 -5 -77 -43.5t-29 -63.5zM89 847q-5 -4 -5.5 -10t4.5 -8t14 2v23q-5 -2 -13 -7zM214 224q11 -46 53.5 -87.5t103.5 -44.5q-3 0 -8.5 1.5t-21.5 10.5t-30.5 23t-33 43.5t-31.5 67.5q-11 33 -25 22.5
t-7 -36.5zM828 294q37 3 63 28t34 46.5t8 32.5v86q-173 -1 -540 9v-13q0 -30 8.5 -60.5t27 -60.5t53.5 -49t82 -19h264zM1297 650q17 23 7 36q-11 13 -31 -12q-2 -1 -3 -3q-15 -20 -45 -43v-35q51 28 72 57z" />
    <glyph glyph-name="o" unicode="&#xf8;" horiz-adv-x="1452" 
d="M1403 978q29 -31 42.5 -82.5t-1.5 -120t-64 -125.5q-68 -79 -155 -118v-311q0 -10 -6 -31.5t-22 -53t-39 -60t-63.5 -50.5t-89.5 -26h-549q-79 0 -142.5 27t-102 68.5t-64 95.5t-35.5 104.5t-10 98.5v111q-63 5 -67 50q-13 175 -2 289q4 6 10.5 14.5t24 22.5t31.5 14h3
v260q0 20 13.5 52.5t38.5 69t69.5 65.5t97.5 35h549q79 0 142.5 -27t102 -68.5t64.5 -95.5t36 -104.5t10 -98.5v-54q9 4 23 14q110 82 155 35zM921 1117q-12 13 -24 6q-14 -8 4 -25q1 -2 3 -3q28 -23 47 -56t23 -55l5 -21q-7 103 -58 154zM393 976q0 -8 0.5 -38t0.5 -51
q356 -9 539 -9v15q0 30 -8.5 60.5t-26.5 61t-53 49.5t-82 19h-264q-48 -5 -77 -43.5t-29 -63.5zM89 847q-5 -4 -5.5 -10t4.5 -8t14 2v23q-5 -2 -13 -7zM214 224q11 -46 53.5 -87.5t103.5 -44.5q-3 0 -8.5 1.5t-21.5 10.5t-30.5 23t-33 43.5t-31.5 67.5q-11 33 -25 22.5
t-7 -36.5zM828 294q37 3 63 28t34 46.5t8 32.5v86q-173 -1 -540 9v-13q0 -30 8.5 -60.5t27 -60.5t53.5 -49t82 -19h264zM1297 650q17 23 7 36q-11 13 -31 -12q-2 -1 -3 -3q-15 -20 -45 -43v-35q51 28 72 57z" />
    <glyph glyph-name="o" unicode="&#xf6;" horiz-adv-x="1452" 
d="M1403 978q29 -31 42.5 -82.5t-1.5 -120t-64 -125.5q-68 -79 -155 -118v-311q0 -10 -6 -31.5t-22 -53t-39 -60t-63.5 -50.5t-89.5 -26h-549q-79 0 -142.5 27t-102 68.5t-64 95.5t-35.5 104.5t-10 98.5v111q-63 5 -67 50q-13 175 -2 289q4 6 10.5 14.5t24 22.5t31.5 14h3
v260q0 20 13.5 52.5t38.5 69t69.5 65.5t97.5 35h549q79 0 142.5 -27t102 -68.5t64.5 -95.5t36 -104.5t10 -98.5v-54q9 4 23 14q110 82 155 35zM921 1117q-12 13 -24 6q-14 -8 4 -25q1 -2 3 -3q28 -23 47 -56t23 -55l5 -21q-7 103 -58 154zM393 976q0 -8 0.5 -38t0.5 -51
q356 -9 539 -9v15q0 30 -8.5 60.5t-26.5 61t-53 49.5t-82 19h-264q-48 -5 -77 -43.5t-29 -63.5zM89 847q-5 -4 -5.5 -10t4.5 -8t14 2v23q-5 -2 -13 -7zM214 224q11 -46 53.5 -87.5t103.5 -44.5q-3 0 -8.5 1.5t-21.5 10.5t-30.5 23t-33 43.5t-31.5 67.5q-11 33 -25 22.5
t-7 -36.5zM828 294q37 3 63 28t34 46.5t8 32.5v86q-173 -1 -540 9v-13q0 -30 8.5 -60.5t27 -60.5t53.5 -49t82 -19h264zM1297 650q17 23 7 36q-11 13 -31 -12q-2 -1 -3 -3q-15 -20 -45 -43v-35q51 28 72 57z" />
    <glyph glyph-name="o" unicode="&#xf5;" horiz-adv-x="1452" 
d="M1403 978q29 -31 42.5 -82.5t-1.5 -120t-64 -125.5q-68 -79 -155 -118v-311q0 -10 -6 -31.5t-22 -53t-39 -60t-63.5 -50.5t-89.5 -26h-549q-79 0 -142.5 27t-102 68.5t-64 95.5t-35.5 104.5t-10 98.5v111q-63 5 -67 50q-13 175 -2 289q4 6 10.5 14.5t24 22.5t31.5 14h3
v260q0 20 13.5 52.5t38.5 69t69.5 65.5t97.5 35h549q79 0 142.5 -27t102 -68.5t64.5 -95.5t36 -104.5t10 -98.5v-54q9 4 23 14q110 82 155 35zM921 1117q-12 13 -24 6q-14 -8 4 -25q1 -2 3 -3q28 -23 47 -56t23 -55l5 -21q-7 103 -58 154zM393 976q0 -8 0.5 -38t0.5 -51
q356 -9 539 -9v15q0 30 -8.5 60.5t-26.5 61t-53 49.5t-82 19h-264q-48 -5 -77 -43.5t-29 -63.5zM89 847q-5 -4 -5.5 -10t4.5 -8t14 2v23q-5 -2 -13 -7zM214 224q11 -46 53.5 -87.5t103.5 -44.5q-3 0 -8.5 1.5t-21.5 10.5t-30.5 23t-33 43.5t-31.5 67.5q-11 33 -25 22.5
t-7 -36.5zM828 294q37 3 63 28t34 46.5t8 32.5v86q-173 -1 -540 9v-13q0 -30 8.5 -60.5t27 -60.5t53.5 -49t82 -19h264zM1297 650q17 23 7 36q-11 13 -31 -12q-2 -1 -3 -3q-15 -20 -45 -43v-35q51 28 72 57z" />
    <glyph glyph-name="o" unicode="&#xf4;" horiz-adv-x="1452" 
d="M1403 978q29 -31 42.5 -82.5t-1.5 -120t-64 -125.5q-68 -79 -155 -118v-311q0 -10 -6 -31.5t-22 -53t-39 -60t-63.5 -50.5t-89.5 -26h-549q-79 0 -142.5 27t-102 68.5t-64 95.5t-35.5 104.5t-10 98.5v111q-63 5 -67 50q-13 175 -2 289q4 6 10.5 14.5t24 22.5t31.5 14h3
v260q0 20 13.5 52.5t38.5 69t69.5 65.5t97.5 35h549q79 0 142.5 -27t102 -68.5t64.5 -95.5t36 -104.5t10 -98.5v-54q9 4 23 14q110 82 155 35zM921 1117q-12 13 -24 6q-14 -8 4 -25q1 -2 3 -3q28 -23 47 -56t23 -55l5 -21q-7 103 -58 154zM393 976q0 -8 0.5 -38t0.5 -51
q356 -9 539 -9v15q0 30 -8.5 60.5t-26.5 61t-53 49.5t-82 19h-264q-48 -5 -77 -43.5t-29 -63.5zM89 847q-5 -4 -5.5 -10t4.5 -8t14 2v23q-5 -2 -13 -7zM214 224q11 -46 53.5 -87.5t103.5 -44.5q-3 0 -8.5 1.5t-21.5 10.5t-30.5 23t-33 43.5t-31.5 67.5q-11 33 -25 22.5
t-7 -36.5zM828 294q37 3 63 28t34 46.5t8 32.5v86q-173 -1 -540 9v-13q0 -30 8.5 -60.5t27 -60.5t53.5 -49t82 -19h264zM1297 650q17 23 7 36q-11 13 -31 -12q-2 -1 -3 -3q-15 -20 -45 -43v-35q51 28 72 57z" />
    <glyph glyph-name="o" unicode="&#xf3;" horiz-adv-x="1452" 
d="M1403 978q29 -31 42.5 -82.5t-1.5 -120t-64 -125.5q-68 -79 -155 -118v-311q0 -10 -6 -31.5t-22 -53t-39 -60t-63.5 -50.5t-89.5 -26h-549q-79 0 -142.5 27t-102 68.5t-64 95.5t-35.5 104.5t-10 98.5v111q-63 5 -67 50q-13 175 -2 289q4 6 10.5 14.5t24 22.5t31.5 14h3
v260q0 20 13.5 52.5t38.5 69t69.5 65.5t97.5 35h549q79 0 142.5 -27t102 -68.5t64.5 -95.5t36 -104.5t10 -98.5v-54q9 4 23 14q110 82 155 35zM921 1117q-12 13 -24 6q-14 -8 4 -25q1 -2 3 -3q28 -23 47 -56t23 -55l5 -21q-7 103 -58 154zM393 976q0 -8 0.5 -38t0.5 -51
q356 -9 539 -9v15q0 30 -8.5 60.5t-26.5 61t-53 49.5t-82 19h-264q-48 -5 -77 -43.5t-29 -63.5zM89 847q-5 -4 -5.5 -10t4.5 -8t14 2v23q-5 -2 -13 -7zM214 224q11 -46 53.5 -87.5t103.5 -44.5q-3 0 -8.5 1.5t-21.5 10.5t-30.5 23t-33 43.5t-31.5 67.5q-11 33 -25 22.5
t-7 -36.5zM828 294q37 3 63 28t34 46.5t8 32.5v86q-173 -1 -540 9v-13q0 -30 8.5 -60.5t27 -60.5t53.5 -49t82 -19h264zM1297 650q17 23 7 36q-11 13 -31 -12q-2 -1 -3 -3q-15 -20 -45 -43v-35q51 28 72 57z" />
    <glyph glyph-name="o" unicode="&#xf2;" horiz-adv-x="1452" 
d="M1403 978q29 -31 42.5 -82.5t-1.5 -120t-64 -125.5q-68 -79 -155 -118v-311q0 -10 -6 -31.5t-22 -53t-39 -60t-63.5 -50.5t-89.5 -26h-549q-79 0 -142.5 27t-102 68.5t-64 95.5t-35.5 104.5t-10 98.5v111q-63 5 -67 50q-13 175 -2 289q4 6 10.5 14.5t24 22.5t31.5 14h3
v260q0 20 13.5 52.5t38.5 69t69.5 65.5t97.5 35h549q79 0 142.5 -27t102 -68.5t64.5 -95.5t36 -104.5t10 -98.5v-54q9 4 23 14q110 82 155 35zM921 1117q-12 13 -24 6q-14 -8 4 -25q1 -2 3 -3q28 -23 47 -56t23 -55l5 -21q-7 103 -58 154zM393 976q0 -8 0.5 -38t0.5 -51
q356 -9 539 -9v15q0 30 -8.5 60.5t-26.5 61t-53 49.5t-82 19h-264q-48 -5 -77 -43.5t-29 -63.5zM89 847q-5 -4 -5.5 -10t4.5 -8t14 2v23q-5 -2 -13 -7zM214 224q11 -46 53.5 -87.5t103.5 -44.5q-3 0 -8.5 1.5t-21.5 10.5t-30.5 23t-33 43.5t-31.5 67.5q-11 33 -25 22.5
t-7 -36.5zM828 294q37 3 63 28t34 46.5t8 32.5v86q-173 -1 -540 9v-13q0 -30 8.5 -60.5t27 -60.5t53.5 -49t82 -19h264zM1297 650q17 23 7 36q-11 13 -31 -12q-2 -1 -3 -3q-15 -20 -45 -43v-35q51 28 72 57z" />
    <glyph glyph-name="p" unicode="p" horiz-adv-x="1101" 
d="M947 1416q81 -29 120.5 -129.5t26.5 -223.5t-73 -217q-191 -299 -589 -410q-25 -146 -61 -260.5t-58 -145.5q-16 -23 -28.5 -27.5t-47.5 4.5q-49 14 -118 53.5t-80 77.5q-5 17 -4.5 34.5t3 29t11.5 46t15 58.5q114 486 43 771q-7 29 -26 87t-33.5 102.5t-14.5 53.5
q1 34 32 60t75.5 39t89 21t75.5 10l31 2q25 -31 55 -132q31 12 66 24.5t88.5 29.5t106 29t106.5 20.5t103.5 7t85.5 -14.5zM89 1297q3 -12 15 -12q15 1 7 27q0 2 -1 4q-6 18 -5 29.5t5 17.5l3 6q-34 -33 -24 -72zM116 199v24.5t0.5 31t3 39.5t8.5 50q-16 -44 -37 -129
q-7 -29 7 -36q11 -5 16 11q2 4 2 9zM732 927q23 34 32.5 63.5t6 48.5t-14 32t-28.5 14.5t-38 -2.5q-29 -8 -89 -34.5t-105 -48.5l-46 -23q2 -17 4 -43t6.5 -96t-0.5 -98q23 9 58 25t108.5 65t105.5 97zM1009 1204q1 -24 13 -24t15 18q1 5 1 9q-2 35 -22.5 75.5t-56.5 73.5
q5 -7 13 -20.5t22 -53t15 -78.5z" />
    <glyph glyph-name="q" unicode="q" horiz-adv-x="1327" 
d="M1178 1023v-759q40 -25 76.5 -42.5t53.5 -22.5l16 -5q0 -93 -35 -145q-16 -24 -47.5 -36t-54.5 -13h-23q-79 0 -168 47q-18 -5 -37 -6h-549q-79 0 -142.5 27t-102 68.5t-64.5 95.5t-36 104t-10 98v762q0 15 8 39t26 54t42.5 56.5t62.5 46.5t81 25h549q79 0 142.5 -27
t102 -68.5t64 -95.5t35.5 -104.5t10 -98.5zM141 296q66 -150 225 -187q-6 2 -16.5 7t-39.5 22.5t-52.5 38.5t-48 56t-35.5 74q-6 22 -17 25t-16 -9t0 -27zM887 543v391q0 30 -8.5 60.5t-27 60.5t-53.5 49t-82 19h-263q-48 -5 -77 -43t-29 -63v-493q0 -30 8.5 -60.5
t26.5 -60.5t53 -49t82 -19h155l-32 41q-19 32 4.5 77t62.5 77.5t68 42.5q33 13 60.5 6.5t51.5 -36.5zM851 1146q28 -23 47 -56t24 -54l4 -22q-7 102 -58 153q-13 14 -25 6q-11 -10 8 -27zM1192 40q27 5 27 18q-3 13 -34 7q-25 -5 -53.5 -6.5t-43.5 -0.5l-16 1
q71 -28 120 -19z" />
    <glyph glyph-name="r" unicode="r" horiz-adv-x="1196" 
d="M855 676q203 -200 267 -290q52 -75 30 -172.5t-98 -144.5q-40 -25 -78 -28t-65 11t-45.5 31.5t-27.5 35.5q-3 5 -17.5 36.5t-32.5 66t-37 64.5q-32 51 -175 188q-59 -35 -111 -59q-16 -74 -39.5 -143t-45.5 -115.5t-43.5 -83t-35.5 -54t-18 -18.5q-21 -6 -96 43t-128 92
q-24 20 -33 41t-6 32l4 11q56 114 88 228.5t39.5 206t3.5 175t-19 144.5t-30 106.5t-27 67.5l-12 23q-2 3 -4.5 7.5t-7.5 18.5t-5.5 26t6.5 26t23 23q182 97 226 112q50 17 84 -77q4 -11 22 -65q429 171 520 191q72 16 131.5 -13.5t84.5 -109.5q16 -51 18.5 -116t-21 -152
t-78.5 -158q-63 -82 -211 -208zM1075 1302q-8 17 -23 13q-14 -6 0 -28q21 -30 30 -67t8 -59l-2 -22q21 97 -13 163zM124 239q40 70 42 212q-2 -25 -21.5 -95.5t-45.5 -104.5q-11 -14 2 -20q14 -7 23 8zM602 741q18 9 15 19q-3 12 -21 2l-8 -5q-16 -13 -34 -23t-28 -14l-9 -3
q48 5 85 24zM745 949q21 31 31 57.5t9.5 42.5t-6.5 28t-12.5 16.5t-12.5 6.5q-7 2 -57 -19t-120.5 -52t-103.5 -44q16 -57 22 -210v-12q0 -1 0.5 -3.5t0.5 -3.5q7 3 19 9.5t46.5 26.5t64 41t64 53t55.5 63zM1085 249q2 -29 17 -32q13 -2 16 15q1 7 0 15q-7 55 -37.5 113.5
t-83.5 91.5q3 -3 8.5 -9t20 -26t25.5 -42t21.5 -56.5t12.5 -69.5z" />
    <glyph glyph-name="s" unicode="s" horiz-adv-x="1187" 
d="M886 806q34 4 69.5 -1.5t74 -24t67.5 -49t47 -84t16 -121.5q-4 -173 -98 -292.5t-257 -181.5q-116 -44 -257.5 -50t-248.5 15.5t-165 55.5q-41 24 -60.5 74t-17 101t14.5 94t27 59q16 16 25 24t32 17t50 8t73.5 -10.5t107.5 -30.5q128 -44 280 0q33 10 36 34q3 23 -20 28
q-7 2 -16 1q-1 0 -22 -3.5t-34 -5t-42 -3t-53 -0.5t-60.5 4.5t-70.5 11t-76.5 21t-84.5 31.5q-66 29 -107.5 78.5t-56 100t-15.5 106.5t5 91.5t14 62.5q17 54 56 128q-20 20 -35 40t-20 31l-6 10q-33 72 101 206q20 20 37.5 29.5t35 8.5t22 -2t18.5 -6q8 -3 30 -20t40 -33
l19 -16q210 -153 488 -25q36 17 74 17.5t63 -8.5t44 -23q25 -18 60.5 -54t46.5 -55q7 -12 7 -26t-4 -23l-3 -8q-134 -223 -567 -213q-52 1 -115 10q-47 -122 33 -170q41 -25 98.5 -25.5t105 14t106 32t88.5 20.5zM1043 1243q-58 48 -157 47q9 -1 24 -3.5t51.5 -18.5
t61.5 -43q18 -19 27 -7q7 12 -7 25zM163 662q20 -22 63 -49.5t69 -30.5q-68 40 -104 97q-16 25 -31 17q-14 -7 -3 -26q2 -4 6 -8zM610 83q127 20 257 85q-21 -7 -53 -16.5t-101 -25t-101 -13.5q-30 2 -32 -14q-2 -12 14 -16q7 -1 16 0z" />
    <glyph glyph-name="t" unicode="t" horiz-adv-x="1294" 
d="M1243 1372q41 -24 56.5 -120.5t-11.5 -140.5q-16 -28 -38.5 -50.5t-43 -35t-38 -21t-28.5 -11.5l-11 -3q-149 -29 -291 -44q-2 -422 1 -553q1 -37 11 -77t24 -70t28 -55t24 -38l9 -13q-1 -25 -28 -55t-53 -49q-13 -10 -31 -18t-53 -16t-82.5 5t-97.5 49q-21 15 -38.5 36
t-30 42.5t-22.5 50.5t-16.5 51.5t-11 55t-7 52t-3.5 51t-1 44v38.5v27v433q-85 5 -156.5 17.5t-100.5 21.5l-29 10q-5 2 -14 5.5t-33.5 16t-45.5 26.5t-43 38t-33 50q-27 61 -9 153t65 107q28 9 60 -2t67 -33t51 -27q63 -22 249.5 -30.5t372.5 1t242 35.5q12 5 33 19.5
t34 22.5t35.5 12.5t37.5 -8.5zM60 1296q3 16 9 30t11 20l4 5q-23 -16 -35 -34.5t-11 -29.5q1 -10 10 -10t12 19zM570 184q33 -53 47 -67q45 -47 110 -37q-4 0 -10.5 0.5t-25 6.5t-34.5 17.5t-35 36.5t-30 59q-5 15 -17 9q-15 -6 -7 -22zM1238 1133q11 14 2 25
q-11 13 -25 -11q-19 -31 -49.5 -54t-51.5 -31l-21 -7q99 20 145 78z" />
    <glyph glyph-name="u" unicode="u" horiz-adv-x="1245" 
d="M1208 1258q9 -476 -12 -572q-12 -56 -22 -92.5t-31.5 -93.5t-58 -114.5t-86.5 -116.5q-52 -60 -114.5 -108t-122.5 -76t-124 -48.5t-118 -26.5t-105 -9.5t-86 1.5q-68 5 -120 33t-78 64t-42.5 71.5t-19.5 59.5l-4 25v945q-3 83 22 124t72 58q74 30 207 6q47 -9 74.5 -26
t34 -40t6 -42t-6.5 -46t-7 -37q-8 -144 -9 -342t2 -323l3 -126q72 1 130.5 18.5t99 46t71 70t48 87.5t28 101.5t13.5 109.5t1.5 114t-5 112.5t-8.5 107.5q-4 39 -5 57q-3 45 4 79t20 50.5t26.5 26.5t22.5 12l10 2q49 4 170 4q48 0 78 -36.5t36 -73.5zM145 1264q11 25 -1 31
q-10 6 -18 -14q-1 -3 -2 -7q-6 -28 -7 -68t7 -73q0 82 21 131zM407 63q15 1 18 14q4 14 -11 14h-5q-42 -7 -115.5 9t-93.5 25q125 -65 207 -62zM1140 985q19 177 5 270q-4 23 -16 26q-10 2 -12 -12q-1 -9 4 -22q10 -28 14.5 -93.5t4.5 -117.5v-51z" />
    <glyph glyph-name="u" unicode="&#xfc;" horiz-adv-x="1245" 
d="M1208 1258q9 -476 -12 -572q-12 -56 -22 -92.5t-31.5 -93.5t-58 -114.5t-86.5 -116.5q-52 -60 -114.5 -108t-122.5 -76t-124 -48.5t-118 -26.5t-105 -9.5t-86 1.5q-68 5 -120 33t-78 64t-42.5 71.5t-19.5 59.5l-4 25v945q-3 83 22 124t72 58q74 30 207 6q47 -9 74.5 -26
t34 -40t6 -42t-6.5 -46t-7 -37q-8 -144 -9 -342t2 -323l3 -126q72 1 130.5 18.5t99 46t71 70t48 87.5t28 101.5t13.5 109.5t1.5 114t-5 112.5t-8.5 107.5q-4 39 -5 57q-3 45 4 79t20 50.5t26.5 26.5t22.5 12l10 2q49 4 170 4q48 0 78 -36.5t36 -73.5zM145 1264q11 25 -1 31
q-10 6 -18 -14q-1 -3 -2 -7q-6 -28 -7 -68t7 -73q0 82 21 131zM407 63q15 1 18 14q4 14 -11 14h-5q-42 -7 -115.5 9t-93.5 25q125 -65 207 -62zM1140 985q19 177 5 270q-4 23 -16 26q-10 2 -12 -12q-1 -9 4 -22q10 -28 14.5 -93.5t4.5 -117.5v-51z" />
    <glyph glyph-name="u" unicode="&#xfb;" horiz-adv-x="1245" 
d="M1208 1258q9 -476 -12 -572q-12 -56 -22 -92.5t-31.5 -93.5t-58 -114.5t-86.5 -116.5q-52 -60 -114.5 -108t-122.5 -76t-124 -48.5t-118 -26.5t-105 -9.5t-86 1.5q-68 5 -120 33t-78 64t-42.5 71.5t-19.5 59.5l-4 25v945q-3 83 22 124t72 58q74 30 207 6q47 -9 74.5 -26
t34 -40t6 -42t-6.5 -46t-7 -37q-8 -144 -9 -342t2 -323l3 -126q72 1 130.5 18.5t99 46t71 70t48 87.5t28 101.5t13.5 109.5t1.5 114t-5 112.5t-8.5 107.5q-4 39 -5 57q-3 45 4 79t20 50.5t26.5 26.5t22.5 12l10 2q49 4 170 4q48 0 78 -36.5t36 -73.5zM145 1264q11 25 -1 31
q-10 6 -18 -14q-1 -3 -2 -7q-6 -28 -7 -68t7 -73q0 82 21 131zM407 63q15 1 18 14q4 14 -11 14h-5q-42 -7 -115.5 9t-93.5 25q125 -65 207 -62zM1140 985q19 177 5 270q-4 23 -16 26q-10 2 -12 -12q-1 -9 4 -22q10 -28 14.5 -93.5t4.5 -117.5v-51z" />
    <glyph glyph-name="u" unicode="&#xfa;" horiz-adv-x="1245" 
d="M1208 1258q9 -476 -12 -572q-12 -56 -22 -92.5t-31.5 -93.5t-58 -114.5t-86.5 -116.5q-52 -60 -114.5 -108t-122.5 -76t-124 -48.5t-118 -26.5t-105 -9.5t-86 1.5q-68 5 -120 33t-78 64t-42.5 71.5t-19.5 59.5l-4 25v945q-3 83 22 124t72 58q74 30 207 6q47 -9 74.5 -26
t34 -40t6 -42t-6.5 -46t-7 -37q-8 -144 -9 -342t2 -323l3 -126q72 1 130.5 18.5t99 46t71 70t48 87.5t28 101.5t13.5 109.5t1.5 114t-5 112.5t-8.5 107.5q-4 39 -5 57q-3 45 4 79t20 50.5t26.5 26.5t22.5 12l10 2q49 4 170 4q48 0 78 -36.5t36 -73.5zM145 1264q11 25 -1 31
q-10 6 -18 -14q-1 -3 -2 -7q-6 -28 -7 -68t7 -73q0 82 21 131zM407 63q15 1 18 14q4 14 -11 14h-5q-42 -7 -115.5 9t-93.5 25q125 -65 207 -62zM1140 985q19 177 5 270q-4 23 -16 26q-10 2 -12 -12q-1 -9 4 -22q10 -28 14.5 -93.5t4.5 -117.5v-51z" />
    <glyph glyph-name="u" unicode="&#xf9;" horiz-adv-x="1245" 
d="M1208 1258q9 -476 -12 -572q-12 -56 -22 -92.5t-31.5 -93.5t-58 -114.5t-86.5 -116.5q-52 -60 -114.5 -108t-122.5 -76t-124 -48.5t-118 -26.5t-105 -9.5t-86 1.5q-68 5 -120 33t-78 64t-42.5 71.5t-19.5 59.5l-4 25v945q-3 83 22 124t72 58q74 30 207 6q47 -9 74.5 -26
t34 -40t6 -42t-6.5 -46t-7 -37q-8 -144 -9 -342t2 -323l3 -126q72 1 130.5 18.5t99 46t71 70t48 87.5t28 101.5t13.5 109.5t1.5 114t-5 112.5t-8.5 107.5q-4 39 -5 57q-3 45 4 79t20 50.5t26.5 26.5t22.5 12l10 2q49 4 170 4q48 0 78 -36.5t36 -73.5zM145 1264q11 25 -1 31
q-10 6 -18 -14q-1 -3 -2 -7q-6 -28 -7 -68t7 -73q0 82 21 131zM407 63q15 1 18 14q4 14 -11 14h-5q-42 -7 -115.5 9t-93.5 25q125 -65 207 -62zM1140 985q19 177 5 270q-4 23 -16 26q-10 2 -12 -12q-1 -9 4 -22q10 -28 14.5 -93.5t4.5 -117.5v-51z" />
    <glyph glyph-name="v" unicode="v" horiz-adv-x="1370" 
d="M1162 353q3 0 19.5 -10.5t37 -38.5t23.5 -63q14 -162 -9 -185q-11 -11 -42.5 -24t-83 -25t-129 -6t-159.5 33q-74 25 -144 62t-144.5 94.5t-141 129.5t-130 171.5t-114.5 216.5q-61 140 -95.5 260.5t-40.5 194t-2.5 116.5t13.5 59q24 37 82.5 66.5t133.5 14.5
q40 -8 72.5 -28.5t51 -45.5t29 -45.5t13.5 -35.5q3 -19 9.5 -53t36 -130.5t68.5 -184t112 -194t162 -181.5q20 406 129 682q3 9 10 24.5t32 52.5t55 63t80.5 42t107.5 3q31 -7 59 -21.5t45.5 -31t30.5 -31.5t19 -25l5 -10q-7 -14 -18.5 -39.5t-42 -114.5t-55.5 -187.5
t-50 -254.5t-35 -320zM59 1189q3 -22 16 -24q8 -1 10 10q1 8 -3 21q-8 26 -9 59t2 53l3 20q-15 -21 -20 -64.5t1 -74.5zM1021 1225q19 26 6 34q-11 7 -24 -15l-2 -4q-42 -86 -76 -260q56 191 96 245zM1195 170q7 49 -1 88q-4 18 -15 19q-10 2 -8 -16q1 -5 4 -12
q8 -20 13 -39.5t6 -29.5z" />
    <glyph glyph-name="w" unicode="w" horiz-adv-x="1499" 
d="M1455 1165q-73 -108 -108 -261.5t-43 -292.5q-5 -80 11 -155q3 -1 9.5 -2.5t9.5 -2.5q4 -2 9.5 -5t19.5 -14t24 -24.5t16 -36t2 -47.5q-28 -157 -95 -192q-14 -7 -27.5 -12t-28.5 -7t-26 -2.5t-27.5 1t-24.5 2.5t-27 4t-24 4q-84 12 -188 15l16 -82q-155 -55 -250 -55
q-27 0 -47 26t-27 52l-7 27v4t-1 5q-156 -28 -287 -85q-3 -2 -9.5 -5t-24 -9t-33.5 -8t-35.5 3t-33.5 19q-41 41 -152 189q-6 8 -9.5 22.5t-2 35.5t24 44.5t64.5 40.5q2 0 4 2q-8 17 -13.5 34t-7.5 26l-2 9q-84 424 13 806q13 53 38 91.5t52 55.5t56.5 28.5t52 10t38.5 -0.5
q12 -1 27.5 -4.5t37 -11t40 -18.5t34.5 -29t24 -39.5t5 -53t-20 -68.5q-38 -82 -56 -196.5t-15.5 -205t7.5 -169.5q0 -2 1 -5t1 -5q7 -44 24 -58q11 -10 31.5 -10t40.5 12q18 12 20 54q-12 237 -1 367q8 99 67 148q9 8 35 17t62 16.5t72.5 0.5t65.5 -26.5t41.5 -69.5
t0.5 -124q-25 -155 -17 -347q1 -17 15.5 -25t33.5 -3q21 5 27 26q5 378 139 662q23 49 52.5 83t56 49t55 21t47 4.5t35.5 -5.5q15 -4 32.5 -11.5t41.5 -21t40.5 -33.5t27 -45.5t3.5 -60t-33 -73.5zM141 654q-7 -100 32 -214q-1 16 -3 39.5t-4 86.5t3 86q1 12 -5.5 16.5
t-14 0t-8.5 -14.5zM861 946q0 72 -13 103q-20 46 -68 67q3 -2 7.5 -6t17.5 -19.5t19 -33.5t12 -48.5t-3 -64.5q-3 -17 11 -17q14 4 17 19zM1123 1145q9 20 54 80.5t81 82.5q16 10 5 20.5t-24 -0.5q-63 -51 -116 -183zM1312 193q3 10 -5 13q-8 1 -18 -12q-9 -14 -20.5 -24
t-18.5 -13l-6 -3q28 5 46.5 17t21.5 22z" />
    <glyph glyph-name="x" unicode="x" horiz-adv-x="1511" 
d="M1450 295q5 -4 11.5 -10.5t19.5 -29.5t16.5 -47t-9 -61.5t-46.5 -75.5q-33 -37 -67.5 -54t-60.5 -17.5t-54.5 11.5t-44 23t-34.5 27q-124 110 -393 353q-213 -248 -275 -305q-54 -51 -121.5 -76.5t-122.5 -26.5t-92 4.5t-47 11.5q-8 5 -26 49.5t-32 86.5l-13 42l186 177
l261 293q-391 354 -447 410q-14 14 -26 33.5t-23.5 52.5t-2 75t42.5 84q37 46 82.5 59.5t87.5 -0.5t80 -48q13 -11 442 -400l303 341q56 51 115 77.5t104 30t84.5 -4.5t60 -18t28.5 -18q7 -7 23.5 -46t29.5 -75l13 -36q-43 -22 -96 -65t-85 -75l-31 -32q-123 -150 -273 -329
zM1254 1339q-74 -12 -139 -87q7 6 18.5 16t48.5 26.5t73 17.5q23 1 23 13q0 11 -15 14q-4 1 -9 0zM275 72q51 6 108 35t84 64q-20 -17 -84.5 -45t-114.5 -27q-17 0 -16 -12q1 -13 16 -15h7z" />
    <glyph glyph-name="y" unicode="y" horiz-adv-x="1064" 
d="M976 1404q38 -81 52.5 -286.5t-17.5 -412.5q-12 -64 -24 -115t-35 -122.5t-51 -126.5t-72.5 -115.5t-97.5 -102.5t-128 -73t-163 -41q-66 -7 -121 -8t-94 3t-70.5 12.5t-51 19t-34 24.5t-21 27t-10.5 28t-4.5 26t-0.5 23v10q-1 37 21.5 82.5t43.5 59.5q58 38 134 8
q23 -9 53.5 -14t75.5 -2t87 19t84.5 58t70.5 106q-18 7 -47.5 18.5t-108 46t-141.5 68.5t-122 78t-75 81q-34 80 -50 246t-6 246q8 69 38 104.5t95 34.5q92 -1 134 -19.5t52 -79.5q7 -335 14 -373q5 -26 110.5 -76t166.5 -62q58 -11 10 402l-15 120q-1 3 -1.5 7.5t1.5 17.5
t7 24.5t19.5 23t35.5 17.5q43 12 95 18t101 0t60 -30zM128 846q29 -69 118 -115q-8 5 -20 14t-36.5 40.5t-34.5 67.5q-7 24 -20 19t-8 -23q0 -2 1 -3zM302 59q17 1 18 16q1 12 -11 13l-7 -1q-61 -17 -100.5 -9t-57.5 26l-19 19q8 -15 19 -27t20.5 -19.5t24.5 -12t22.5 -6.5
t25.5 -2.5t22.5 0t23.5 2.5zM974 1085q8 151 -23 270q-6 22 -20 23q-13 1 -13 -15q0 -9 6 -21q15 -29 27.5 -93t17.5 -114z" />
    <glyph glyph-name="y" unicode="&#xff;" horiz-adv-x="1064" 
d="M976 1404q38 -81 52.5 -286.5t-17.5 -412.5q-12 -64 -24 -115t-35 -122.5t-51 -126.5t-72.5 -115.5t-97.5 -102.5t-128 -73t-163 -41q-66 -7 -121 -8t-94 3t-70.5 12.5t-51 19t-34 24.5t-21 27t-10.5 28t-4.5 26t-0.5 23v10q-1 37 21.5 82.5t43.5 59.5q58 38 134 8
q23 -9 53.5 -14t75.5 -2t87 19t84.5 58t70.5 106q-18 7 -47.5 18.5t-108 46t-141.5 68.5t-122 78t-75 81q-34 80 -50 246t-6 246q8 69 38 104.5t95 34.5q92 -1 134 -19.5t52 -79.5q7 -335 14 -373q5 -26 110.5 -76t166.5 -62q58 -11 10 402l-15 120q-1 3 -1.5 7.5t1.5 17.5
t7 24.5t19.5 23t35.5 17.5q43 12 95 18t101 0t60 -30zM128 846q29 -69 118 -115q-8 5 -20 14t-36.5 40.5t-34.5 67.5q-7 24 -20 19t-8 -23q0 -2 1 -3zM302 59q17 1 18 16q1 12 -11 13l-7 -1q-61 -17 -100.5 -9t-57.5 26l-19 19q8 -15 19 -27t20.5 -19.5t24.5 -12t22.5 -6.5
t25.5 -2.5t22.5 0t23.5 2.5zM974 1085q8 151 -23 270q-6 22 -20 23q-13 1 -13 -15q0 -9 6 -21q15 -29 27.5 -93t17.5 -114z" />
    <glyph glyph-name="y" unicode="&#xfd;" horiz-adv-x="1064" 
d="M976 1404q38 -81 52.5 -286.5t-17.5 -412.5q-12 -64 -24 -115t-35 -122.5t-51 -126.5t-72.5 -115.5t-97.5 -102.5t-128 -73t-163 -41q-66 -7 -121 -8t-94 3t-70.5 12.5t-51 19t-34 24.5t-21 27t-10.5 28t-4.5 26t-0.5 23v10q-1 37 21.5 82.5t43.5 59.5q58 38 134 8
q23 -9 53.5 -14t75.5 -2t87 19t84.5 58t70.5 106q-18 7 -47.5 18.5t-108 46t-141.5 68.5t-122 78t-75 81q-34 80 -50 246t-6 246q8 69 38 104.5t95 34.5q92 -1 134 -19.5t52 -79.5q7 -335 14 -373q5 -26 110.5 -76t166.5 -62q58 -11 10 402l-15 120q-1 3 -1.5 7.5t1.5 17.5
t7 24.5t19.5 23t35.5 17.5q43 12 95 18t101 0t60 -30zM128 846q29 -69 118 -115q-8 5 -20 14t-36.5 40.5t-34.5 67.5q-7 24 -20 19t-8 -23q0 -2 1 -3zM302 59q17 1 18 16q1 12 -11 13l-7 -1q-61 -17 -100.5 -9t-57.5 26l-19 19q8 -15 19 -27t20.5 -19.5t24.5 -12t22.5 -6.5
t25.5 -2.5t22.5 0t23.5 2.5zM974 1085q8 151 -23 270q-6 22 -20 23q-13 1 -13 -15q0 -9 6 -21q15 -29 27.5 -93t17.5 -114z" />
    <glyph glyph-name="z" unicode="z" horiz-adv-x="1169" 
d="M1152 304q9 -2 1 -57t-27 -86q-21 -33 -37.5 -53.5t-46 -43.5t-73.5 -38.5t-105 -25.5h-719q-5 2 -13.5 5.5t-26 20.5t-26.5 39q-20 51 -32 112t0 91l632 850q-271 8 -327 0q-23 -3 -59 -26.5t-52 -37.5t-55 -49q-156 92 -170 101q-9 2 -1 57.5t27 86.5q28 44 51.5 69.5
t76.5 51.5t134 39h719q5 -2 13.5 -5.5t26 -20t26.5 -38.5q20 -51 32 -112.5t0 -91.5l-632 -849q271 -8 327 0q23 3 59 26.5t52 37.5t55 49q156 -93 170 -102zM132 1250q21 40 80 77t86 47q-74 -22 -114 -43.5t-71 -60.5q-10 -13 0 -24.5t19 4.5zM136 70q10 -14 19 -11
q13 4 -3 26q-2 1 -3 3q-17 21 -30 49.5t-17 46.5l-4 18q-2 -71 38 -132zM1032 112q13 11 4 25q-9 10 -19 -2q-28 -35 -92.5 -61t-93.5 -31q77 9 120.5 23t80.5 46z" />
    <glyph glyph-name="nonbreakingspace" unicode="&#xa0;" horiz-adv-x="706" 
 />
    <glyph glyph-name="softhyphen" unicode="&#xad;" 
 />
    </font>
</defs>
</svg>
